<svg width="40" height="41" viewBox="0 0 40 41" fill="none" xmlns="http://www.w3.org/2000/svg">
<path d="M33.3775 34.0083H19.9394H6.49219V20.6246V7.12305H19.8966H33.3775V20.5653V34.0083Z" fill="white"/>
<path d="M32.3623 26.111H23.5276L22.9664 25.3825V26.111H21.0519V24.9486C20.8096 25.0389 20.5349 25.0927 20.2281 25.0927H19.9159V26.111H17.078L16.6433 25.5046L16.2225 26.111H11.6059V21.6573H16.2404L16.6705 22.2547L17.0959 21.6573H33.3775V7.12305H6.49219V18.0425L7.42458 15.8695H9.28052L9.75999 16.9849V15.8695H12.0277L12.3265 16.7522L12.6252 15.8695H22.4785V16.284C22.8475 15.9996 23.3265 15.8695 23.8498 15.8695H26.9095L27.389 16.9849V15.8695H29.2221L29.7561 16.6977V15.8695H31.7206V20.3232H29.7878L29.2856 19.5447V20.3232H26.5428L26.2848 19.6623H25.7052L25.4476 20.3232H23.8001C23.3648 20.3232 22.8723 20.2345 22.4785 19.939V20.3232H19.6947L19.1335 19.5947V20.3232H8.91383L8.65579 19.6623H8.07658L7.81855 20.3232H6.49219V34.0083H33.3775V25.8207C33.1037 26.0013 32.7559 26.111 32.3623 26.111Z" fill="#006FCF"/>
<path d="M32.3622 24.7578H30.7237V25.4684H32.3578C33.0456 25.4684 33.453 25.0517 33.453 24.4408C33.453 23.8662 33.0953 23.5312 32.4664 23.5312H31.7151C31.5475 23.5312 31.4298 23.427 31.4298 23.2686C31.4298 23.1103 31.5475 23.0106 31.7151 23.0106H33.0818L33.394 22.3H31.724C31.0359 22.3 30.624 22.7208 30.624 23.2959C30.624 23.8934 31.0135 24.2373 31.6154 24.2373H32.3622C32.5296 24.2373 32.652 24.3415 32.652 24.4998C32.652 24.6581 32.5296 24.7578 32.3622 24.7578ZM29.4608 24.7578H27.8226V25.4684H29.4563C30.1445 25.4684 30.5519 25.0517 30.5519 24.4408C30.5519 23.8662 30.1942 23.5312 29.565 23.5312H28.8137C28.6463 23.5312 28.5288 23.427 28.5288 23.2686C28.5288 23.1103 28.6463 23.0106 28.8137 23.0106H30.1808L30.4929 22.3H28.8226C28.1348 22.3 27.7229 22.7208 27.7229 23.2959C27.7229 23.8934 28.112 24.2373 28.7143 24.2373H29.4608C29.6284 24.2373 29.7505 24.3415 29.7505 24.4998C29.7505 24.6581 29.6284 24.7578 29.4608 24.7578ZM27.4649 23.0106V22.3H24.885V25.4684H27.4649V24.7578H25.6908V24.219H27.4242V23.5267H25.6908V23.0106H27.4649ZM23.3823 23.0106C23.6269 23.0106 23.7535 23.16 23.7535 23.3366C23.7535 23.5178 23.6269 23.6578 23.3823 23.6578H22.5089V23.0106H23.3823ZM22.5089 24.346H22.8211L23.7673 25.4684H24.7583L23.7311 24.3142C24.2517 24.201 24.5638 23.816 24.5638 23.3228C24.5638 22.7164 24.143 22.3 23.4641 22.3H21.7035V25.4684H22.5089V24.346ZM20.5492 23.3728C20.5492 23.5674 20.4223 23.7258 20.178 23.7258H19.2818V23.0106H20.178C20.4223 23.0106 20.5492 23.1734 20.5492 23.3728ZM18.4764 22.3V25.4684H19.2818V24.4363H20.2322C20.9294 24.4363 21.3591 23.9793 21.3591 23.3684C21.3591 22.7347 20.9383 22.3 20.2595 22.3H18.4764ZM17.3991 25.4684H18.4084L17.132 23.8706L18.3995 22.3H17.417L16.6701 23.2731L15.9233 22.3H14.9143L16.1814 23.8885L14.9188 25.4684H15.9009L16.6477 24.486L17.3991 25.4684ZM14.8553 23.0106V22.3H12.2754V25.4684H14.8553V24.7578H13.0812V24.219H14.8147V23.5267H13.0812V23.0106H14.8553Z" fill="#006FCF"/>
<path d="M30.0731 19.6807H31.0507V16.5122H30.2497V18.4768L28.9869 16.5122H27.9686V19.6807H28.7695V17.6441L30.0731 19.6807ZM25.5518 18.3453L25.9905 17.2591L26.4342 18.3453H25.5518ZM26.9775 19.6807H27.8827L26.5294 16.5122H25.4838L24.1261 19.6807H25.013L25.2754 19.0335H26.715L26.9775 19.6807ZM23.7187 19.6807H23.7821L24.1123 18.97H23.8543C23.3475 18.97 23.0488 18.6624 23.0488 18.119V18.0738C23.0488 17.5985 23.3158 17.2457 23.8408 17.2457H24.6918V16.5122H23.7773C22.7818 16.5122 22.2478 17.1732 22.2478 18.0738V18.119C22.2478 19.0921 22.809 19.6807 23.7187 19.6807ZM21.0529 19.6807H21.8587V18.0965V16.5122H21.0529V18.0965V19.6807ZM19.5502 17.2228C19.7945 17.2228 19.9214 17.3722 19.9214 17.5489C19.9214 17.7299 19.7945 17.8703 19.5502 17.8703H18.6768V17.2228H19.5502ZM18.6768 18.5582H18.989L19.9349 19.6807H20.9263L19.8987 18.5264C20.4192 18.4133 20.7314 18.0287 20.7314 17.5354C20.7314 16.9289 20.3105 16.5122 19.6316 16.5122H17.871V19.6807H18.6768V18.5582ZM17.4184 17.2228V16.5122H14.8385V19.6807H17.4184V18.97H15.6443V18.4316H17.3777V17.7389H15.6443V17.2228H17.4184ZM11.9691 19.6807H12.6704L13.508 17.336V19.6807H14.3045V16.5122H13.0371L12.331 18.5309L11.6204 16.5122H10.3395V19.6807H11.1364V17.336L11.9691 19.6807ZM7.92279 18.3453L8.36194 17.2591L8.80554 18.3453H7.92279ZM9.34849 19.6807H10.2537L8.90036 16.5122H7.85479L6.49707 19.6807H7.3843L7.64685 19.0335H9.086L9.34849 19.6807Z" fill="#006FCF"/>
</svg>
