<svg width="28" height="29" viewBox="0 0 28 29" fill="none" xmlns="http://www.w3.org/2000/svg">
<g filter="url(#filter0_d_218_2457)">
<mask id="mask0_218_2457" style="mask-type:alpha" maskUnits="userSpaceOnUse" x="2" y="0" width="24" height="25">
<rect x="2" y="0.5" width="24" height="24" fill="#D9D9D9"/>
</mask>
<g mask="url(#mask0_218_2457)">
<path d="M12.6 14.3L10.45 12.15C10.2667 11.9667 10.0333 11.875 9.75 11.875C9.46667 11.875 9.23333 11.9667 9.05 12.15C8.86667 12.3333 8.775 12.5667 8.775 12.85C8.775 13.1333 8.86667 13.3667 9.05 13.55L11.9 16.4C12.1 16.6 12.3333 16.7 12.6 16.7C12.8667 16.7 13.1 16.6 13.3 16.4L18.95 10.75C19.1333 10.5667 19.225 10.3333 19.225 10.05C19.225 9.76667 19.1333 9.53333 18.95 9.35C18.7667 9.16667 18.5333 9.075 18.25 9.075C17.9667 9.075 17.7333 9.16667 17.55 9.35L12.6 14.3ZM14 22.5C12.6167 22.5 11.3167 22.2375 10.1 21.7125C8.88333 21.1875 7.825 20.475 6.925 19.575C6.025 18.675 5.3125 17.6167 4.7875 16.4C4.2625 15.1833 4 13.8833 4 12.5C4 11.1167 4.2625 9.81667 4.7875 8.6C5.3125 7.38333 6.025 6.325 6.925 5.425C7.825 4.525 8.88333 3.8125 10.1 3.2875C11.3167 2.7625 12.6167 2.5 14 2.5C15.3833 2.5 16.6833 2.7625 17.9 3.2875C19.1167 3.8125 20.175 4.525 21.075 5.425C21.975 6.325 22.6875 7.38333 23.2125 8.6C23.7375 9.81667 24 11.1167 24 12.5C24 13.8833 23.7375 15.1833 23.2125 16.4C22.6875 17.6167 21.975 18.675 21.075 19.575C20.175 20.475 19.1167 21.1875 17.9 21.7125C16.6833 22.2375 15.3833 22.5 14 22.5Z" fill="url(#paint0_linear_218_2457)"/>
</g>
</g>
<defs>
<filter id="filter0_d_218_2457" x="0" y="0.5" width="28" height="28" filterUnits="userSpaceOnUse" color-interpolation-filters="sRGB">
<feFlood flood-opacity="0" result="BackgroundImageFix"/>
<feColorMatrix in="SourceAlpha" type="matrix" values="0 0 0 0 0 0 0 0 0 0 0 0 0 0 0 0 0 0 127 0" result="hardAlpha"/>
<feOffset dy="2"/>
<feGaussianBlur stdDeviation="2"/>
<feComposite in2="hardAlpha" operator="out"/>
<feColorMatrix type="matrix" values="0 0 0 0 0.129412 0 0 0 0 0.145098 0 0 0 0 0.160784 0 0 0 0.1 0"/>
<feBlend mode="normal" in2="BackgroundImageFix" result="effect1_dropShadow_218_2457"/>
<feBlend mode="normal" in="SourceGraphic" in2="effect1_dropShadow_218_2457" result="shape"/>
</filter>
<linearGradient id="paint0_linear_218_2457" x1="4" y1="12.5" x2="24" y2="12.5" gradientUnits="userSpaceOnUse">
<stop stop-color="#4481EB"/>
<stop offset="1" stop-color="#04BEFE"/>
</linearGradient>
</defs>
</svg>
