<svg width="40" height="25" viewBox="0 0 40 25" fill="none" xmlns="http://www.w3.org/2000/svg">
<g clip-path="url(#clip0_218_2430)">
<path d="M38.4 0.5H1.6C0.716344 0.5 0 1.21634 0 2.1V22.9C0 23.7837 0.716344 24.5 1.6 24.5H38.4C39.2837 24.5 40 23.7837 40 22.9V2.1C40 1.21634 39.2837 0.5 38.4 0.5Z" fill="white"/>
<path d="M9.64648 24.5H38.4005C39.2845 24.5 40.0005 23.7852 40.0005 22.902V13.9792C40.0005 13.9792 29.2805 21.2472 9.64648 24.5Z" fill="#E6772F"/>
<path fill-rule="evenodd" clip-rule="evenodd" d="M7.31604 12.4289C7.01564 12.6857 6.63324 12.7981 6.02204 12.7981H5.76844V9.73408H6.02204C6.63324 9.73408 7.00084 9.83848 7.31604 10.1081C7.64084 10.3869 7.83604 10.8161 7.83604 11.2609C7.83604 11.7073 7.64084 12.1525 7.31604 12.4289ZM6.21124 8.94888H4.82324V13.5833H6.20324C6.93684 13.5833 7.46724 13.4161 7.93124 13.0473C8.48324 12.6101 8.81044 11.9505 8.81044 11.2673C8.81044 9.89928 7.74244 8.94888 6.21124 8.94888ZM9.24604 8.94888H10.1872V13.5833H9.24604V8.94888ZM12.498 10.7253C11.93 10.5257 11.764 10.3933 11.764 10.1425C11.764 9.85128 12.0608 9.63048 12.4688 9.63048C12.7516 9.63048 12.9848 9.73888 13.2328 10.0037L13.724 9.38688C13.3276 9.05003 12.8231 8.86727 12.3028 8.87208C11.4456 8.87208 10.7924 9.44248 10.7924 10.1969C10.7924 10.8373 11.096 11.1625 11.982 11.4709C12.3528 11.5941 12.5408 11.6785 12.636 11.7353C12.8248 11.8521 12.9188 12.0193 12.9188 12.2129C12.9188 12.5901 12.6068 12.8669 12.1848 12.8669C11.7356 12.8669 11.3724 12.6517 11.1548 12.2477L10.546 12.8117C10.9812 13.4221 11.5028 13.6949 12.222 13.6949C13.202 13.6949 13.8928 13.0669 13.8928 12.1725C13.8928 11.4353 13.5728 11.1009 12.498 10.7253ZM14.1896 11.2673C14.1896 12.6301 15.3076 13.6861 16.7464 13.6861C17.1524 13.6861 17.5 13.6093 17.9284 13.4161V12.3509C17.55 12.7149 17.2176 12.8589 16.788 12.8589C15.8372 12.8589 15.1636 12.2001 15.1636 11.2609C15.1636 10.3729 15.8588 9.67008 16.7464 9.67008C17.1944 9.67008 17.5368 9.82208 17.9284 10.1913V9.12728C17.5148 8.92728 17.1752 8.84448 16.766 8.84448C15.3352 8.84448 14.1896 9.92088 14.1896 11.2673ZM25.58 12.0601L24.2884 8.94888H23.2588L25.3116 13.7001H25.818L27.9108 8.94888H26.8892L25.58 12.0601ZM28.3392 13.5833H31.0176V12.7981H29.2844V11.5469H30.9516V10.7621H29.2844V9.73408H31.0176V8.94888H28.3392V13.5833ZM32.862 11.0801H32.588V9.67848H32.8776C33.4676 9.67848 33.7836 9.91528 33.7836 10.3665C33.7836 10.8305 33.4676 11.0801 32.862 11.0801ZM34.756 10.3161C34.756 9.44848 34.134 8.94888 33.044 8.94888H31.6412V13.5833H32.588V11.7201H32.7108L34.0156 13.5833H35.1772L33.6536 11.6301C34.3656 11.4909 34.756 11.0249 34.756 10.3161Z" fill="#1A1919"/>
<path fill-rule="evenodd" clip-rule="evenodd" d="M23.3916 11.2781C23.3916 12.6121 22.262 13.6937 20.8672 13.6937C19.4724 13.6937 18.3428 12.6121 18.3428 11.2781C18.3428 9.94366 19.4724 8.86206 20.8668 8.86206C22.262 8.86206 23.3916 9.94366 23.3916 11.2781Z" fill="#E6772F"/>
</g>
<defs>
<clipPath id="clip0_218_2430">
<rect width="40" height="24" fill="white" transform="translate(0 0.5)"/>
</clipPath>
</defs>
</svg>
