<svg width="40" height="41" viewBox="0 0 40 41" fill="none" xmlns="http://www.w3.org/2000/svg">
<mask id="mask0_218_2427" style="mask-type:luminance" maskUnits="userSpaceOnUse" x="0" y="0" width="40" height="41">
<path d="M39.9604 0.5H0V40.4604H39.9604V0.5Z" fill="white"/>
</mask>
<g mask="url(#mask0_218_2427)">
<path d="M25.3829 10.7734H14.5781V30.1877H25.3829V10.7734Z" fill="#FF5F00"/>
<path d="M15.2638 20.4806C15.2638 16.536 17.1161 13.0373 19.963 10.7735C17.8707 9.12705 15.2295 8.13232 12.3483 8.13232C5.52244 8.13232 0 13.6548 0 20.4806C0 27.3064 5.52244 32.8289 12.3483 32.8289C15.2295 32.8289 17.8707 31.8341 19.963 30.1877C17.1161 27.9582 15.2638 24.4252 15.2638 20.4806Z" fill="#EB001B"/>
<path d="M39.9602 20.4806C39.9602 27.3064 34.4377 32.8289 27.6119 32.8289C24.7306 32.8289 22.0894 31.8341 19.9971 30.1877C22.8783 27.9239 24.6963 24.4252 24.6963 20.4806C24.6963 16.536 22.8441 13.0373 19.9971 10.7735C22.0894 9.12705 24.7306 8.13232 27.6119 8.13232C34.4377 8.13232 39.9602 13.689 39.9602 20.4806Z" fill="#F79E1B"/>
</g>
</svg>
