<svg width="259" height="130" viewBox="0 0 259 130" fill="none" xmlns="http://www.w3.org/2000/svg">
<rect x="1.5" y="2" width="256" height="126" rx="6.5" stroke="url(#paint0_linear_218_2410)" stroke-width="3"/>
<g filter="url(#filter0_d_218_2410)">
<path d="M46.376 60.9033V66.9531H43.1768V60.9033H46.376ZM45.9863 94.3926V99.9092H42.7871V94.3926H45.9863ZM48.2422 87.666C48.2422 86.8867 48.0986 86.2236 47.8115 85.6768C47.5381 85.1299 47.0869 84.6445 46.458 84.2207C45.8428 83.7969 45.0088 83.3867 43.9561 82.9902C42.1787 82.3066 40.6133 81.582 39.2598 80.8164C37.9199 80.0371 36.874 79.0732 36.1221 77.9248C35.3701 76.7627 34.9941 75.293 34.9941 73.5156C34.9941 71.8203 35.3975 70.3506 36.2041 69.1064C37.0107 67.8623 38.125 66.9053 39.5469 66.2354C40.9824 65.5518 42.6504 65.21 44.5508 65.21C46 65.21 47.3125 65.4287 48.4883 65.8662C49.6641 66.29 50.6758 66.9189 51.5234 67.7529C52.3711 68.5732 53.0205 69.5781 53.4717 70.7676C53.9229 71.957 54.1484 73.3174 54.1484 74.8486H48.2627C48.2627 74.0283 48.1738 73.3037 47.9961 72.6748C47.8184 72.0459 47.5586 71.5195 47.2168 71.0957C46.8887 70.6719 46.4922 70.3574 46.0273 70.1523C45.5625 69.9336 45.0498 69.8242 44.4893 69.8242C43.6553 69.8242 42.9717 69.9883 42.4385 70.3164C41.9053 70.6445 41.5156 71.0889 41.2695 71.6494C41.0371 72.1963 40.9209 72.8252 40.9209 73.5361C40.9209 74.2334 41.0439 74.8418 41.29 75.3613C41.5498 75.8809 41.9941 76.3594 42.623 76.7969C43.252 77.2207 44.1133 77.6582 45.207 78.1094C46.9844 78.793 48.543 79.5312 49.8828 80.3242C51.2227 81.1172 52.2686 82.0879 53.0205 83.2363C53.7725 84.3848 54.1484 85.8477 54.1484 87.625C54.1484 89.3887 53.7383 90.8926 52.918 92.1367C52.0977 93.3672 50.9492 94.3105 49.4727 94.9668C47.9961 95.6094 46.2871 95.9307 44.3457 95.9307C43.0879 95.9307 41.8369 95.7666 40.5928 95.4385C39.3486 95.0967 38.2207 94.5498 37.209 93.7979C36.1973 93.0459 35.3906 92.0479 34.7891 90.8037C34.1875 89.5459 33.8867 88.001 33.8867 86.1689H39.793C39.793 87.167 39.9229 88.001 40.1826 88.6709C40.4424 89.3271 40.7842 89.8535 41.208 90.25C41.6455 90.6328 42.1377 90.9062 42.6846 91.0703C43.2314 91.2344 43.7852 91.3164 44.3457 91.3164C45.2207 91.3164 45.9385 91.1592 46.499 90.8447C47.0732 90.5303 47.5039 90.0996 47.791 89.5527C48.0918 88.9922 48.2422 88.3633 48.2422 87.666ZM73.4053 65.333H74.2666V70.0498H73.918C72.3594 70.0498 70.9717 70.2822 69.7549 70.7471C68.5381 71.2119 67.5059 71.875 66.6582 72.7363C65.8242 73.584 65.1816 74.6094 64.7305 75.8125C64.293 77.0156 64.0742 78.3623 64.0742 79.8525V84.8154C64.0742 85.8818 64.1768 86.8252 64.3818 87.6455C64.6006 88.4521 64.9082 89.1289 65.3047 89.6758C65.7148 90.209 66.1934 90.6123 66.7402 90.8857C67.2871 91.1455 67.9023 91.2754 68.5859 91.2754C69.2285 91.2754 69.8096 91.1387 70.3291 90.8652C70.8623 90.5918 71.3135 90.209 71.6826 89.7168C72.0654 89.2109 72.3525 88.623 72.5439 87.9531C72.749 87.2695 72.8516 86.5244 72.8516 85.7178C72.8516 84.9111 72.749 84.166 72.5439 83.4824C72.3525 82.7988 72.0654 82.2109 71.6826 81.7188C71.2998 81.2129 70.835 80.8232 70.2881 80.5498C69.7412 80.2764 69.126 80.1396 68.4424 80.1396C67.5127 80.1396 66.6924 80.3584 65.9814 80.7959C65.2842 81.2197 64.7373 81.7666 64.3408 82.4365C63.9443 83.1064 63.7324 83.8105 63.7051 84.5488L61.9209 83.4004C61.9619 82.3477 62.1807 81.3496 62.5771 80.4062C62.9873 79.4629 63.5479 78.6289 64.2588 77.9043C64.9834 77.166 65.8516 76.5918 66.8633 76.1816C67.875 75.7578 69.0166 75.5459 70.2881 75.5459C71.6826 75.5459 72.9062 75.8125 73.959 76.3457C75.0254 76.8789 75.9141 77.6104 76.625 78.54C77.3359 79.4697 77.8691 80.543 78.2246 81.7598C78.5801 82.9766 78.7578 84.2754 78.7578 85.6562C78.7578 87.1055 78.5186 88.4521 78.04 89.6963C77.5752 90.9404 76.8984 92.0273 76.0098 92.957C75.1348 93.8867 74.082 94.6113 72.8516 95.1309C71.6211 95.6504 70.2402 95.9102 68.709 95.9102C67.123 95.9102 65.6807 95.623 64.3818 95.0488C63.0967 94.4609 61.9893 93.6406 61.0596 92.5879C60.1299 91.5352 59.4121 90.2842 58.9062 88.835C58.4141 87.3857 58.168 85.7998 58.168 84.0771V81.7803C58.168 79.374 58.5166 77.1729 59.2139 75.1768C59.9248 73.167 60.9434 71.4307 62.2695 69.9678C63.5957 68.4912 65.1953 67.3496 67.0684 66.543C68.9414 65.7363 71.0537 65.333 73.4053 65.333ZM86.4688 91.0088H86.8584C88.499 91.0088 89.9072 90.8105 91.083 90.4141C92.2725 90.0039 93.25 89.416 94.0156 88.6504C94.7812 87.8848 95.3486 86.9482 95.7178 85.8408C96.0869 84.7197 96.2715 83.4482 96.2715 82.0264V76.3662C96.2715 75.2861 96.1621 74.3359 95.9434 73.5156C95.7383 72.6953 95.4375 72.0186 95.041 71.4854C94.6582 70.9385 94.207 70.5283 93.6875 70.2549C93.1816 69.9814 92.6211 69.8447 92.0059 69.8447C91.3496 69.8447 90.7686 70.0088 90.2627 70.3369C89.7568 70.6514 89.3262 71.082 88.9707 71.6289C88.6289 72.1758 88.3623 72.8047 88.1709 73.5156C87.9932 74.2129 87.9043 74.9443 87.9043 75.71C87.9043 76.4756 87.9932 77.207 88.1709 77.9043C88.3486 78.5879 88.6152 79.1963 88.9707 79.7295C89.3262 80.249 89.7705 80.666 90.3037 80.9805C90.8369 81.2812 91.4658 81.4316 92.1904 81.4316C92.8877 81.4316 93.5098 81.3018 94.0566 81.042C94.6172 80.7686 95.0889 80.4131 95.4717 79.9756C95.8682 79.5381 96.1689 79.0527 96.374 78.5195C96.5928 77.9863 96.7021 77.4463 96.7021 76.8994L98.6504 77.9658C98.6504 78.9229 98.4453 79.8662 98.0352 80.7959C97.625 81.7256 97.0508 82.5732 96.3125 83.3389C95.5879 84.0908 94.7471 84.6924 93.79 85.1436C92.833 85.5947 91.8076 85.8203 90.7139 85.8203C89.3193 85.8203 88.082 85.5674 87.002 85.0615C85.9219 84.542 85.0059 83.8311 84.2539 82.9287C83.5156 82.0127 82.9551 80.9463 82.5723 79.7295C82.1895 78.5127 81.998 77.1934 81.998 75.7715C81.998 74.3223 82.2305 72.9619 82.6953 71.6904C83.1738 70.4189 83.8506 69.2979 84.7256 68.3271C85.6143 67.3564 86.6738 66.5977 87.9043 66.0508C89.1484 65.4902 90.5293 65.21 92.0469 65.21C93.5645 65.21 94.9453 65.5039 96.1895 66.0918C97.4336 66.6797 98.5 67.5137 99.3887 68.5938C100.277 69.6602 100.961 70.9385 101.439 72.4287C101.932 73.9189 102.178 75.5732 102.178 77.3916V79.4424C102.178 81.3838 101.966 83.1885 101.542 84.8564C101.132 86.5244 100.51 88.0352 99.6758 89.3887C98.8555 90.7285 97.8301 91.877 96.5996 92.834C95.3828 93.791 93.9678 94.5225 92.3545 95.0283C90.7412 95.5342 88.9365 95.7871 86.9404 95.7871H86.4688V91.0088Z" fill="#013A63"/>
</g>
<g filter="url(#filter1_d_218_2410)">
<path d="M36.4497 33.0532H34.0439V31.79H36.4497C36.8687 31.79 37.2072 31.7223 37.4653 31.5869C37.7235 31.4515 37.9118 31.2653 38.0303 31.0283C38.153 30.7871 38.2144 30.512 38.2144 30.2031C38.2144 29.9111 38.153 29.6382 38.0303 29.3843C37.9118 29.1261 37.7235 28.9188 37.4653 28.7622C37.2072 28.6056 36.8687 28.5273 36.4497 28.5273H34.5327V36.5H32.9395V27.2578H36.4497C37.1649 27.2578 37.7721 27.3848 38.2715 27.6387C38.7751 27.8883 39.158 28.2354 39.4204 28.6797C39.6828 29.1198 39.814 29.6234 39.814 30.1904C39.814 30.7871 39.6828 31.2992 39.4204 31.7266C39.158 32.154 38.7751 32.4819 38.2715 32.7104C37.7721 32.939 37.1649 33.0532 36.4497 33.0532ZM44.8857 35.1226V31.8472C44.8857 31.6017 44.8413 31.3901 44.7524 31.2124C44.6636 31.0347 44.5282 30.8971 44.3462 30.7998C44.1685 30.7025 43.9442 30.6538 43.6733 30.6538C43.4237 30.6538 43.2078 30.6961 43.0259 30.7808C42.8439 30.8654 42.7021 30.9797 42.6006 31.1235C42.499 31.2674 42.4482 31.4303 42.4482 31.6123H40.9248C40.9248 31.3415 40.9904 31.0791 41.1216 30.8252C41.2528 30.5713 41.4432 30.3449 41.6929 30.146C41.9425 29.9471 42.2409 29.7905 42.5879 29.6763C42.9349 29.562 43.3242 29.5049 43.7559 29.5049C44.2721 29.5049 44.7292 29.5916 45.127 29.7651C45.529 29.9386 45.8442 30.201 46.0728 30.5522C46.3055 30.8993 46.4219 31.3351 46.4219 31.8599V34.9131C46.4219 35.2262 46.443 35.5076 46.4854 35.7573C46.5319 36.0028 46.5975 36.2165 46.6821 36.3984V36.5H45.1143C45.0423 36.335 44.9852 36.1255 44.9429 35.8716C44.9048 35.6134 44.8857 35.3638 44.8857 35.1226ZM45.1079 32.3232L45.1206 33.269H44.0225C43.7389 33.269 43.4893 33.2965 43.2734 33.3516C43.0576 33.4023 42.8778 33.4785 42.7339 33.5801C42.59 33.6816 42.4821 33.8044 42.4102 33.9482C42.3382 34.0921 42.3022 34.255 42.3022 34.437C42.3022 34.619 42.3446 34.7861 42.4292 34.9385C42.5138 35.0866 42.6366 35.203 42.7974 35.2876C42.9624 35.3722 43.1613 35.4146 43.394 35.4146C43.7072 35.4146 43.9801 35.3511 44.2129 35.2241C44.4499 35.0929 44.6361 34.9342 44.7715 34.748C44.9069 34.5576 44.9788 34.3778 44.9873 34.2085L45.4824 34.8877C45.4316 35.0612 45.3449 35.2474 45.2222 35.4463C45.0994 35.6452 44.9386 35.8356 44.7397 36.0176C44.5451 36.1953 44.3102 36.3413 44.0352 36.4556C43.7643 36.5698 43.4512 36.627 43.0957 36.627C42.6471 36.627 42.2472 36.5381 41.896 36.3604C41.5448 36.1784 41.2697 35.9351 41.0708 35.6304C40.8719 35.3215 40.7725 34.9723 40.7725 34.583C40.7725 34.2191 40.8402 33.8975 40.9756 33.6182C41.1152 33.3346 41.3184 33.0977 41.585 32.9072C41.8558 32.7168 42.1859 32.5729 42.5752 32.4756C42.9645 32.374 43.4089 32.3232 43.9082 32.3232H45.1079ZM49.9131 35.751L51.7793 29.6318H53.417L50.6621 37.5474C50.5986 37.7166 50.5161 37.9007 50.4146 38.0996C50.313 38.2985 50.1797 38.4868 50.0146 38.6646C49.8538 38.8465 49.6528 38.9925 49.4116 39.1025C49.1704 39.2168 48.8784 39.2739 48.5356 39.2739C48.4002 39.2739 48.269 39.2612 48.1421 39.2358C48.0194 39.2147 47.903 39.1914 47.793 39.166L47.7866 37.998C47.8289 38.0023 47.8797 38.0065 47.939 38.0107C48.0024 38.015 48.0532 38.0171 48.0913 38.0171C48.3452 38.0171 48.5568 37.9854 48.7261 37.9219C48.8953 37.8626 49.0329 37.7653 49.1387 37.6299C49.2487 37.4945 49.3418 37.3125 49.418 37.084L49.9131 35.751ZM48.8594 29.6318L50.4907 34.7734L50.7637 36.3857L49.7036 36.6587L47.209 29.6318H48.8594ZM61.4023 35.1226V31.8472C61.4023 31.6017 61.3579 31.3901 61.269 31.2124C61.1802 31.0347 61.0448 30.8971 60.8628 30.7998C60.6851 30.7025 60.4608 30.6538 60.1899 30.6538C59.9403 30.6538 59.7244 30.6961 59.5425 30.7808C59.3605 30.8654 59.2188 30.9797 59.1172 31.1235C59.0156 31.2674 58.9648 31.4303 58.9648 31.6123H57.4414C57.4414 31.3415 57.507 31.0791 57.6382 30.8252C57.7694 30.5713 57.9598 30.3449 58.2095 30.146C58.4591 29.9471 58.7575 29.7905 59.1045 29.6763C59.4515 29.562 59.8408 29.5049 60.2725 29.5049C60.7887 29.5049 61.2458 29.5916 61.6436 29.7651C62.0456 29.9386 62.3608 30.201 62.5894 30.5522C62.8221 30.8993 62.9385 31.3351 62.9385 31.8599V34.9131C62.9385 35.2262 62.9596 35.5076 63.002 35.7573C63.0485 36.0028 63.1141 36.2165 63.1987 36.3984V36.5H61.6309C61.5589 36.335 61.5018 36.1255 61.4595 35.8716C61.4214 35.6134 61.4023 35.3638 61.4023 35.1226ZM61.6245 32.3232L61.6372 33.269H60.5391C60.2555 33.269 60.0059 33.2965 59.79 33.3516C59.5742 33.4023 59.3944 33.4785 59.2505 33.5801C59.1066 33.6816 58.9987 33.8044 58.9268 33.9482C58.8548 34.0921 58.8188 34.255 58.8188 34.437C58.8188 34.619 58.8612 34.7861 58.9458 34.9385C59.0304 35.0866 59.1532 35.203 59.314 35.2876C59.479 35.3722 59.6779 35.4146 59.9106 35.4146C60.2238 35.4146 60.4967 35.3511 60.7295 35.2241C60.9665 35.0929 61.1527 34.9342 61.2881 34.748C61.4235 34.5576 61.4954 34.3778 61.5039 34.2085L61.999 34.8877C61.9482 35.0612 61.8615 35.2474 61.7388 35.4463C61.616 35.6452 61.4552 35.8356 61.2563 36.0176C61.0617 36.1953 60.8268 36.3413 60.5518 36.4556C60.2809 36.5698 59.9678 36.627 59.6123 36.627C59.1637 36.627 58.7638 36.5381 58.4126 36.3604C58.0614 36.1784 57.7863 35.9351 57.5874 35.6304C57.3885 35.3215 57.2891 34.9723 57.2891 34.583C57.2891 34.2191 57.3568 33.8975 57.4922 33.6182C57.6318 33.3346 57.835 33.0977 58.1016 32.9072C58.3724 32.7168 58.7025 32.5729 59.0918 32.4756C59.4811 32.374 59.9255 32.3232 60.4248 32.3232H61.6245ZM68.3911 34.6401C68.3911 34.4878 68.353 34.3503 68.2769 34.2275C68.2007 34.1006 68.0547 33.9863 67.8389 33.8848C67.6273 33.7832 67.3141 33.6901 66.8994 33.6055C66.5355 33.5251 66.2012 33.4299 65.8965 33.3198C65.596 33.2056 65.3379 33.068 65.1221 32.9072C64.9062 32.7464 64.7391 32.556 64.6206 32.3359C64.5021 32.1159 64.4429 31.862 64.4429 31.5742C64.4429 31.2949 64.5042 31.0304 64.627 30.7808C64.7497 30.5311 64.9253 30.311 65.1538 30.1206C65.3823 29.9302 65.6595 29.7799 65.9854 29.6699C66.3154 29.5599 66.6836 29.5049 67.0898 29.5049C67.6654 29.5049 68.1584 29.6022 68.5688 29.7969C68.9836 29.9873 69.3009 30.2476 69.521 30.5776C69.741 30.9035 69.8511 31.2716 69.8511 31.6821H68.3213C68.3213 31.5002 68.2747 31.3309 68.1816 31.1743C68.0928 31.0135 67.9574 30.8844 67.7754 30.7871C67.5934 30.6855 67.3649 30.6348 67.0898 30.6348C66.8275 30.6348 66.6095 30.6771 66.436 30.7617C66.2668 30.8421 66.1398 30.9479 66.0552 31.0791C65.9748 31.2103 65.9346 31.3542 65.9346 31.5107C65.9346 31.625 65.9557 31.7287 65.998 31.8218C66.0446 31.9106 66.1208 31.9932 66.2266 32.0693C66.3324 32.1413 66.4762 32.209 66.6582 32.2725C66.8444 32.3359 67.0771 32.3973 67.3564 32.4565C67.8812 32.5666 68.3319 32.7083 68.7085 32.8818C69.0894 33.0511 69.3813 33.2712 69.5845 33.542C69.7876 33.8086 69.8892 34.1471 69.8892 34.5576C69.8892 34.8623 69.8236 35.1416 69.6924 35.3955C69.5654 35.6452 69.3792 35.8631 69.1338 36.0493C68.8883 36.2313 68.5942 36.373 68.2515 36.4746C67.9129 36.5762 67.5321 36.627 67.1089 36.627C66.4868 36.627 65.96 36.5169 65.5283 36.2969C65.0967 36.0726 64.7687 35.7869 64.5444 35.4399C64.3244 35.0887 64.2144 34.7248 64.2144 34.3481H65.6934C65.7103 34.6317 65.7886 34.8581 65.9282 35.0273C66.0721 35.1924 66.2498 35.313 66.4614 35.3892C66.6772 35.4611 66.8994 35.4971 67.1279 35.4971C67.403 35.4971 67.6336 35.4611 67.8198 35.3892C68.006 35.313 68.1478 35.2114 68.2451 35.0845C68.3424 34.9533 68.3911 34.8052 68.3911 34.6401ZM75.5005 27.2578L77.646 31.6694L79.7915 27.2578H81.5562L78.4458 33.0977V36.5H76.8398V33.0977L73.7295 27.2578H75.5005ZM81.7021 33.1421V32.9961C81.7021 32.501 81.7741 32.0418 81.918 31.6187C82.0618 31.1912 82.2692 30.821 82.54 30.5078C82.8151 30.1904 83.1494 29.945 83.543 29.7715C83.9408 29.5938 84.3893 29.5049 84.8887 29.5049C85.3923 29.5049 85.8408 29.5938 86.2344 29.7715C86.6322 29.945 86.9686 30.1904 87.2437 30.5078C87.5187 30.821 87.7282 31.1912 87.8721 31.6187C88.016 32.0418 88.0879 32.501 88.0879 32.9961V33.1421C88.0879 33.6372 88.016 34.0964 87.8721 34.5195C87.7282 34.9427 87.5187 35.313 87.2437 35.6304C86.9686 35.9435 86.6343 36.189 86.2407 36.3667C85.8472 36.5402 85.4007 36.627 84.9014 36.627C84.3978 36.627 83.9471 36.5402 83.5493 36.3667C83.1558 36.189 82.8215 35.9435 82.5464 35.6304C82.2713 35.313 82.0618 34.9427 81.918 34.5195C81.7741 34.0964 81.7021 33.6372 81.7021 33.1421ZM83.2319 32.9961V33.1421C83.2319 33.451 83.2637 33.743 83.3271 34.0181C83.3906 34.2931 83.4901 34.5343 83.6255 34.7417C83.7609 34.9491 83.9344 35.112 84.146 35.2305C84.3576 35.349 84.6094 35.4082 84.9014 35.4082C85.1849 35.4082 85.4303 35.349 85.6377 35.2305C85.8493 35.112 86.0228 34.9491 86.1582 34.7417C86.2936 34.5343 86.3931 34.2931 86.4565 34.0181C86.5243 33.743 86.5581 33.451 86.5581 33.1421V32.9961C86.5581 32.6914 86.5243 32.4036 86.4565 32.1328C86.3931 31.8577 86.2915 31.6144 86.1519 31.4028C86.0164 31.1912 85.8429 31.0262 85.6313 30.9077C85.424 30.785 85.1764 30.7236 84.8887 30.7236C84.6009 30.7236 84.3512 30.785 84.1396 30.9077C83.9323 31.0262 83.7609 31.1912 83.6255 31.4028C83.4901 31.6144 83.3906 31.8577 83.3271 32.1328C83.2637 32.4036 83.2319 32.6914 83.2319 32.9961ZM93.5024 34.8813V29.6318H95.0386V36.5H93.5913L93.5024 34.8813ZM93.7183 33.4531L94.2324 33.4404C94.2324 33.9017 94.1816 34.327 94.0801 34.7163C93.9785 35.1014 93.8219 35.4378 93.6104 35.7256C93.3988 36.0091 93.1279 36.2313 92.7979 36.3921C92.4678 36.5487 92.0721 36.627 91.6108 36.627C91.2765 36.627 90.9697 36.5783 90.6904 36.481C90.4111 36.3836 90.1699 36.2334 89.9668 36.0303C89.7679 35.8271 89.6134 35.5627 89.5034 35.2368C89.3934 34.911 89.3384 34.5216 89.3384 34.0688V29.6318H90.8682V34.0815C90.8682 34.3312 90.8978 34.5407 90.957 34.71C91.0163 34.875 91.0967 35.0083 91.1982 35.1099C91.2998 35.2114 91.4183 35.2834 91.5537 35.3257C91.6891 35.368 91.833 35.3892 91.9854 35.3892C92.4212 35.3892 92.764 35.3045 93.0137 35.1353C93.2676 34.9618 93.4474 34.729 93.5532 34.437C93.6632 34.145 93.7183 33.8171 93.7183 33.4531ZM107.093 31.7773V35.3066C106.962 35.4801 106.756 35.6706 106.477 35.8779C106.202 36.0811 105.836 36.2567 105.379 36.4048C104.922 36.5529 104.353 36.627 103.671 36.627C103.092 36.627 102.561 36.5296 102.078 36.335C101.596 36.1361 101.179 35.8462 100.828 35.4653C100.481 35.0845 100.212 34.6211 100.021 34.0752C99.8311 33.5251 99.7358 32.8988 99.7358 32.1963V31.5552C99.7358 30.8569 99.8226 30.2349 99.9961 29.689C100.174 29.1388 100.428 28.6733 100.758 28.2925C101.088 27.9116 101.486 27.6239 101.951 27.4292C102.421 27.2303 102.952 27.1309 103.544 27.1309C104.302 27.1309 104.928 27.2578 105.423 27.5117C105.923 27.7614 106.308 28.1084 106.579 28.5527C106.849 28.9971 107.021 29.5049 107.093 30.0762H105.531C105.48 29.7546 105.381 29.4668 105.233 29.2129C105.089 28.959 104.882 28.7601 104.611 28.6162C104.344 28.4681 103.997 28.394 103.57 28.394C103.202 28.394 102.878 28.4639 102.599 28.6035C102.319 28.7432 102.087 28.9484 101.9 29.2192C101.718 29.4901 101.581 29.8201 101.488 30.2095C101.395 30.5988 101.348 31.0431 101.348 31.5425V32.1963C101.348 32.7041 101.401 33.1548 101.507 33.5483C101.617 33.9419 101.773 34.2741 101.977 34.5449C102.184 34.8158 102.436 35.021 102.732 35.1606C103.028 35.2961 103.362 35.3638 103.735 35.3638C104.099 35.3638 104.397 35.3341 104.63 35.2749C104.863 35.2114 105.047 35.1374 105.182 35.0527C105.322 34.9639 105.43 34.8792 105.506 34.7988V32.9644H103.583V31.7773H107.093ZM108.413 33.1421V32.9961C108.413 32.501 108.485 32.0418 108.629 31.6187C108.773 31.1912 108.98 30.821 109.251 30.5078C109.526 30.1904 109.86 29.945 110.254 29.7715C110.652 29.5938 111.1 29.5049 111.6 29.5049C112.103 29.5049 112.552 29.5938 112.945 29.7715C113.343 29.945 113.68 30.1904 113.955 30.5078C114.23 30.821 114.439 31.1912 114.583 31.6187C114.727 32.0418 114.799 32.501 114.799 32.9961V33.1421C114.799 33.6372 114.727 34.0964 114.583 34.5195C114.439 34.9427 114.23 35.313 113.955 35.6304C113.68 35.9435 113.345 36.189 112.952 36.3667C112.558 36.5402 112.112 36.627 111.612 36.627C111.109 36.627 110.658 36.5402 110.26 36.3667C109.867 36.189 109.532 35.9435 109.257 35.6304C108.982 35.313 108.773 34.9427 108.629 34.5195C108.485 34.0964 108.413 33.6372 108.413 33.1421ZM109.943 32.9961V33.1421C109.943 33.451 109.975 33.743 110.038 34.0181C110.102 34.2931 110.201 34.5343 110.336 34.7417C110.472 34.9491 110.645 35.112 110.857 35.2305C111.069 35.349 111.32 35.4082 111.612 35.4082C111.896 35.4082 112.141 35.349 112.349 35.2305C112.56 35.112 112.734 34.9491 112.869 34.7417C113.005 34.5343 113.104 34.2931 113.167 34.0181C113.235 33.743 113.269 33.451 113.269 33.1421V32.9961C113.269 32.6914 113.235 32.4036 113.167 32.1328C113.104 31.8577 113.002 31.6144 112.863 31.4028C112.727 31.1912 112.554 31.0262 112.342 30.9077C112.135 30.785 111.887 30.7236 111.6 30.7236C111.312 30.7236 111.062 30.785 110.851 30.9077C110.643 31.0262 110.472 31.1912 110.336 31.4028C110.201 31.6144 110.102 31.8577 110.038 32.1328C109.975 32.4036 109.943 32.6914 109.943 32.9961Z" fill="#013A63"/>
</g>
<g filter="url(#filter2_d_218_2410)">
<path d="M117.729 70.2578L114.238 80.2935H112.962L116.453 70.2578H117.729ZM120.376 74.041V79.5H118.7V72.6318H120.281L120.376 74.041ZM120.128 75.8184H119.614C119.614 75.3402 119.671 74.9001 119.786 74.498C119.904 74.096 120.078 73.7469 120.306 73.4507C120.535 73.1502 120.816 72.9175 121.15 72.7524C121.489 72.5874 121.88 72.5049 122.325 72.5049C122.634 72.5049 122.917 72.5514 123.175 72.6445C123.433 72.7334 123.656 72.8752 123.842 73.0698C124.032 73.2603 124.178 73.5099 124.28 73.8188C124.381 74.1235 124.432 74.4896 124.432 74.917V79.5H122.756V75.0884C122.756 74.7668 122.71 74.515 122.617 74.333C122.528 74.151 122.399 74.0241 122.229 73.9521C122.06 73.876 121.857 73.8379 121.62 73.8379C121.358 73.8379 121.131 73.8908 120.941 73.9966C120.755 74.0981 120.6 74.2399 120.478 74.4219C120.359 74.6038 120.27 74.8133 120.211 75.0503C120.156 75.2873 120.128 75.5433 120.128 75.8184ZM124.305 75.5073L123.613 75.6343C123.618 75.2026 123.677 74.7985 123.791 74.4219C123.905 74.041 124.072 73.7088 124.292 73.4253C124.517 73.1375 124.794 72.9132 125.124 72.7524C125.458 72.5874 125.843 72.5049 126.279 72.5049C126.618 72.5049 126.923 72.5535 127.193 72.6509C127.468 72.744 127.703 72.8942 127.898 73.1016C128.093 73.3047 128.241 73.5692 128.342 73.895C128.448 74.2209 128.501 74.6187 128.501 75.0884V79.5H126.812V75.082C126.812 74.7477 126.766 74.4917 126.673 74.314C126.584 74.1362 126.455 74.0135 126.286 73.9458C126.116 73.8739 125.917 73.8379 125.689 73.8379C125.456 73.8379 125.253 73.8823 125.08 73.9712C124.91 74.0558 124.766 74.1743 124.648 74.3267C124.534 74.479 124.447 74.6567 124.388 74.8599C124.333 75.0588 124.305 75.2746 124.305 75.5073ZM129.707 76.1357V76.0024C129.707 75.4989 129.779 75.0355 129.923 74.6123C130.067 74.1849 130.276 73.8146 130.551 73.5015C130.826 73.1883 131.163 72.945 131.561 72.7715C131.958 72.5938 132.411 72.5049 132.919 72.5049C133.435 72.5049 133.892 72.5938 134.29 72.7715C134.692 72.945 135.031 73.1883 135.306 73.5015C135.581 73.8146 135.79 74.1849 135.934 74.6123C136.078 75.0355 136.15 75.4989 136.15 76.0024V76.1357C136.15 76.6351 136.078 77.0985 135.934 77.5259C135.79 77.9491 135.581 78.3193 135.306 78.6367C135.031 78.9499 134.694 79.1932 134.296 79.3667C133.899 79.5402 133.444 79.627 132.932 79.627C132.424 79.627 131.969 79.5402 131.567 79.3667C131.165 79.1932 130.826 78.9499 130.551 78.6367C130.276 78.3193 130.067 77.9491 129.923 77.5259C129.779 77.0985 129.707 76.6351 129.707 76.1357ZM131.383 76.0024V76.1357C131.383 76.4362 131.412 76.7176 131.472 76.98C131.531 77.2424 131.622 77.473 131.745 77.6719C131.867 77.8708 132.026 78.0273 132.221 78.1416C132.42 78.2516 132.657 78.3066 132.932 78.3066C133.202 78.3066 133.435 78.2516 133.63 78.1416C133.825 78.0273 133.983 77.8708 134.106 77.6719C134.233 77.473 134.326 77.2424 134.385 76.98C134.444 76.7176 134.474 76.4362 134.474 76.1357V76.0024C134.474 75.7062 134.444 75.429 134.385 75.1709C134.326 74.9085 134.233 74.6779 134.106 74.479C133.983 74.2759 133.822 74.1172 133.624 74.0029C133.429 73.8844 133.194 73.8252 132.919 73.8252C132.648 73.8252 132.415 73.8844 132.221 74.0029C132.026 74.1172 131.867 74.2759 131.745 74.479C131.622 74.6779 131.531 74.9085 131.472 75.1709C131.412 75.429 131.383 75.7062 131.383 76.0024ZM139.013 74.0981V79.5H137.337V72.6318H138.911L139.013 74.0981ZM138.746 75.8184H138.251C138.255 75.319 138.323 74.8662 138.454 74.46C138.585 74.0537 138.769 73.7046 139.006 73.4126C139.248 73.1206 139.533 72.8963 139.863 72.7397C140.193 72.5832 140.562 72.5049 140.968 72.5049C141.298 72.5049 141.596 72.5514 141.863 72.6445C142.129 72.7376 142.358 72.8857 142.548 73.0889C142.743 73.292 142.891 73.5586 142.993 73.8887C143.098 74.2145 143.151 74.6165 143.151 75.0947V79.5H141.463V75.082C141.463 74.7689 141.416 74.5213 141.323 74.3394C141.234 74.1574 141.103 74.0283 140.93 73.9521C140.76 73.876 140.551 73.8379 140.301 73.8379C140.043 73.8379 139.817 73.8908 139.622 73.9966C139.432 74.0981 139.271 74.2399 139.14 74.4219C139.013 74.6038 138.915 74.8133 138.848 75.0503C138.78 75.2873 138.746 75.5433 138.746 75.8184ZM147.88 72.6318V73.8379H143.945V72.6318H147.88ZM144.999 70.9434H146.681V77.5195C146.681 77.7227 146.708 77.8792 146.763 77.9893C146.818 78.0993 146.901 78.1733 147.011 78.2114C147.121 78.2495 147.252 78.2686 147.404 78.2686C147.514 78.2686 147.616 78.2622 147.709 78.2495C147.802 78.2368 147.88 78.2241 147.944 78.2114L147.95 79.4683C147.811 79.5148 147.652 79.5529 147.474 79.5825C147.301 79.6121 147.104 79.627 146.884 79.627C146.507 79.627 146.177 79.5635 145.894 79.4365C145.61 79.3053 145.39 79.0959 145.233 78.8081C145.077 78.5161 144.999 78.131 144.999 77.6528V70.9434ZM150.642 69.75V79.5H148.959V69.75H150.642ZM150.375 75.8184H149.88C149.88 75.3402 149.943 74.9001 150.07 74.498C150.197 74.096 150.377 73.7469 150.61 73.4507C150.843 73.1502 151.12 72.9175 151.441 72.7524C151.767 72.5874 152.127 72.5049 152.521 72.5049C152.859 72.5049 153.166 72.5535 153.441 72.6509C153.72 72.744 153.959 72.8942 154.158 73.1016C154.357 73.3089 154.509 73.5798 154.615 73.9141C154.725 74.2441 154.78 74.6462 154.78 75.1201V79.5H153.092V75.1074C153.092 74.79 153.045 74.5404 152.952 74.3584C152.859 74.1722 152.726 74.0389 152.552 73.9585C152.383 73.8781 152.174 73.8379 151.924 73.8379C151.653 73.8379 151.42 73.8908 151.226 73.9966C151.031 74.0981 150.87 74.2399 150.743 74.4219C150.62 74.6038 150.527 74.8133 150.464 75.0503C150.405 75.2873 150.375 75.5433 150.375 75.8184Z" fill="#013A63"/>
</g>
<g filter="url(#filter3_d_218_2410)">
<path d="M113.799 93.5V86.2273H114.861V88.9297H114.925C114.986 88.8161 115.075 88.6847 115.191 88.5355C115.307 88.3864 115.468 88.2562 115.674 88.1449C115.88 88.0312 116.152 87.9744 116.491 87.9744C116.931 87.9744 117.324 88.0857 117.67 88.3082C118.015 88.5308 118.286 88.8516 118.483 89.2706C118.682 89.6896 118.781 90.1939 118.781 90.7834C118.781 91.3729 118.683 91.8783 118.487 92.2997C118.29 92.7187 118.02 93.0419 117.677 93.2692C117.334 93.4941 116.942 93.6065 116.501 93.6065C116.17 93.6065 115.899 93.5509 115.688 93.4396C115.48 93.3284 115.317 93.1982 115.198 93.049C115.08 92.8999 114.989 92.7673 114.925 92.6513H114.836V93.5H113.799ZM114.839 90.7727C114.839 91.1562 114.895 91.4924 115.006 91.7812C115.118 92.0701 115.279 92.2962 115.489 92.4595C115.7 92.6205 115.958 92.701 116.263 92.701C116.581 92.701 116.846 92.617 117.059 92.4489C117.272 92.2784 117.433 92.0476 117.542 91.7564C117.653 91.4652 117.709 91.1373 117.709 90.7727C117.709 90.4129 117.654 90.0897 117.545 89.8033C117.439 89.5168 117.278 89.2907 117.062 89.125C116.849 88.9593 116.583 88.8764 116.263 88.8764C115.956 88.8764 115.695 88.9557 115.482 89.1143C115.272 89.273 115.112 89.4943 115.003 89.7784C114.894 90.0625 114.839 90.3939 114.839 90.7727ZM119.974 93.5V88.0455H121.035V93.5H119.974ZM120.51 87.2038C120.325 87.2038 120.166 87.1423 120.034 87.0192C119.904 86.8937 119.839 86.7446 119.839 86.5717C119.839 86.3965 119.904 86.2474 120.034 86.1243C120.166 85.9988 120.325 85.9361 120.51 85.9361C120.694 85.9361 120.852 85.9988 120.982 86.1243C121.115 86.2474 121.181 86.3965 121.181 86.5717C121.181 86.7446 121.115 86.8937 120.982 87.0192C120.852 87.1423 120.694 87.2038 120.51 87.2038ZM123.526 86.2273V93.5H122.464V86.2273H123.526ZM126.016 86.2273V93.5H124.954V86.2273H126.016ZM129.795 93.6101C129.258 93.6101 128.795 93.4953 128.407 93.2656C128.021 93.0336 127.722 92.7081 127.512 92.2891C127.303 91.8677 127.199 91.3741 127.199 90.8082C127.199 90.2495 127.303 89.7571 127.512 89.331C127.722 88.9048 128.016 88.5722 128.392 88.3331C128.771 88.094 129.214 87.9744 129.721 87.9744C130.028 87.9744 130.327 88.0253 130.615 88.1271C130.904 88.2289 131.163 88.3887 131.393 88.6065C131.623 88.8243 131.804 89.1072 131.936 89.4553C132.069 89.8009 132.135 90.2211 132.135 90.7159V91.0923H127.799V90.2969H131.095C131.095 90.0175 131.038 89.7701 130.924 89.5547C130.811 89.3369 130.651 89.1652 130.445 89.0398C130.241 88.9143 130.002 88.8516 129.728 88.8516C129.429 88.8516 129.169 88.925 128.946 89.0717C128.726 89.2161 128.556 89.4055 128.435 89.6399C128.317 89.8719 128.257 90.1241 128.257 90.3963V91.0178C128.257 91.3823 128.321 91.6925 128.449 91.9482C128.579 92.2038 128.761 92.3991 128.993 92.5341C129.225 92.6667 129.496 92.733 129.806 92.733C130.007 92.733 130.19 92.7045 130.356 92.6477C130.522 92.5885 130.665 92.5009 130.786 92.3849C130.907 92.2689 130.999 92.1257 131.063 91.9553L132.068 92.1364C131.987 92.4323 131.843 92.6915 131.635 92.9141C131.429 93.1342 131.169 93.3059 130.857 93.429C130.547 93.5497 130.193 93.6101 129.795 93.6101ZM135.355 93.6065C134.915 93.6065 134.522 93.4941 134.176 93.2692C133.833 93.0419 133.563 92.7187 133.367 92.2997C133.173 91.8783 133.075 91.3729 133.075 90.7834C133.075 90.1939 133.174 89.6896 133.37 89.2706C133.569 88.8516 133.841 88.5308 134.187 88.3082C134.533 88.0857 134.924 87.9744 135.362 87.9744C135.701 87.9744 135.973 88.0312 136.179 88.1449C136.387 88.2562 136.548 88.3864 136.662 88.5355C136.778 88.6847 136.868 88.8161 136.932 88.9297H136.996V86.2273H138.058V93.5H137.021V92.6513H136.932C136.868 92.7673 136.776 92.8999 136.655 93.049C136.537 93.1982 136.373 93.3284 136.165 93.4396C135.957 93.5509 135.687 93.6065 135.355 93.6065ZM135.59 92.701C135.895 92.701 136.153 92.6205 136.364 92.4595C136.577 92.2962 136.738 92.0701 136.847 91.7812C136.958 91.4924 137.014 91.1562 137.014 90.7727C137.014 90.3939 136.959 90.0625 136.85 89.7784C136.741 89.4943 136.582 89.273 136.371 89.1143C136.16 88.9557 135.9 88.8764 135.59 88.8764C135.27 88.8764 135.004 88.9593 134.791 89.125C134.578 89.2907 134.417 89.5168 134.308 89.8033C134.201 90.0897 134.148 90.4129 134.148 90.7727C134.148 91.1373 134.202 91.4652 134.311 91.7564C134.42 92.0476 134.581 92.2784 134.794 92.4489C135.01 92.617 135.275 92.701 135.59 92.701ZM142.22 93.5V88.0455H143.239V88.9332H143.306C143.42 88.6326 143.606 88.3982 143.864 88.2301C144.122 88.0597 144.431 87.9744 144.791 87.9744C145.155 87.9744 145.461 88.0597 145.707 88.2301C145.955 88.4006 146.139 88.6349 146.257 88.9332H146.314C146.444 88.642 146.651 88.41 146.936 88.2372C147.22 88.062 147.558 87.9744 147.951 87.9744C148.446 87.9744 148.85 88.1295 149.162 88.4396C149.477 88.7498 149.634 89.2173 149.634 89.8423V93.5H148.573V89.9418C148.573 89.5724 148.472 89.3049 148.271 89.1392C148.07 88.9735 147.829 88.8906 147.55 88.8906C147.204 88.8906 146.936 88.9972 146.744 89.2102C146.552 89.4209 146.456 89.692 146.456 90.0234V93.5H145.398V89.8743C145.398 89.5784 145.306 89.3404 145.121 89.1605C144.936 88.9806 144.696 88.8906 144.4 88.8906C144.199 88.8906 144.013 88.9439 143.843 89.0504C143.674 89.1546 143.538 89.3002 143.434 89.4872C143.332 89.6742 143.281 89.8909 143.281 90.1371V93.5H142.22ZM153.355 93.6101C152.844 93.6101 152.397 93.4929 152.016 93.2585C151.635 93.0241 151.339 92.6963 151.129 92.2749C150.918 91.8535 150.812 91.361 150.812 90.7976C150.812 90.2318 150.918 89.737 151.129 89.3132C151.339 88.8894 151.635 88.5604 152.016 88.326C152.397 88.0916 152.844 87.9744 153.355 87.9744C153.866 87.9744 154.313 88.0916 154.694 88.326C155.075 88.5604 155.371 88.8894 155.582 89.3132C155.792 89.737 155.898 90.2318 155.898 90.7976C155.898 91.361 155.792 91.8535 155.582 92.2749C155.371 92.6963 155.075 93.0241 154.694 93.2585C154.313 93.4929 153.866 93.6101 153.355 93.6101ZM153.359 92.7188C153.69 92.7188 153.965 92.6312 154.183 92.456C154.4 92.2808 154.561 92.0476 154.665 91.7564C154.772 91.4652 154.825 91.1444 154.825 90.794C154.825 90.446 154.772 90.1264 154.665 89.8352C154.561 89.5417 154.4 89.3061 154.183 89.1286C153.965 88.951 153.69 88.8622 153.359 88.8622C153.025 88.8622 152.748 88.951 152.528 89.1286C152.31 89.3061 152.148 89.5417 152.041 89.8352C151.937 90.1264 151.885 90.446 151.885 90.794C151.885 91.1444 151.937 91.4652 152.041 91.7564C152.148 92.0476 152.31 92.2808 152.528 92.456C152.748 92.6312 153.025 92.7188 153.359 92.7188ZM158.145 90.2614V93.5H157.083V88.0455H158.102V88.9332H158.17C158.295 88.6444 158.492 88.4124 158.759 88.2372C159.029 88.062 159.369 87.9744 159.778 87.9744C160.15 87.9744 160.475 88.0526 160.755 88.2088C161.034 88.3627 161.251 88.5923 161.405 88.8977C161.559 89.2031 161.635 89.5807 161.635 90.0305V93.5H160.574V90.1584C160.574 89.763 160.471 89.4541 160.265 89.2315C160.059 89.0066 159.776 88.8942 159.416 88.8942C159.17 88.8942 158.951 88.9474 158.759 89.054C158.57 89.1605 158.419 89.3168 158.308 89.5227C158.199 89.7263 158.145 89.9725 158.145 90.2614ZM165.606 88.0455V88.8977H162.626V88.0455H165.606ZM163.425 86.7386H164.487V91.8984C164.487 92.1044 164.518 92.2595 164.579 92.3636C164.641 92.4654 164.72 92.5353 164.817 92.5732C164.917 92.6087 165.024 92.6264 165.14 92.6264C165.226 92.6264 165.3 92.6205 165.364 92.6087C165.428 92.5968 165.478 92.5874 165.513 92.5803L165.705 93.4574C165.644 93.4811 165.556 93.5047 165.442 93.5284C165.329 93.5545 165.187 93.5687 165.016 93.571C164.737 93.5758 164.476 93.526 164.235 93.4219C163.993 93.3177 163.798 93.1567 163.649 92.9389C163.5 92.7211 163.425 92.4477 163.425 92.1186V86.7386ZM167.959 90.2614V93.5H166.897V86.2273H167.945V88.9332H168.012C168.14 88.6397 168.336 88.4065 168.598 88.2337C168.861 88.0608 169.204 87.9744 169.628 87.9744C170.002 87.9744 170.329 88.0514 170.608 88.2053C170.89 88.3591 171.108 88.5888 171.262 88.8942C171.418 89.1972 171.496 89.576 171.496 90.0305V93.5H170.434V90.1584C170.434 89.7583 170.331 89.4482 170.125 89.228C169.919 89.0054 169.633 88.8942 169.266 88.8942C169.015 88.8942 168.79 88.9474 168.591 89.054C168.395 89.1605 168.24 89.3168 168.126 89.5227C168.015 89.7263 167.959 89.9725 167.959 90.2614ZM173.975 86.2273V93.5H172.913V86.2273H173.975ZM176.074 95.5455C175.916 95.5455 175.771 95.5324 175.641 95.5064C175.511 95.4827 175.414 95.4567 175.35 95.4283L175.606 94.5582C175.8 94.6103 175.973 94.6328 176.124 94.6257C176.276 94.6186 176.409 94.5618 176.525 94.4553C176.644 94.3487 176.748 94.1747 176.838 93.9332L176.969 93.571L174.974 88.0455H176.11L177.491 92.2784H177.548L178.93 88.0455H180.069L177.822 94.228C177.717 94.5121 177.585 94.7524 177.424 94.9489C177.263 95.1477 177.071 95.2969 176.849 95.3963C176.626 95.4957 176.368 95.5455 176.074 95.5455Z" fill="#013A63"/>
</g>
<g filter="url(#filter4_d_218_2410)">
<mask id="mask0_218_2410" style="mask-type:alpha" maskUnits="userSpaceOnUse" x="219" y="16" width="24" height="25">
<rect x="219" y="16.5" width="24" height="24" fill="#D9D9D9"/>
</mask>
<g mask="url(#mask0_218_2410)">
<path d="M229.6 30.3L227.45 28.15C227.267 27.9667 227.033 27.875 226.75 27.875C226.467 27.875 226.233 27.9667 226.05 28.15C225.867 28.3333 225.775 28.5667 225.775 28.85C225.775 29.1333 225.867 29.3667 226.05 29.55L228.9 32.4C229.1 32.6 229.333 32.7 229.6 32.7C229.867 32.7 230.1 32.6 230.3 32.4L235.95 26.75C236.133 26.5667 236.225 26.3333 236.225 26.05C236.225 25.7667 236.133 25.5333 235.95 25.35C235.767 25.1667 235.533 25.075 235.25 25.075C234.967 25.075 234.733 25.1667 234.55 25.35L229.6 30.3ZM231 38.5C229.617 38.5 228.317 38.2375 227.1 37.7125C225.883 37.1875 224.825 36.475 223.925 35.575C223.025 34.675 222.313 33.6167 221.788 32.4C221.262 31.1833 221 29.8833 221 28.5C221 27.1167 221.262 25.8167 221.788 24.6C222.313 23.3833 223.025 22.325 223.925 21.425C224.825 20.525 225.883 19.8125 227.1 19.2875C228.317 18.7625 229.617 18.5 231 18.5C232.383 18.5 233.683 18.7625 234.9 19.2875C236.117 19.8125 237.175 20.525 238.075 21.425C238.975 22.325 239.687 23.3833 240.212 24.6C240.737 25.8167 241 27.1167 241 28.5C241 29.8833 240.737 31.1833 240.212 32.4C239.687 33.6167 238.975 34.675 238.075 35.575C237.175 36.475 236.117 37.1875 234.9 37.7125C233.683 38.2375 232.383 38.5 231 38.5Z" fill="url(#paint1_linear_218_2410)"/>
</g>
</g>
<defs>
<filter id="filter0_d_218_2410" x="29.8867" y="58.9033" width="76.291" height="47.0059" filterUnits="userSpaceOnUse" color-interpolation-filters="sRGB">
<feFlood flood-opacity="0" result="BackgroundImageFix"/>
<feColorMatrix in="SourceAlpha" type="matrix" values="0 0 0 0 0 0 0 0 0 0 0 0 0 0 0 0 0 0 127 0" result="hardAlpha"/>
<feOffset dy="2"/>
<feGaussianBlur stdDeviation="2"/>
<feComposite in2="hardAlpha" operator="out"/>
<feColorMatrix type="matrix" values="0 0 0 0 0.129412 0 0 0 0 0.145098 0 0 0 0 0.160784 0 0 0 0.1 0"/>
<feBlend mode="normal" in2="BackgroundImageFix" result="effect1_dropShadow_218_2410"/>
<feBlend mode="normal" in="SourceGraphic" in2="effect1_dropShadow_218_2410" result="shape"/>
</filter>
<filter id="filter1_d_218_2410" x="28.9395" y="25.1309" width="89.8594" height="20.1431" filterUnits="userSpaceOnUse" color-interpolation-filters="sRGB">
<feFlood flood-opacity="0" result="BackgroundImageFix"/>
<feColorMatrix in="SourceAlpha" type="matrix" values="0 0 0 0 0 0 0 0 0 0 0 0 0 0 0 0 0 0 127 0" result="hardAlpha"/>
<feOffset dy="2"/>
<feGaussianBlur stdDeviation="2"/>
<feComposite in2="hardAlpha" operator="out"/>
<feColorMatrix type="matrix" values="0 0 0 0 0.129412 0 0 0 0 0.145098 0 0 0 0 0.160784 0 0 0 0.1 0"/>
<feBlend mode="normal" in2="BackgroundImageFix" result="effect1_dropShadow_218_2410"/>
<feBlend mode="normal" in="SourceGraphic" in2="effect1_dropShadow_218_2410" result="shape"/>
</filter>
<filter id="filter2_d_218_2410" x="108.962" y="67.75" width="49.8184" height="18.5435" filterUnits="userSpaceOnUse" color-interpolation-filters="sRGB">
<feFlood flood-opacity="0" result="BackgroundImageFix"/>
<feColorMatrix in="SourceAlpha" type="matrix" values="0 0 0 0 0 0 0 0 0 0 0 0 0 0 0 0 0 0 127 0" result="hardAlpha"/>
<feOffset dy="2"/>
<feGaussianBlur stdDeviation="2"/>
<feComposite in2="hardAlpha" operator="out"/>
<feColorMatrix type="matrix" values="0 0 0 0 0.129412 0 0 0 0 0.145098 0 0 0 0 0.160784 0 0 0 0.1 0"/>
<feBlend mode="normal" in2="BackgroundImageFix" result="effect1_dropShadow_218_2410"/>
<feBlend mode="normal" in="SourceGraphic" in2="effect1_dropShadow_218_2410" result="shape"/>
</filter>
<filter id="filter3_d_218_2410" x="109.799" y="83.936" width="74.2705" height="17.6094" filterUnits="userSpaceOnUse" color-interpolation-filters="sRGB">
<feFlood flood-opacity="0" result="BackgroundImageFix"/>
<feColorMatrix in="SourceAlpha" type="matrix" values="0 0 0 0 0 0 0 0 0 0 0 0 0 0 0 0 0 0 127 0" result="hardAlpha"/>
<feOffset dy="2"/>
<feGaussianBlur stdDeviation="2"/>
<feComposite in2="hardAlpha" operator="out"/>
<feColorMatrix type="matrix" values="0 0 0 0 0.129412 0 0 0 0 0.145098 0 0 0 0 0.160784 0 0 0 0.1 0"/>
<feBlend mode="normal" in2="BackgroundImageFix" result="effect1_dropShadow_218_2410"/>
<feBlend mode="normal" in="SourceGraphic" in2="effect1_dropShadow_218_2410" result="shape"/>
</filter>
<filter id="filter4_d_218_2410" x="217" y="16.5" width="28" height="28" filterUnits="userSpaceOnUse" color-interpolation-filters="sRGB">
<feFlood flood-opacity="0" result="BackgroundImageFix"/>
<feColorMatrix in="SourceAlpha" type="matrix" values="0 0 0 0 0 0 0 0 0 0 0 0 0 0 0 0 0 0 127 0" result="hardAlpha"/>
<feOffset dy="2"/>
<feGaussianBlur stdDeviation="2"/>
<feComposite in2="hardAlpha" operator="out"/>
<feColorMatrix type="matrix" values="0 0 0 0 0.129412 0 0 0 0 0.145098 0 0 0 0 0.160784 0 0 0 0.1 0"/>
<feBlend mode="normal" in2="BackgroundImageFix" result="effect1_dropShadow_218_2410"/>
<feBlend mode="normal" in="SourceGraphic" in2="effect1_dropShadow_218_2410" result="shape"/>
</filter>
<linearGradient id="paint0_linear_218_2410" x1="0" y1="65" x2="259" y2="65" gradientUnits="userSpaceOnUse">
<stop stop-color="#4481EB"/>
<stop offset="1" stop-color="#04BEFE"/>
</linearGradient>
<linearGradient id="paint1_linear_218_2410" x1="221" y1="28.5" x2="241" y2="28.5" gradientUnits="userSpaceOnUse">
<stop stop-color="#4481EB"/>
<stop offset="1" stop-color="#04BEFE"/>
</linearGradient>
</defs>
</svg>
