<svg width="370" height="363" viewBox="0 0 370 363" fill="none" xmlns="http://www.w3.org/2000/svg">
<path fill-rule="evenodd" clip-rule="evenodd" d="M0 16C0 7.16345 7.16344 0 16 0H354C362.837 0 370 7.16344 370 16V166C361.163 166 354 173.163 354 182C354 190.837 361.163 198 370 198V347C370 355.837 362.837 363 354 363H16C7.16344 363 0 355.837 0 347V202C8.83656 202 16 194.837 16 186C16 177.163 8.83656 170 0 170V16Z" fill="#FDFBFB"/>
<path d="M56.0938 61C56.0938 62.7448 55.763 64.2292 55.1016 65.4531C54.4453 66.6771 53.5495 67.612 52.4141 68.2578C51.2839 68.8984 50.013 69.2187 48.6016 69.2187C47.1797 69.2187 45.9036 68.8958 44.7734 68.25C43.6432 67.6042 42.75 66.6693 42.0938 65.4453C41.4375 64.2214 41.1094 62.7396 41.1094 61C41.1094 59.2552 41.4375 57.7708 42.0938 56.5469C42.75 55.3229 43.6432 54.3906 44.7734 53.75C45.9036 53.1042 47.1797 52.7812 48.6016 52.7812C50.013 52.7812 51.2839 53.1042 52.4141 53.75C53.5495 54.3906 54.4453 55.3229 55.1016 56.5469C55.763 57.7708 56.0938 59.2552 56.0938 61ZM52.6641 61C52.6641 59.8698 52.4948 58.9167 52.1562 58.1406C51.8229 57.3646 51.3516 56.776 50.7422 56.375C50.1328 55.974 49.4193 55.7734 48.6016 55.7734C47.7839 55.7734 47.0703 55.974 46.4609 56.375C45.8516 56.776 45.3776 57.3646 45.0391 58.1406C44.7057 58.9167 44.5391 59.8698 44.5391 61C44.5391 62.1302 44.7057 63.0833 45.0391 63.8594C45.3776 64.6354 45.8516 65.224 46.4609 65.625C47.0703 66.026 47.7839 66.2266 48.6016 66.2266C49.4193 66.2266 50.1328 66.026 50.7422 65.625C51.3516 65.224 51.8229 64.6354 52.1562 63.8594C52.4948 63.0833 52.6641 62.1302 52.6641 61ZM58.5371 69V57H61.7637V59.0937H61.8887C62.1074 58.349 62.4746 57.7865 62.9902 57.4063C63.5059 57.0208 64.0996 56.8281 64.7715 56.8281C64.9382 56.8281 65.1178 56.8385 65.3105 56.8594C65.5033 56.8802 65.6725 56.9089 65.8184 56.9453V59.8984C65.6621 59.8516 65.446 59.8099 65.1699 59.7734C64.8939 59.737 64.6413 59.7188 64.4121 59.7188C63.9225 59.7188 63.485 59.8255 63.0996 60.0391C62.7194 60.2474 62.4173 60.5391 62.1934 60.9141C61.9746 61.2891 61.8652 61.7214 61.8652 62.2109V69H58.5371ZM71.4023 69.1953C70.4909 69.1953 69.6654 68.9609 68.9258 68.4922C68.1914 68.0182 67.6081 67.3229 67.1758 66.4062C66.7487 65.4844 66.5352 64.3542 66.5352 63.0156C66.5352 61.6406 66.7565 60.4974 67.1992 59.5859C67.6419 58.6693 68.2305 57.9844 68.9648 57.5313C69.7044 57.0729 70.5143 56.8438 71.3945 56.8438C72.0664 56.8438 72.6263 56.9583 73.0742 57.1875C73.5273 57.4115 73.8919 57.6927 74.168 58.0312C74.4492 58.3646 74.6628 58.6927 74.8086 59.0156H74.9102V53H78.2305V69H74.9492V67.0781H74.8086C74.6523 67.4115 74.431 67.7422 74.1445 68.0703C73.8633 68.3932 73.4961 68.6615 73.043 68.875C72.5951 69.0885 72.0482 69.1953 71.4023 69.1953ZM72.457 66.5469C72.9935 66.5469 73.4466 66.401 73.8164 66.1094C74.1914 65.8125 74.4779 65.3984 74.6758 64.8672C74.8789 64.3359 74.9805 63.7135 74.9805 63C74.9805 62.2865 74.8815 61.6667 74.6836 61.1406C74.4857 60.6146 74.1992 60.2083 73.8242 59.9219C73.4492 59.6354 72.9935 59.4922 72.457 59.4922C71.9102 59.4922 71.4492 59.6406 71.0742 59.9375C70.6992 60.2344 70.4154 60.6458 70.2227 61.1719C70.0299 61.6979 69.9336 62.3073 69.9336 63C69.9336 63.6979 70.0299 64.3151 70.2227 64.8516C70.4206 65.3828 70.7044 65.7995 71.0742 66.1016C71.4492 66.3984 71.9102 66.5469 72.457 66.5469ZM86.4355 69.2344C85.2012 69.2344 84.1387 68.9844 83.248 68.4844C82.3626 67.9792 81.6803 67.2656 81.2012 66.3437C80.722 65.4167 80.4824 64.3203 80.4824 63.0547C80.4824 61.8203 80.722 60.737 81.2012 59.8047C81.6803 58.8724 82.3548 58.1458 83.2246 57.625C84.0996 57.1042 85.1257 56.8438 86.3027 56.8438C87.0944 56.8438 87.8314 56.9714 88.5137 57.2266C89.2012 57.4766 89.8001 57.8542 90.3105 58.3594C90.8262 58.8646 91.2272 59.5 91.5137 60.2656C91.8001 61.026 91.9434 61.9167 91.9434 62.9375V63.8516H81.8105V61.7891H88.8105C88.8105 61.3099 88.7064 60.8854 88.498 60.5156C88.2897 60.1458 88.0007 59.8568 87.6309 59.6484C87.2663 59.4349 86.8418 59.3281 86.3574 59.3281C85.8522 59.3281 85.4043 59.4453 85.0137 59.6797C84.6283 59.9089 84.3262 60.2187 84.1074 60.6094C83.8887 60.9948 83.7767 61.4245 83.7715 61.8984V63.8594C83.7715 64.4531 83.8809 64.9661 84.0996 65.3984C84.3236 65.8307 84.6387 66.1641 85.0449 66.3984C85.4512 66.6328 85.9329 66.75 86.4902 66.75C86.86 66.75 87.1986 66.6979 87.5059 66.5938C87.8132 66.4896 88.0762 66.3333 88.2949 66.125C88.5137 65.9167 88.6803 65.6615 88.7949 65.3594L91.873 65.5625C91.7168 66.3021 91.3965 66.9479 90.9121 67.5C90.4329 68.0469 89.8132 68.474 89.0527 68.7813C88.2975 69.0833 87.4251 69.2344 86.4355 69.2344ZM94.1152 69V57H97.3418V59.0937H97.4668C97.6855 58.349 98.0527 57.7865 98.5684 57.4063C99.084 57.0208 99.6777 56.8281 100.35 56.8281C100.516 56.8281 100.696 56.8385 100.889 56.8594C101.081 56.8802 101.251 56.9089 101.396 56.9453V59.8984C101.24 59.8516 101.024 59.8099 100.748 59.7734C100.472 59.737 100.219 59.7188 99.9902 59.7188C99.5007 59.7188 99.0632 59.8255 98.6777 60.0391C98.2975 60.2474 97.9954 60.5391 97.7715 60.9141C97.5527 61.2891 97.4434 61.7214 97.4434 62.2109V69H94.1152ZM118.193 60.4219L115.146 60.6094C115.094 60.349 114.982 60.1146 114.811 59.9062C114.639 59.6927 114.412 59.5234 114.131 59.3984C113.855 59.2682 113.524 59.2031 113.139 59.2031C112.623 59.2031 112.188 59.3125 111.834 59.5312C111.48 59.7448 111.303 60.0312 111.303 60.3906C111.303 60.6771 111.417 60.9193 111.646 61.1172C111.876 61.3151 112.269 61.474 112.826 61.5937L114.998 62.0312C116.165 62.2708 117.035 62.6562 117.607 63.1875C118.18 63.7187 118.467 64.4167 118.467 65.2812C118.467 66.0677 118.235 66.7578 117.771 67.3516C117.313 67.9453 116.683 68.4089 115.881 68.7422C115.084 69.0703 114.165 69.2344 113.123 69.2344C111.535 69.2344 110.269 68.9036 109.326 68.2422C108.389 67.5755 107.839 66.6693 107.678 65.5234L110.951 65.3516C111.05 65.8359 111.29 66.2057 111.67 66.4609C112.05 66.7109 112.537 66.8359 113.131 66.8359C113.714 66.8359 114.183 66.724 114.537 66.5C114.896 66.2708 115.079 65.9766 115.084 65.6172C115.079 65.3151 114.951 65.0677 114.701 64.875C114.451 64.6771 114.066 64.526 113.545 64.4219L111.467 64.0078C110.295 63.7734 109.423 63.3672 108.85 62.7891C108.282 62.2109 107.998 61.474 107.998 60.5781C107.998 59.8073 108.206 59.1432 108.623 58.5859C109.045 58.0286 109.636 57.599 110.396 57.2969C111.162 56.9948 112.058 56.8438 113.084 56.8438C114.6 56.8438 115.792 57.1641 116.662 57.8047C117.537 58.4453 118.048 59.3177 118.193 60.4219ZM128.258 63.8906V57H131.586V69H128.391V66.8203H128.266C127.995 67.5234 127.544 68.0885 126.914 68.5156C126.289 68.9427 125.526 69.1563 124.625 69.1563C123.823 69.1563 123.117 68.974 122.508 68.6094C121.898 68.2448 121.422 67.7266 121.078 67.0547C120.74 66.3828 120.568 65.5781 120.563 64.6406V57H123.891V64.0469C123.896 64.7552 124.086 65.3151 124.461 65.7266C124.836 66.138 125.339 66.3437 125.969 66.3437C126.37 66.3437 126.745 66.2526 127.094 66.0703C127.443 65.8828 127.724 65.6068 127.938 65.2422C128.156 64.8776 128.263 64.4271 128.258 63.8906ZM134.248 69V57H137.42V59.1172H137.561C137.811 58.4141 138.227 57.8594 138.811 57.4531C139.394 57.0469 140.092 56.8438 140.904 56.8438C141.727 56.8438 142.428 57.0495 143.006 57.4609C143.584 57.8672 143.969 58.4193 144.162 59.1172H144.287C144.532 58.4297 144.975 57.8802 145.615 57.4687C146.261 57.0521 147.024 56.8438 147.904 56.8438C149.024 56.8438 149.933 57.2005 150.631 57.9141C151.334 58.6224 151.686 59.6276 151.686 60.9297V69H148.365V61.5859C148.365 60.9193 148.188 60.4193 147.834 60.0859C147.48 59.7526 147.037 59.5859 146.506 59.5859C145.902 59.5859 145.43 59.7786 145.092 60.1641C144.753 60.5443 144.584 61.0469 144.584 61.6719V69H141.357V61.5156C141.357 60.9271 141.188 60.4583 140.85 60.1094C140.516 59.7604 140.076 59.5859 139.529 59.5859C139.16 59.5859 138.826 59.6797 138.529 59.8672C138.238 60.0495 138.006 60.3073 137.834 60.6406C137.662 60.9687 137.576 61.3542 137.576 61.7969V69H134.248ZM154.314 69V57H157.486V59.1172H157.627C157.877 58.4141 158.294 57.8594 158.877 57.4531C159.46 57.0469 160.158 56.8438 160.971 56.8438C161.794 56.8438 162.494 57.0495 163.072 57.4609C163.65 57.8672 164.036 58.4193 164.229 59.1172H164.354C164.598 58.4297 165.041 57.8802 165.682 57.4687C166.327 57.0521 167.09 56.8438 167.971 56.8438C169.09 56.8438 169.999 57.2005 170.697 57.9141C171.4 58.6224 171.752 59.6276 171.752 60.9297V69H168.432V61.5859C168.432 60.9193 168.255 60.4193 167.9 60.0859C167.546 59.7526 167.104 59.5859 166.572 59.5859C165.968 59.5859 165.497 59.7786 165.158 60.1641C164.82 60.5443 164.65 61.0469 164.65 61.6719V69H161.424V61.5156C161.424 60.9271 161.255 60.4583 160.916 60.1094C160.583 59.7604 160.143 59.5859 159.596 59.5859C159.226 59.5859 158.893 59.6797 158.596 59.8672C158.304 60.0495 158.072 60.3073 157.9 60.6406C157.729 60.9687 157.643 61.3542 157.643 61.7969V69H154.314ZM177.803 69.2266C177.037 69.2266 176.355 69.0938 175.756 68.8281C175.157 68.5573 174.683 68.1589 174.334 67.6328C173.99 67.1016 173.818 66.4401 173.818 65.6484C173.818 64.9818 173.941 64.4219 174.186 63.9687C174.43 63.5156 174.764 63.151 175.186 62.875C175.607 62.599 176.087 62.3906 176.623 62.25C177.165 62.1094 177.732 62.0104 178.326 61.9531C179.024 61.8802 179.587 61.8125 180.014 61.75C180.441 61.6823 180.751 61.5833 180.943 61.4531C181.136 61.3229 181.232 61.1302 181.232 60.875V60.8281C181.232 60.3333 181.076 59.9505 180.764 59.6797C180.456 59.4089 180.019 59.2734 179.451 59.2734C178.852 59.2734 178.376 59.4062 178.021 59.6719C177.667 59.9323 177.433 60.2604 177.318 60.6562L174.24 60.4062C174.396 59.6771 174.704 59.0469 175.162 58.5156C175.62 57.9792 176.212 57.5677 176.936 57.2812C177.665 56.9896 178.508 56.8438 179.467 56.8438C180.133 56.8438 180.771 56.9219 181.381 57.0781C181.995 57.2344 182.54 57.4766 183.014 57.8047C183.493 58.1328 183.87 58.5547 184.146 59.0703C184.423 59.5807 184.561 60.1927 184.561 60.9062V69H181.404V67.3359H181.311C181.118 67.7109 180.86 68.0417 180.537 68.3281C180.214 68.6094 179.826 68.8307 179.373 68.9922C178.92 69.1484 178.396 69.2266 177.803 69.2266ZM178.756 66.9297C179.245 66.9297 179.678 66.8333 180.053 66.6406C180.428 66.4427 180.722 66.1771 180.936 65.8438C181.149 65.5104 181.256 65.1328 181.256 64.7109V63.4375C181.152 63.5052 181.008 63.5677 180.826 63.625C180.649 63.6771 180.449 63.7266 180.225 63.7734C180.001 63.8151 179.777 63.8542 179.553 63.8906C179.329 63.9219 179.126 63.9505 178.943 63.9766C178.553 64.0339 178.212 64.125 177.92 64.25C177.628 64.375 177.402 64.5443 177.24 64.7578C177.079 64.9661 176.998 65.2266 176.998 65.5391C176.998 65.9922 177.162 66.3385 177.49 66.5781C177.824 66.8125 178.245 66.9297 178.756 66.9297ZM187.143 69V57H190.369V59.0937H190.494C190.713 58.349 191.08 57.7865 191.596 57.4063C192.111 57.0208 192.705 56.8281 193.377 56.8281C193.544 56.8281 193.723 56.8385 193.916 56.8594C194.109 56.8802 194.278 56.9089 194.424 56.9453V59.8984C194.268 59.8516 194.051 59.8099 193.775 59.7734C193.499 59.737 193.247 59.7188 193.018 59.7188C192.528 59.7188 192.09 59.8255 191.705 60.0391C191.325 60.2474 191.023 60.5391 190.799 60.9141C190.58 61.2891 190.471 61.7214 190.471 62.2109V69H187.143ZM198.564 73.5C198.143 73.5 197.747 73.4661 197.377 73.3984C197.012 73.3359 196.71 73.2552 196.471 73.1562L197.221 70.6719C197.611 70.7917 197.963 70.8568 198.275 70.8672C198.593 70.8776 198.867 70.8047 199.096 70.6484C199.33 70.4922 199.52 70.2266 199.666 69.8516L199.861 69.3438L195.557 57H199.057L201.541 65.8125H201.666L204.174 57H207.697L203.033 70.2969C202.809 70.9427 202.505 71.5052 202.119 71.9844C201.739 72.4688 201.257 72.8411 200.674 73.1016C200.09 73.3672 199.387 73.5 198.564 73.5Z" fill="#212529"/>
<path d="M41.3583 123V110.636H45.7653C46.7272 110.636 47.524 110.811 48.1559 111.162C48.7878 111.512 49.2607 111.991 49.5746 112.598C49.8885 113.202 50.0455 113.882 50.0455 114.639C50.0455 115.4 49.8865 116.084 49.5685 116.691C49.2546 117.295 48.7797 117.774 48.1438 118.128C47.512 118.478 46.7171 118.653 45.7592 118.653H42.7287V117.072H45.5902C46.1979 117.072 46.6909 116.967 47.0692 116.758C47.4476 116.545 47.7253 116.255 47.9023 115.888C48.0794 115.522 48.168 115.106 48.168 114.639C48.168 114.172 48.0794 113.757 47.9023 113.395C47.7253 113.033 47.4455 112.749 47.0632 112.544C46.6849 112.339 46.1858 112.236 45.5661 112.236H43.2237V123H41.3583ZM52.0874 123V113.727H53.8321V115.2H53.9287C54.0977 114.701 54.3956 114.309 54.8222 114.023C55.2528 113.733 55.7398 113.588 56.2831 113.588C56.3958 113.588 56.5286 113.592 56.6816 113.6C56.8385 113.609 56.9613 113.619 57.0498 113.631V115.357C56.9774 115.337 56.8486 115.315 56.6634 115.291C56.4783 115.263 56.2932 115.249 56.108 115.249C55.6814 115.249 55.3011 115.339 54.9671 115.52C54.637 115.697 54.3754 115.945 54.1823 116.263C53.9891 116.577 53.8925 116.935 53.8925 117.337V123H52.0874ZM62.1857 123.187C61.3164 123.187 60.5578 122.988 59.9098 122.589C59.2618 122.191 58.7588 121.634 58.4006 120.917C58.0424 120.201 57.8633 119.364 57.8633 118.406C57.8633 117.444 58.0424 116.603 58.4006 115.882C58.7588 115.162 59.2618 114.603 59.9098 114.204C60.5578 113.806 61.3164 113.607 62.1857 113.607C63.055 113.607 63.8137 113.806 64.4616 114.204C65.1096 114.603 65.6127 115.162 65.9709 115.882C66.3291 116.603 66.5082 117.444 66.5082 118.406C66.5082 119.364 66.3291 120.201 65.9709 120.917C65.6127 121.634 65.1096 122.191 64.4616 122.589C63.8137 122.988 63.055 123.187 62.1857 123.187ZM62.1918 121.672C62.7552 121.672 63.2221 121.523 63.5923 121.225C63.9626 120.927 64.2363 120.531 64.4134 120.036C64.5945 119.541 64.685 118.996 64.685 118.4C64.685 117.808 64.5945 117.265 64.4134 116.77C64.2363 116.271 63.9626 115.87 63.5923 115.569C63.2221 115.267 62.7552 115.116 62.1918 115.116C61.6243 115.116 61.1534 115.267 60.7791 115.569C60.4089 115.87 60.1332 116.271 59.9521 116.77C59.775 117.265 59.6864 117.808 59.6864 118.4C59.6864 118.996 59.775 119.541 59.9521 120.036C60.1332 120.531 60.4089 120.927 60.7791 121.225C61.1534 121.523 61.6243 121.672 62.1918 121.672ZM72.936 113.727V115.176H67.6959V113.727H72.936ZM69.1327 123V112.653C69.1327 112.073 69.2595 111.592 69.5131 111.21C69.7666 110.824 70.1027 110.536 70.5212 110.347C70.9398 110.153 71.3946 110.057 71.8856 110.057C72.2478 110.057 72.5577 110.087 72.8153 110.147C73.0728 110.204 73.264 110.256 73.3888 110.304L72.9662 111.765C72.8817 111.741 72.773 111.713 72.6402 111.681C72.5074 111.645 72.3464 111.626 72.1572 111.626C71.7185 111.626 71.4046 111.735 71.2155 111.952C71.0303 112.17 70.9378 112.484 70.9378 112.894V123H69.1327ZM78.4296 123.187C77.516 123.187 76.7292 122.992 76.0692 122.602C75.4131 122.207 74.906 121.654 74.5479 120.941C74.1937 120.225 74.0166 119.386 74.0166 118.424C74.0166 117.474 74.1937 116.637 74.5479 115.913C74.906 115.188 75.4051 114.623 76.045 114.216C76.689 113.81 77.4416 113.607 78.3028 113.607C78.826 113.607 79.3331 113.693 79.8241 113.866C80.3151 114.039 80.7558 114.311 81.1462 114.681C81.5366 115.051 81.8445 115.532 82.0699 116.124C82.2952 116.712 82.4079 117.426 82.4079 118.267V118.907H75.0368V117.555H80.6391C80.6391 117.08 80.5425 116.659 80.3493 116.293C80.1562 115.923 79.8845 115.631 79.5344 115.418C79.1882 115.204 78.7818 115.098 78.3149 115.098C77.8078 115.098 77.3651 115.222 76.9868 115.472C76.6125 115.717 76.3227 116.039 76.1175 116.438C75.9162 116.832 75.8156 117.261 75.8156 117.724V118.78C75.8156 119.4 75.9243 119.927 76.1416 120.362C76.363 120.797 76.6708 121.129 77.0653 121.358C77.4597 121.583 77.9205 121.696 78.4477 121.696C78.7898 121.696 79.1017 121.648 79.3834 121.551C79.6652 121.451 79.9086 121.302 80.1139 121.104C80.3192 120.907 80.4761 120.664 80.5848 120.374L82.2932 120.682C82.1564 121.185 81.9109 121.626 81.5567 122.004C81.2066 122.378 80.7659 122.67 80.2346 122.879C79.7074 123.085 79.1057 123.187 78.4296 123.187ZM91.3592 115.991L89.7232 116.281C89.6548 116.072 89.5461 115.872 89.3972 115.683C89.2523 115.494 89.0551 115.339 88.8056 115.218C88.556 115.098 88.2441 115.037 87.8699 115.037C87.3587 115.037 86.9321 115.152 86.59 115.381C86.2479 115.607 86.0769 115.899 86.0769 116.257C86.0769 116.567 86.1916 116.816 86.421 117.005C86.6504 117.194 87.0207 117.349 87.5318 117.47L89.0048 117.808C89.858 118.005 90.4939 118.309 90.9125 118.72C91.331 119.13 91.5403 119.664 91.5403 120.32C91.5403 120.875 91.3793 121.37 91.0574 121.805C90.7394 122.235 90.2947 122.573 89.7232 122.819C89.1557 123.064 88.4977 123.187 87.7491 123.187C86.7108 123.187 85.8636 122.966 85.2076 122.523C84.5516 122.076 84.1491 121.442 84.0002 120.621L85.7449 120.356C85.8535 120.811 86.0769 121.155 86.415 121.388C86.753 121.618 87.1937 121.732 87.737 121.732C88.3287 121.732 88.8016 121.609 89.1557 121.364C89.5099 121.114 89.687 120.811 89.687 120.452C89.687 120.163 89.5783 119.919 89.361 119.722C89.1477 119.525 88.8197 119.376 88.377 119.275L86.8074 118.931C85.9421 118.734 85.3021 118.42 84.8876 117.989C84.4771 117.559 84.2718 117.013 84.2718 116.353C84.2718 115.806 84.4248 115.327 84.7306 114.917C85.0365 114.506 85.4591 114.186 85.9984 113.957C86.5377 113.723 87.1555 113.607 87.8517 113.607C88.8539 113.607 89.6427 113.824 90.2182 114.259C90.7937 114.689 91.1741 115.267 91.3592 115.991ZM100.473 115.991L98.8374 116.281C98.769 116.072 98.6604 115.872 98.5115 115.683C98.3666 115.494 98.1694 115.339 97.9198 115.218C97.6703 115.098 97.3584 115.037 96.9841 115.037C96.473 115.037 96.0464 115.152 95.7043 115.381C95.3622 115.607 95.1911 115.899 95.1911 116.257C95.1911 116.567 95.3058 116.816 95.5352 117.005C95.7646 117.194 96.1349 117.349 96.646 117.47L98.1191 117.808C98.9723 118.005 99.6082 118.309 100.027 118.72C100.445 119.13 100.655 119.664 100.655 120.32C100.655 120.875 100.494 121.37 100.172 121.805C99.8537 122.235 99.4089 122.573 98.8374 122.819C98.27 123.064 97.6119 123.187 96.8634 123.187C95.825 123.187 94.9778 122.966 94.3218 122.523C93.6658 122.076 93.2633 121.442 93.1144 120.621L94.8591 120.356C94.9678 120.811 95.1911 121.155 95.5292 121.388C95.8673 121.618 96.308 121.732 96.8513 121.732C97.4429 121.732 97.9158 121.609 98.27 121.364C98.6241 121.114 98.8012 120.811 98.8012 120.452C98.8012 120.163 98.6926 119.919 98.4752 119.722C98.2619 119.525 97.9339 119.376 97.4912 119.275L95.9216 118.931C95.0563 118.734 94.4164 118.42 94.0019 117.989C93.5914 117.559 93.3861 117.013 93.3861 116.353C93.3861 115.806 93.539 115.327 93.8449 114.917C94.1508 114.506 94.5734 114.186 95.1127 113.957C95.652 113.723 96.2697 113.607 96.966 113.607C97.9681 113.607 98.757 113.824 99.3325 114.259C99.908 114.689 100.288 115.267 100.473 115.991ZM102.639 123V113.727H104.444V123H102.639ZM103.551 112.297C103.237 112.297 102.967 112.192 102.742 111.983C102.52 111.769 102.41 111.516 102.41 111.222C102.41 110.924 102.52 110.671 102.742 110.461C102.967 110.248 103.237 110.141 103.551 110.141C103.865 110.141 104.132 110.248 104.354 110.461C104.579 110.671 104.692 110.924 104.692 111.222C104.692 111.516 104.579 111.769 104.354 111.983C104.132 112.192 103.865 112.297 103.551 112.297ZM110.778 123.187C109.909 123.187 109.151 122.988 108.503 122.589C107.855 122.191 107.352 121.634 106.993 120.917C106.635 120.201 106.456 119.364 106.456 118.406C106.456 117.444 106.635 116.603 106.993 115.882C107.352 115.162 107.855 114.603 108.503 114.204C109.151 113.806 109.909 113.607 110.778 113.607C111.648 113.607 112.406 113.806 113.054 114.204C113.702 114.603 114.205 115.162 114.564 115.882C114.922 116.603 115.101 117.444 115.101 118.406C115.101 119.364 114.922 120.201 114.564 120.917C114.205 121.634 113.702 122.191 113.054 122.589C112.406 122.988 111.648 123.187 110.778 123.187ZM110.785 121.672C111.348 121.672 111.815 121.523 112.185 121.225C112.555 120.927 112.829 120.531 113.006 120.036C113.187 119.541 113.278 118.996 113.278 118.4C113.278 117.808 113.187 117.265 113.006 116.77C112.829 116.271 112.555 115.87 112.185 115.569C111.815 115.267 111.348 115.116 110.785 115.116C110.217 115.116 109.746 115.267 109.372 115.569C109.002 115.87 108.726 116.271 108.545 116.77C108.368 117.265 108.279 117.808 108.279 118.4C108.279 118.996 108.368 119.541 108.545 120.036C108.726 120.531 109.002 120.927 109.372 121.225C109.746 121.523 110.217 121.672 110.785 121.672ZM118.921 117.494V123H117.116V113.727H118.848V115.237H118.963C119.176 114.746 119.51 114.351 119.965 114.053C120.424 113.755 121.002 113.607 121.698 113.607C122.33 113.607 122.883 113.739 123.358 114.005C123.833 114.267 124.201 114.657 124.463 115.176C124.724 115.695 124.855 116.337 124.855 117.102V123H123.05V117.319C123.05 116.647 122.875 116.122 122.525 115.744C122.175 115.361 121.694 115.17 121.082 115.17C120.663 115.17 120.291 115.261 119.965 115.442C119.643 115.623 119.388 115.888 119.199 116.239C119.013 116.585 118.921 117.003 118.921 117.494ZM129.974 123.205C129.387 123.205 128.856 123.097 128.381 122.879C127.906 122.658 127.529 122.338 127.252 121.919C126.978 121.501 126.841 120.988 126.841 120.38C126.841 119.857 126.942 119.426 127.143 119.088C127.344 118.75 127.616 118.482 127.958 118.285C128.3 118.088 128.683 117.939 129.105 117.838C129.528 117.738 129.958 117.661 130.397 117.609C130.952 117.545 131.403 117.492 131.749 117.452C132.095 117.408 132.347 117.337 132.504 117.241C132.661 117.144 132.739 116.987 132.739 116.77V116.728C132.739 116.2 132.59 115.792 132.293 115.502C131.999 115.212 131.56 115.067 130.977 115.067C130.369 115.067 129.89 115.202 129.54 115.472C129.194 115.738 128.954 116.033 128.821 116.359L127.125 115.973C127.326 115.41 127.62 114.955 128.006 114.609C128.397 114.259 128.846 114.005 129.353 113.848C129.86 113.687 130.393 113.607 130.952 113.607C131.323 113.607 131.715 113.651 132.13 113.739C132.548 113.824 132.939 113.981 133.301 114.21C133.667 114.44 133.967 114.768 134.2 115.194C134.434 115.617 134.55 116.166 134.55 116.842V123H132.788V121.732H132.715C132.598 121.966 132.423 122.195 132.19 122.42C131.957 122.646 131.657 122.833 131.29 122.982C130.924 123.131 130.486 123.205 129.974 123.205ZM130.367 121.756C130.866 121.756 131.292 121.658 131.647 121.461C132.005 121.263 132.277 121.006 132.462 120.688C132.651 120.366 132.745 120.022 132.745 119.656V118.46C132.681 118.525 132.556 118.585 132.371 118.641C132.19 118.694 131.983 118.74 131.749 118.78C131.516 118.816 131.288 118.851 131.067 118.883C130.846 118.911 130.661 118.935 130.512 118.955C130.162 119 129.842 119.074 129.552 119.179C129.266 119.283 129.037 119.434 128.864 119.631C128.695 119.825 128.61 120.082 128.61 120.404C128.61 120.851 128.775 121.189 129.105 121.418C129.435 121.644 129.856 121.756 130.367 121.756ZM138.76 110.636V123H136.955V110.636H138.76ZM145.832 123V110.636H150.239C151.201 110.636 151.998 110.811 152.63 111.162C153.261 111.512 153.734 111.991 154.048 112.598C154.362 113.202 154.519 113.882 154.519 114.639C154.519 115.4 154.36 116.084 154.042 116.691C153.728 117.295 153.253 117.774 152.617 118.128C151.986 118.478 151.191 118.653 150.233 118.653H147.202V117.072H150.064C150.672 117.072 151.165 116.967 151.543 116.758C151.921 116.545 152.199 116.255 152.376 115.888C152.553 115.522 152.642 115.106 152.642 114.639C152.642 114.172 152.553 113.757 152.376 113.395C152.199 113.033 151.919 112.749 151.537 112.544C151.159 112.339 150.659 112.236 150.04 112.236H147.697V123H145.832ZM158.366 110.636V123H156.561V110.636H158.366ZM163.493 123.205C162.905 123.205 162.374 123.097 161.899 122.879C161.424 122.658 161.048 122.338 160.77 121.919C160.497 121.501 160.36 120.988 160.36 120.38C160.36 119.857 160.46 119.426 160.662 119.088C160.863 118.75 161.135 118.482 161.477 118.285C161.819 118.088 162.201 117.939 162.624 117.838C163.046 117.738 163.477 117.661 163.916 117.609C164.471 117.545 164.922 117.492 165.268 117.452C165.614 117.408 165.866 117.337 166.022 117.241C166.179 117.144 166.258 116.987 166.258 116.77V116.728C166.258 116.2 166.109 115.792 165.811 115.502C165.517 115.212 165.079 115.067 164.495 115.067C163.887 115.067 163.408 115.202 163.058 115.472C162.712 115.738 162.473 116.033 162.34 116.359L160.644 115.973C160.845 115.41 161.139 114.955 161.525 114.609C161.915 114.259 162.364 114.005 162.871 113.848C163.378 113.687 163.912 113.607 164.471 113.607C164.841 113.607 165.234 113.651 165.648 113.739C166.067 113.824 166.457 113.981 166.819 114.21C167.186 114.44 167.485 114.768 167.719 115.194C167.952 115.617 168.069 116.166 168.069 116.842V123H166.306V121.732H166.234C166.117 121.966 165.942 122.195 165.709 122.42C165.475 122.646 165.175 122.833 164.809 122.982C164.443 123.131 164.004 123.205 163.493 123.205ZM163.885 121.756C164.384 121.756 164.811 121.658 165.165 121.461C165.523 121.263 165.795 121.006 165.98 120.688C166.169 120.366 166.264 120.022 166.264 119.656V118.46C166.2 118.525 166.075 118.585 165.89 118.641C165.709 118.694 165.501 118.74 165.268 118.78C165.034 118.816 164.807 118.851 164.586 118.883C164.364 118.911 164.179 118.935 164.03 118.955C163.68 119 163.36 119.074 163.07 119.179C162.785 119.283 162.555 119.434 162.382 119.631C162.213 119.825 162.129 120.082 162.129 120.404C162.129 120.851 162.294 121.189 162.624 121.418C162.954 121.644 163.374 121.756 163.885 121.756ZM172.278 117.494V123H170.473V113.727H172.206V115.237H172.32C172.534 114.746 172.868 114.351 173.323 114.053C173.781 113.755 174.359 113.607 175.055 113.607C175.687 113.607 176.24 113.739 176.715 114.005C177.19 114.267 177.559 114.657 177.82 115.176C178.082 115.695 178.213 116.337 178.213 117.102V123H176.407V117.319C176.407 116.647 176.232 116.122 175.882 115.744C175.532 115.361 175.051 115.17 174.439 115.17C174.021 115.17 173.649 115.261 173.323 115.442C173.001 115.623 172.745 115.888 172.556 116.239C172.371 116.585 172.278 117.003 172.278 117.494Z" fill="#212529"/>
<path d="M233.156 124.545V109.091H234.146V124.545H233.156ZM235.782 114.192C235.733 113.705 235.526 113.327 235.16 113.057C234.794 112.788 234.297 112.653 233.669 112.653C233.242 112.653 232.882 112.713 232.588 112.834C232.294 112.951 232.069 113.114 231.912 113.323C231.759 113.532 231.683 113.77 231.683 114.035C231.674 114.257 231.721 114.45 231.821 114.615C231.926 114.78 232.069 114.923 232.25 115.043C232.431 115.16 232.64 115.263 232.878 115.351C233.115 115.436 233.369 115.508 233.638 115.569L234.749 115.834C235.289 115.955 235.784 116.116 236.234 116.317C236.685 116.518 237.076 116.766 237.406 117.06C237.736 117.353 237.991 117.7 238.172 118.098C238.357 118.496 238.452 118.953 238.456 119.468C238.452 120.225 238.259 120.881 237.876 121.436C237.498 121.988 236.951 122.416 236.234 122.722C235.522 123.024 234.663 123.175 233.657 123.175C232.658 123.175 231.789 123.022 231.049 122.716C230.312 122.41 229.737 121.958 229.322 121.358C228.912 120.754 228.696 120.008 228.676 119.118H231.206C231.234 119.533 231.353 119.879 231.562 120.157C231.775 120.43 232.059 120.638 232.413 120.778C232.771 120.915 233.176 120.984 233.626 120.984C234.069 120.984 234.453 120.919 234.779 120.79C235.109 120.662 235.365 120.483 235.546 120.253C235.727 120.024 235.818 119.76 235.818 119.462C235.818 119.185 235.735 118.951 235.57 118.762C235.409 118.573 235.172 118.412 234.858 118.279C234.548 118.146 234.168 118.026 233.717 117.917L232.371 117.579C231.328 117.325 230.505 116.929 229.902 116.39C229.298 115.85 228.998 115.124 229.002 114.21C228.998 113.462 229.197 112.808 229.6 112.248C230.006 111.689 230.564 111.252 231.272 110.938C231.98 110.624 232.785 110.467 233.687 110.467C234.604 110.467 235.405 110.624 236.089 110.938C236.778 111.252 237.313 111.689 237.695 112.248C238.078 112.808 238.275 113.456 238.287 114.192H235.782ZM244.887 123.169C244.251 123.165 243.637 123.058 243.046 122.849C242.458 122.64 241.931 122.3 241.464 121.829C240.997 121.358 240.627 120.734 240.353 119.957C240.083 119.181 239.949 118.227 239.949 117.096C239.953 116.058 240.071 115.13 240.305 114.313C240.542 113.492 240.88 112.796 241.319 112.224C241.762 111.653 242.291 111.218 242.907 110.92C243.522 110.618 244.213 110.467 244.977 110.467C245.802 110.467 246.531 110.628 247.163 110.95C247.795 111.268 248.302 111.701 248.684 112.248C249.07 112.796 249.304 113.409 249.384 114.089H246.807C246.706 113.659 246.495 113.321 246.173 113.075C245.851 112.83 245.452 112.707 244.977 112.707C244.172 112.707 243.561 113.057 243.142 113.757C242.728 114.458 242.516 115.41 242.508 116.613H242.593C242.778 116.247 243.027 115.935 243.341 115.677C243.659 115.416 244.02 115.216 244.422 115.08C244.828 114.939 245.257 114.868 245.708 114.868C246.44 114.868 247.092 115.041 247.664 115.387C248.235 115.73 248.686 116.2 249.016 116.8C249.346 117.4 249.511 118.086 249.511 118.859C249.511 119.696 249.316 120.44 248.926 121.092C248.539 121.744 247.998 122.255 247.302 122.626C246.609 122.992 245.804 123.173 244.887 123.169ZM244.875 121.116C245.277 121.116 245.637 121.02 245.955 120.827C246.273 120.634 246.523 120.372 246.704 120.042C246.885 119.712 246.976 119.342 246.976 118.931C246.976 118.521 246.885 118.152 246.704 117.826C246.527 117.5 246.281 117.241 245.967 117.048C245.653 116.854 245.295 116.758 244.893 116.758C244.591 116.758 244.311 116.814 244.054 116.927C243.8 117.04 243.577 117.196 243.384 117.398C243.194 117.599 243.046 117.832 242.937 118.098C242.828 118.36 242.774 118.639 242.774 118.937C242.774 119.336 242.864 119.7 243.046 120.03C243.231 120.36 243.48 120.623 243.794 120.821C244.112 121.018 244.472 121.116 244.875 121.116ZM255.838 110.467C256.474 110.467 257.085 110.574 257.673 110.787C258.265 111.001 258.792 111.341 259.255 111.808C259.722 112.274 260.09 112.894 260.359 113.667C260.633 114.436 260.772 115.379 260.776 116.498C260.776 117.549 260.657 118.486 260.42 119.311C260.186 120.132 259.85 120.831 259.412 121.406C258.973 121.982 258.444 122.42 257.824 122.722C257.204 123.02 256.512 123.169 255.747 123.169C254.922 123.169 254.194 123.01 253.562 122.692C252.93 122.37 252.421 121.933 252.035 121.382C251.652 120.827 251.421 120.203 251.34 119.511H253.918C254.019 119.961 254.23 120.312 254.552 120.561C254.874 120.807 255.272 120.929 255.747 120.929C256.552 120.929 257.164 120.579 257.582 119.879C258.001 119.175 258.212 118.211 258.216 116.987H258.132C257.947 117.349 257.697 117.661 257.383 117.923C257.069 118.181 256.709 118.38 256.303 118.521C255.9 118.661 255.472 118.732 255.017 118.732C254.288 118.732 253.638 118.561 253.067 118.219C252.495 117.877 252.045 117.406 251.715 116.806C251.385 116.206 251.22 115.522 251.22 114.754C251.216 113.924 251.407 113.186 251.793 112.538C252.179 111.89 252.719 111.383 253.411 111.017C254.107 110.646 254.916 110.463 255.838 110.467ZM255.856 112.52C255.449 112.52 255.087 112.616 254.769 112.81C254.455 113.003 254.206 113.262 254.021 113.588C253.84 113.914 253.751 114.279 253.755 114.681C253.755 115.088 253.844 115.454 254.021 115.78C254.202 116.102 254.447 116.359 254.757 116.553C255.071 116.742 255.429 116.836 255.832 116.836C256.134 116.836 256.413 116.78 256.671 116.667C256.928 116.555 257.152 116.4 257.341 116.202C257.534 116.001 257.685 115.77 257.794 115.508C257.902 115.247 257.957 114.969 257.957 114.675C257.953 114.285 257.86 113.926 257.679 113.6C257.498 113.275 257.248 113.013 256.93 112.816C256.613 112.618 256.254 112.52 255.856 112.52ZM271.931 110.057L267.946 124.859H265.731L269.715 110.057H271.931ZM277.104 123V113.727H279.555V115.363H279.664C279.857 114.82 280.179 114.391 280.63 114.077C281.081 113.763 281.62 113.607 282.248 113.607C282.884 113.607 283.425 113.766 283.872 114.083C284.319 114.397 284.616 114.824 284.765 115.363H284.862C285.051 114.832 285.393 114.407 285.888 114.089C286.387 113.768 286.977 113.607 287.657 113.607C288.522 113.607 289.225 113.882 289.764 114.434C290.307 114.981 290.579 115.758 290.579 116.764V123H288.013V117.271C288.013 116.756 287.876 116.369 287.603 116.112C287.329 115.854 286.987 115.725 286.576 115.725C286.109 115.725 285.745 115.874 285.484 116.172C285.222 116.466 285.091 116.854 285.091 117.337V123H282.598V117.217C282.598 116.762 282.467 116.4 282.206 116.13C281.948 115.86 281.608 115.725 281.185 115.725C280.9 115.725 280.642 115.798 280.413 115.943C280.187 116.084 280.008 116.283 279.875 116.54C279.743 116.794 279.676 117.092 279.676 117.434V123H277.104ZM296.8 123.181C295.862 123.181 295.051 122.982 294.367 122.583C293.687 122.181 293.162 121.622 292.791 120.905C292.421 120.185 292.236 119.35 292.236 118.4C292.236 117.442 292.421 116.605 292.791 115.888C293.162 115.168 293.687 114.609 294.367 114.21C295.051 113.808 295.862 113.607 296.8 113.607C297.738 113.607 298.547 113.808 299.227 114.21C299.911 114.609 300.438 115.168 300.808 115.888C301.179 116.605 301.364 117.442 301.364 118.4C301.364 119.35 301.179 120.185 300.808 120.905C300.438 121.622 299.911 122.181 299.227 122.583C298.547 122.982 297.738 123.181 296.8 123.181ZM296.812 121.189C297.239 121.189 297.595 121.068 297.881 120.827C298.166 120.581 298.382 120.247 298.526 119.825C298.675 119.402 298.75 118.921 298.75 118.382C298.75 117.842 298.675 117.362 298.526 116.939C298.382 116.516 298.166 116.182 297.881 115.937C297.595 115.691 297.239 115.569 296.812 115.569C296.381 115.569 296.019 115.691 295.725 115.937C295.436 116.182 295.216 116.516 295.067 116.939C294.922 117.362 294.85 117.842 294.85 118.382C294.85 118.921 294.922 119.402 295.067 119.825C295.216 120.247 295.436 120.581 295.725 120.827C296.019 121.068 296.381 121.189 296.812 121.189ZM305.608 117.639V123H303.036V113.727H305.487V115.363H305.596C305.801 114.824 306.145 114.397 306.628 114.083C307.111 113.766 307.697 113.607 308.385 113.607C309.029 113.607 309.59 113.747 310.069 114.029C310.548 114.311 310.92 114.713 311.186 115.237C311.452 115.756 311.584 116.375 311.584 117.096V123H309.013V117.555C309.017 116.987 308.872 116.545 308.578 116.227C308.284 115.905 307.88 115.744 307.365 115.744C307.018 115.744 306.713 115.818 306.447 115.967C306.185 116.116 305.98 116.333 305.831 116.619C305.686 116.901 305.612 117.241 305.608 117.639ZM318.543 113.727V115.659H312.959V113.727H318.543ZM314.227 111.506H316.799V120.151C316.799 120.388 316.835 120.573 316.907 120.706C316.98 120.835 317.08 120.925 317.209 120.978C317.342 121.03 317.495 121.056 317.668 121.056C317.789 121.056 317.91 121.046 318.03 121.026C318.151 121.002 318.244 120.984 318.308 120.972L318.712 122.885C318.584 122.926 318.403 122.972 318.169 123.024C317.936 123.08 317.652 123.115 317.318 123.127C316.698 123.151 316.155 123.068 315.688 122.879C315.225 122.69 314.865 122.396 314.607 121.998C314.35 121.599 314.223 121.096 314.227 120.489V111.506ZM322.99 117.639V123H320.418V110.636H322.917V115.363H323.026C323.235 114.816 323.573 114.387 324.04 114.077C324.507 113.763 325.092 113.607 325.797 113.607C326.441 113.607 327.002 113.747 327.481 114.029C327.964 114.307 328.338 114.707 328.604 115.23C328.874 115.75 329.006 116.371 329.002 117.096V123H326.431V117.555C326.435 116.983 326.29 116.538 325.996 116.221C325.706 115.903 325.3 115.744 324.777 115.744C324.426 115.744 324.117 115.818 323.847 115.967C323.581 116.116 323.372 116.333 323.219 116.619C323.07 116.901 322.994 117.241 322.99 117.639Z" fill="#212529"/>
<path d="M43.3097 134.727V142H42.429V135.651H42.3864L40.6108 136.83V135.935L42.429 134.727H43.3097ZM47.8161 142.099C47.5178 142.095 47.2195 142.038 46.9212 141.929C46.6229 141.82 46.3506 141.637 46.1044 141.379C45.8582 141.118 45.6605 140.767 45.5114 140.324C45.3622 139.879 45.2876 139.32 45.2876 138.648C45.2876 138.004 45.348 137.433 45.4688 136.936C45.5895 136.437 45.7647 136.016 45.9943 135.675C46.224 135.332 46.5009 135.072 46.8253 134.894C47.152 134.717 47.5201 134.628 47.9297 134.628C48.3369 134.628 48.6991 134.71 49.0163 134.873C49.3359 135.034 49.5964 135.259 49.7976 135.548C49.9988 135.836 50.129 136.169 50.1882 136.545H49.3217C49.2412 136.219 49.085 135.948 48.853 135.732C48.621 135.517 48.3132 135.409 47.9297 135.409C47.3662 135.409 46.9223 135.654 46.598 136.144C46.276 136.634 46.1139 137.322 46.1115 138.207H46.1683C46.3009 138.006 46.4583 137.835 46.6406 137.692C46.8253 137.548 47.0289 137.437 47.2514 137.359C47.474 137.281 47.7095 137.241 47.9581 137.241C48.3748 137.241 48.7559 137.346 49.1016 137.554C49.4472 137.76 49.7242 138.045 49.9325 138.41C50.1409 138.772 50.245 139.188 50.245 139.656C50.245 140.106 50.1444 140.518 49.9432 140.892C49.742 141.264 49.459 141.56 49.0945 141.78C48.7322 141.998 48.3061 142.104 47.8161 142.099ZM47.8161 141.318C48.1143 141.318 48.3819 141.244 48.6186 141.094C48.8577 140.945 49.0459 140.745 49.1832 140.494C49.3229 140.243 49.3928 139.964 49.3928 139.656C49.3928 139.356 49.3253 139.082 49.1903 138.836C49.0578 138.587 48.8743 138.39 48.6399 138.243C48.4079 138.096 48.1428 138.023 47.8445 138.023C47.6196 138.023 47.41 138.068 47.2159 138.158C47.0218 138.245 46.8513 138.366 46.7045 138.52C46.5601 138.674 46.4465 138.85 46.3636 139.049C46.2808 139.246 46.2393 139.453 46.2393 139.67C46.2393 139.959 46.3068 140.229 46.4418 140.48C46.5791 140.731 46.7661 140.933 47.0028 141.087C47.242 141.241 47.513 141.318 47.8161 141.318ZM54.2267 134.386L51.883 143.094H51.1159L53.4597 134.386H54.2267ZM57.6634 142.099C57.1946 142.099 56.7768 142.019 56.4098 141.858C56.0452 141.697 55.7552 141.473 55.5398 141.187C55.3267 140.898 55.2107 140.563 55.1918 140.182H56.0866C56.1056 140.416 56.1861 140.619 56.3281 140.789C56.4702 140.957 56.656 141.087 56.8857 141.18C57.1153 141.272 57.3698 141.318 57.6491 141.318C57.9616 141.318 58.2386 141.264 58.4801 141.155C58.7216 141.046 58.911 140.894 59.0483 140.7C59.1856 140.506 59.2543 140.281 59.2543 140.026C59.2543 139.758 59.188 139.522 59.0554 139.319C58.9228 139.113 58.7287 138.952 58.473 138.836C58.2173 138.72 57.9048 138.662 57.5355 138.662H56.9531V137.881H57.5355C57.8243 137.881 58.0777 137.829 58.2955 137.724C58.5156 137.62 58.6873 137.473 58.8104 137.284C58.9358 137.095 58.9986 136.872 58.9986 136.616C58.9986 136.37 58.9441 136.156 58.8352 135.974C58.7263 135.791 58.5724 135.649 58.3736 135.548C58.1771 135.446 57.9451 135.395 57.6776 135.395C57.4266 135.395 57.1899 135.441 56.9673 135.533C56.7472 135.623 56.5672 135.755 56.4276 135.928C56.2879 136.098 56.2121 136.304 56.2003 136.545H55.348C55.3622 136.164 55.477 135.83 55.6925 135.544C55.9079 135.255 56.1896 135.03 56.5376 134.869C56.888 134.708 57.2727 134.628 57.6918 134.628C58.1416 134.628 58.5275 134.719 58.8494 134.901C59.1714 135.081 59.4188 135.319 59.5916 135.615C59.7644 135.911 59.8509 136.231 59.8509 136.574C59.8509 136.983 59.7431 137.333 59.5277 137.621C59.3146 137.91 59.0246 138.11 58.6577 138.222V138.278C59.117 138.354 59.4756 138.549 59.7337 138.864C59.9917 139.177 60.1207 139.564 60.1207 140.026C60.1207 140.421 60.013 140.776 59.7976 141.091C59.5845 141.403 59.2933 141.65 58.924 141.83C58.5547 142.009 58.1345 142.099 57.6634 142.099ZM64.1584 134.386L61.8146 143.094H61.0476L63.3913 134.386H64.1584ZM65.1376 142V141.361L67.5382 138.733C67.8199 138.425 68.0519 138.158 68.2342 137.93C68.4165 137.701 68.5514 137.485 68.639 137.284C68.729 137.08 68.774 136.867 68.774 136.645C68.774 136.389 68.7124 136.168 68.5893 135.981C68.4686 135.794 68.3029 135.649 68.0922 135.548C67.8815 135.446 67.6447 135.395 67.3819 135.395C67.1026 135.395 66.8587 135.453 66.6504 135.569C66.4444 135.683 66.2846 135.842 66.171 136.048C66.0597 136.254 66.0041 136.496 66.0041 136.773H65.166C65.166 136.347 65.2643 135.973 65.4608 135.651C65.6573 135.329 65.9248 135.078 66.2633 134.898C66.6042 134.718 66.9866 134.628 67.4103 134.628C67.8365 134.628 68.2141 134.718 68.5431 134.898C68.8722 135.078 69.1303 135.32 69.3173 135.626C69.5043 135.931 69.5978 136.271 69.5978 136.645C69.5978 136.912 69.5493 137.174 69.4522 137.43C69.3575 137.683 69.1918 137.966 68.9551 138.278C68.7207 138.589 68.3952 138.967 67.9785 139.415L66.345 141.162V141.219H69.7257V142H65.1376ZM73.5645 142.099C73.0294 142.099 72.5737 141.954 72.1973 141.663C71.8208 141.369 71.5332 140.944 71.3343 140.388C71.1355 139.829 71.036 139.154 71.036 138.364C71.036 137.578 71.1355 136.906 71.3343 136.35C71.5356 135.791 71.8244 135.365 72.2008 135.072C72.5796 134.776 73.0342 134.628 73.5645 134.628C74.0948 134.628 74.5481 134.776 74.9245 135.072C75.3033 135.365 75.5922 135.791 75.791 136.35C75.9922 136.906 76.0929 137.578 76.0929 138.364C76.0929 139.154 75.9934 139.829 75.7946 140.388C75.5957 140.944 75.3081 141.369 74.9316 141.663C74.5552 141.954 74.0995 142.099 73.5645 142.099ZM73.5645 141.318C74.0948 141.318 74.5067 141.062 74.8002 140.551C75.0938 140.04 75.2406 139.311 75.2406 138.364C75.2406 137.734 75.1731 137.198 75.0382 136.755C74.9056 136.312 74.7138 135.975 74.4629 135.743C74.2143 135.511 73.9148 135.395 73.5645 135.395C73.0389 135.395 72.6281 135.654 72.3322 136.173C72.0363 136.689 71.8883 137.419 71.8883 138.364C71.8883 138.993 71.9546 139.528 72.0872 139.969C72.2198 140.409 72.4103 140.744 72.6589 140.974C72.9099 141.203 73.2117 141.318 73.5645 141.318ZM77.4423 142V141.361L79.8429 138.733C80.1246 138.425 80.3566 138.158 80.5389 137.93C80.7212 137.701 80.8561 137.485 80.9437 137.284C81.0337 137.08 81.0787 136.867 81.0787 136.645C81.0787 136.389 81.0171 136.168 80.894 135.981C80.7733 135.794 80.6075 135.649 80.3968 135.548C80.1861 135.446 79.9494 135.395 79.6866 135.395C79.4073 135.395 79.1634 135.453 78.9551 135.569C78.7491 135.683 78.5893 135.842 78.4757 136.048C78.3644 136.254 78.3088 136.496 78.3088 136.773H77.4707C77.4707 136.347 77.569 135.973 77.7654 135.651C77.9619 135.329 78.2295 135.078 78.568 134.898C78.9089 134.718 79.2913 134.628 79.715 134.628C80.1412 134.628 80.5188 134.718 80.8478 134.898C81.1769 135.078 81.435 135.32 81.622 135.626C81.809 135.931 81.9025 136.271 81.9025 136.645C81.9025 136.912 81.854 137.174 81.7569 137.43C81.6622 137.683 81.4965 137.966 81.2598 138.278C81.0254 138.589 80.6999 138.967 80.2832 139.415L78.6497 141.162V141.219H82.0304V142H77.4423ZM85.9544 142.099C85.4856 142.099 85.0678 142.019 84.7008 141.858C84.3362 141.697 84.0462 141.473 83.8308 141.187C83.6177 140.898 83.5017 140.563 83.4828 140.182H84.3777C84.3966 140.416 84.4771 140.619 84.6191 140.789C84.7612 140.957 84.947 141.087 85.1767 141.18C85.4063 141.272 85.6608 141.318 85.9402 141.318C86.2527 141.318 86.5297 141.264 86.7711 141.155C87.0126 141.046 87.202 140.894 87.3393 140.7C87.4766 140.506 87.5453 140.281 87.5453 140.026C87.5453 139.758 87.479 139.522 87.3464 139.319C87.2138 139.113 87.0197 138.952 86.764 138.836C86.5083 138.72 86.1958 138.662 85.8265 138.662H85.2441V137.881H85.8265C86.1154 137.881 86.3687 137.829 86.5865 137.724C86.8066 137.62 86.9783 137.473 87.1014 137.284C87.2269 137.095 87.2896 136.872 87.2896 136.616C87.2896 136.37 87.2351 136.156 87.1262 135.974C87.0173 135.791 86.8635 135.649 86.6646 135.548C86.4681 135.446 86.2361 135.395 85.9686 135.395C85.7176 135.395 85.4809 135.441 85.2583 135.533C85.0382 135.623 84.8583 135.755 84.7186 135.928C84.5789 136.098 84.5031 136.304 84.4913 136.545H83.639C83.6532 136.164 83.7681 135.83 83.9835 135.544C84.1989 135.255 84.4806 135.03 84.8287 134.869C85.179 134.708 85.5637 134.628 85.9828 134.628C86.4326 134.628 86.8185 134.719 87.1404 134.901C87.4624 135.081 87.7098 135.319 87.8826 135.615C88.0555 135.911 88.1419 136.231 88.1419 136.574C88.1419 136.983 88.0342 137.333 87.8187 137.621C87.6056 137.91 87.3156 138.11 86.9487 138.222V138.278C87.408 138.354 87.7666 138.549 88.0247 138.864C88.2827 139.177 88.4118 139.564 88.4118 140.026C88.4118 140.421 88.304 140.776 88.0886 141.091C87.8755 141.403 87.5843 141.65 87.215 141.83C86.8457 142.009 86.4255 142.099 85.9544 142.099ZM95.8159 137.973V138.754H92.6341V137.973H95.8159ZM102.646 134.727V142H101.765V135.651H101.722L99.9467 136.83V135.935L101.765 134.727H102.646ZM107.01 142.099C106.593 142.099 106.218 142.017 105.884 141.851C105.55 141.685 105.283 141.458 105.082 141.169C104.88 140.88 104.77 140.551 104.751 140.182H105.604C105.637 140.511 105.786 140.783 106.051 140.999C106.319 141.212 106.638 141.318 107.01 141.318C107.308 141.318 107.573 141.248 107.805 141.109C108.04 140.969 108.223 140.777 108.356 140.533C108.491 140.287 108.558 140.009 108.558 139.699C108.558 139.382 108.488 139.099 108.349 138.85C108.211 138.599 108.022 138.402 107.781 138.257C107.539 138.113 107.263 138.039 106.953 138.037C106.731 138.035 106.502 138.069 106.268 138.14C106.033 138.209 105.84 138.297 105.689 138.406L104.865 138.307L105.305 134.727H109.084V135.509H106.044L105.788 137.653H105.831C105.98 137.535 106.167 137.437 106.392 137.359C106.617 137.281 106.851 137.241 107.095 137.241C107.54 137.241 107.937 137.348 108.285 137.561C108.635 137.772 108.91 138.061 109.109 138.428C109.31 138.795 109.411 139.214 109.411 139.685C109.411 140.149 109.306 140.563 109.098 140.928C108.892 141.29 108.608 141.576 108.246 141.787C107.884 141.995 107.472 142.099 107.01 142.099ZM113.406 134.386L111.063 143.094H110.296L112.639 134.386H113.406ZM114.215 140.509V139.784L117.411 134.727H117.937V135.849H117.582L115.167 139.67V139.727H119.471V140.509H114.215ZM117.638 142V140.288V139.951V134.727H118.477V142H117.638ZM123.387 134.386L121.043 143.094H120.276L122.62 134.386H123.387ZM124.366 142V141.361L126.767 138.733C127.048 138.425 127.28 138.158 127.463 137.93C127.645 137.701 127.78 137.485 127.868 137.284C127.958 137.08 128.002 136.867 128.002 136.645C128.002 136.389 127.941 136.168 127.818 135.981C127.697 135.794 127.531 135.649 127.321 135.548C127.11 135.446 126.873 135.395 126.61 135.395C126.331 135.395 126.087 135.453 125.879 135.569C125.673 135.683 125.513 135.842 125.4 136.048C125.288 136.254 125.233 136.496 125.233 136.773H124.395C124.395 136.347 124.493 135.973 124.689 135.651C124.886 135.329 125.153 135.078 125.492 134.898C125.833 134.718 126.215 134.628 126.639 134.628C127.065 134.628 127.443 134.718 127.772 134.898C128.101 135.078 128.359 135.32 128.546 135.626C128.733 135.931 128.826 136.271 128.826 136.645C128.826 136.912 128.778 137.174 128.681 137.43C128.586 137.683 128.42 137.966 128.184 138.278C127.949 138.589 127.624 138.967 127.207 139.415L125.574 141.162V141.219H128.954V142H124.366ZM132.793 142.099C132.258 142.099 131.802 141.954 131.426 141.663C131.049 141.369 130.762 140.944 130.563 140.388C130.364 139.829 130.265 139.154 130.265 138.364C130.265 137.578 130.364 136.906 130.563 136.35C130.764 135.791 131.053 135.365 131.429 135.072C131.808 134.776 132.263 134.628 132.793 134.628C133.323 134.628 133.777 134.776 134.153 135.072C134.532 135.365 134.821 135.791 135.02 136.35C135.221 136.906 135.321 137.578 135.321 138.364C135.321 139.154 135.222 139.829 135.023 140.388C134.824 140.944 134.537 141.369 134.16 141.663C133.784 141.954 133.328 142.099 132.793 142.099ZM132.793 141.318C133.323 141.318 133.735 141.062 134.029 140.551C134.322 140.04 134.469 139.311 134.469 138.364C134.469 137.734 134.402 137.198 134.267 136.755C134.134 136.312 133.942 135.975 133.691 135.743C133.443 135.511 133.143 135.395 132.793 135.395C132.267 135.395 131.857 135.654 131.561 136.173C131.265 136.689 131.117 137.419 131.117 138.364C131.117 138.993 131.183 139.528 131.316 139.969C131.448 140.409 131.639 140.744 131.887 140.974C132.138 141.203 132.44 141.318 132.793 141.318ZM136.671 142V141.361L139.071 138.733C139.353 138.425 139.585 138.158 139.767 137.93C139.95 137.701 140.085 137.485 140.172 137.284C140.262 137.08 140.307 136.867 140.307 136.645C140.307 136.389 140.246 136.168 140.123 135.981C140.002 135.794 139.836 135.649 139.625 135.548C139.415 135.446 139.178 135.395 138.915 135.395C138.636 135.395 138.392 135.453 138.184 135.569C137.978 135.683 137.818 135.842 137.704 136.048C137.593 136.254 137.537 136.496 137.537 136.773H136.699C136.699 136.347 136.797 135.973 136.994 135.651C137.19 135.329 137.458 135.078 137.797 134.898C138.137 134.718 138.52 134.628 138.944 134.628C139.37 134.628 139.747 134.718 140.076 134.898C140.405 135.078 140.663 135.32 140.85 135.626C141.038 135.931 141.131 136.271 141.131 136.645C141.131 136.912 141.083 137.174 140.985 137.43C140.891 137.683 140.725 137.966 140.488 138.278C140.254 138.589 139.928 138.967 139.512 139.415L137.878 141.162V141.219H141.259V142H136.671ZM145.183 142.099C144.714 142.099 144.296 142.019 143.929 141.858C143.565 141.697 143.275 141.473 143.059 141.187C142.846 140.898 142.73 140.563 142.711 140.182H143.606C143.625 140.416 143.706 140.619 143.848 140.789C143.99 140.957 144.176 141.087 144.405 141.18C144.635 141.272 144.889 141.318 145.169 141.318C145.481 141.318 145.758 141.264 146 141.155C146.241 141.046 146.431 140.894 146.568 140.7C146.705 140.506 146.774 140.281 146.774 140.026C146.774 139.758 146.708 139.522 146.575 139.319C146.442 139.113 146.248 138.952 145.993 138.836C145.737 138.72 145.424 138.662 145.055 138.662H144.473V137.881H145.055C145.344 137.881 145.597 137.829 145.815 137.724C146.035 137.62 146.207 137.473 146.33 137.284C146.455 137.095 146.518 136.872 146.518 136.616C146.518 136.37 146.464 136.156 146.355 135.974C146.246 135.791 146.092 135.649 145.893 135.548C145.697 135.446 145.465 135.395 145.197 135.395C144.946 135.395 144.709 135.441 144.487 135.533C144.267 135.623 144.087 135.755 143.947 135.928C143.807 136.098 143.732 136.304 143.72 136.545H142.868C142.882 136.164 142.997 135.83 143.212 135.544C143.427 135.255 143.709 135.03 144.057 134.869C144.408 134.708 144.792 134.628 145.211 134.628C145.661 134.628 146.047 134.719 146.369 134.901C146.691 135.081 146.938 135.319 147.111 135.615C147.284 135.911 147.37 136.231 147.37 136.574C147.37 136.983 147.263 137.333 147.047 137.621C146.834 137.91 146.544 138.11 146.177 138.222V138.278C146.636 138.354 146.995 138.549 147.253 138.864C147.511 139.177 147.64 139.564 147.64 140.026C147.64 140.421 147.533 140.776 147.317 141.091C147.104 141.403 146.813 141.65 146.444 141.83C146.074 142.009 145.654 142.099 145.183 142.099Z" fill="#212529"/>
<line x1="41" y1="185" x2="329" y2="185" stroke="#8E9AAF" stroke-opacity="0.4" stroke-width="2" stroke-linecap="square" stroke-dasharray="8 8"/>
<path d="M45.3608 243H41.3583V230.636H45.4876C46.699 230.636 47.7393 230.884 48.6087 231.379C49.478 231.87 50.1441 232.576 50.6069 233.498C51.0737 234.415 51.3072 235.516 51.3072 236.8C51.3072 238.088 51.0717 239.195 50.6009 240.12C50.134 241.046 49.4579 241.758 48.5724 242.257C47.687 242.752 46.6165 243 45.3608 243ZM43.2237 241.37H45.2582C46.1999 241.37 46.9827 241.193 47.6065 240.839C48.2304 240.481 48.6972 239.963 49.0071 239.287C49.317 238.607 49.4719 237.778 49.4719 236.8C49.4719 235.83 49.317 235.007 49.0071 234.331C48.7012 233.655 48.2444 233.142 47.6367 232.792C47.029 232.441 46.2744 232.266 45.3729 232.266H43.2237V241.37ZM59.3559 239.154V233.727H61.167V243H59.3921V241.394H59.2955C59.0822 241.889 58.7401 242.302 58.2693 242.632C57.8024 242.958 57.2209 243.121 56.5246 243.121C55.9289 243.121 55.4017 242.99 54.9429 242.728C54.4881 242.463 54.1299 242.07 53.8683 241.551C53.6108 241.032 53.482 240.39 53.482 239.625V233.727H55.287V239.408C55.287 240.04 55.4621 240.543 55.8122 240.917C56.1624 241.292 56.6172 241.479 57.1766 241.479C57.5146 241.479 57.8507 241.394 58.1847 241.225C58.5228 241.056 58.8025 240.801 59.0239 240.458C59.2493 240.116 59.3599 239.682 59.3559 239.154ZM67.5888 243.187C66.6752 243.187 65.8884 242.992 65.2283 242.602C64.5723 242.207 64.0652 241.654 63.707 240.941C63.3529 240.225 63.1758 239.386 63.1758 238.424C63.1758 237.474 63.3529 236.637 63.707 235.913C64.0652 235.188 64.5643 234.623 65.2042 234.216C65.8481 233.81 66.6007 233.607 67.462 233.607C67.9852 233.607 68.4923 233.693 68.9833 233.866C69.4743 234.039 69.915 234.311 70.3054 234.681C70.6958 235.051 71.0037 235.532 71.229 236.124C71.4544 236.712 71.5671 237.426 71.5671 238.267V238.907H64.196V237.555H69.7983C69.7983 237.08 69.7017 236.659 69.5085 236.293C69.3153 235.923 69.0437 235.631 68.6935 235.418C68.3474 235.204 67.9409 235.098 67.4741 235.098C66.967 235.098 66.5243 235.222 66.146 235.472C65.7717 235.717 65.4819 236.039 65.2766 236.438C65.0754 236.832 64.9748 237.261 64.9748 237.724V238.78C64.9748 239.4 65.0835 239.927 65.3008 240.362C65.5221 240.797 65.83 241.129 66.2244 241.358C66.6188 241.583 67.0797 241.696 67.6069 241.696C67.949 241.696 68.2609 241.648 68.5426 241.551C68.8243 241.451 69.0678 241.302 69.2731 241.104C69.4783 240.907 69.6353 240.664 69.744 240.374L71.4524 240.682C71.3156 241.185 71.0701 241.626 70.7159 242.004C70.3658 242.378 69.9251 242.67 69.3938 242.879C68.8666 243.085 68.2649 243.187 67.5888 243.187ZM79.8739 237.494V243H78.0689V233.727H79.8015V235.237H79.9162C80.1295 234.746 80.4635 234.351 80.9183 234.053C81.3771 233.755 81.9547 233.607 82.6509 233.607C83.2828 233.607 83.8362 233.739 84.3111 234.005C84.786 234.267 85.1542 234.657 85.4158 235.176C85.6774 235.695 85.8082 236.337 85.8082 237.102V243H84.0032V237.319C84.0032 236.647 83.8281 236.122 83.478 235.744C83.1278 235.361 82.6469 235.17 82.0352 235.17C81.6166 235.17 81.2443 235.261 80.9183 235.442C80.5964 235.623 80.3408 235.888 80.1516 236.239C79.9665 236.585 79.8739 237.003 79.8739 237.494ZM92.1349 243.187C91.2656 243.187 90.507 242.988 89.859 242.589C89.2111 242.191 88.708 241.634 88.3498 240.917C87.9916 240.201 87.8125 239.364 87.8125 238.406C87.8125 237.444 87.9916 236.603 88.3498 235.882C88.708 235.162 89.2111 234.603 89.859 234.204C90.507 233.806 91.2656 233.607 92.1349 233.607C93.0043 233.607 93.7629 233.806 94.4109 234.204C95.0588 234.603 95.5619 235.162 95.9201 235.882C96.2783 236.603 96.4574 237.444 96.4574 238.406C96.4574 239.364 96.2783 240.201 95.9201 240.917C95.5619 241.634 95.0588 242.191 94.4109 242.589C93.7629 242.988 93.0043 243.187 92.1349 243.187ZM92.141 241.672C92.7044 241.672 93.1713 241.523 93.5415 241.225C93.9118 240.927 94.1855 240.531 94.3626 240.036C94.5437 239.541 94.6342 238.996 94.6342 238.4C94.6342 237.808 94.5437 237.265 94.3626 236.77C94.1855 236.271 93.9118 235.87 93.5415 235.569C93.1713 235.267 92.7044 235.116 92.141 235.116C91.5735 235.116 91.1026 235.267 90.7283 235.569C90.3581 235.87 90.0824 236.271 89.9013 236.77C89.7242 237.265 89.6357 237.808 89.6357 238.4C89.6357 238.996 89.7242 239.541 89.9013 240.036C90.0824 240.531 90.3581 240.927 90.7283 241.225C91.1026 241.523 91.5735 241.672 92.141 241.672ZM100.2 243L97.4716 233.727H99.337L101.154 240.537H101.245L103.068 233.727H104.933L106.744 240.507H106.835L108.64 233.727H110.505L107.783 243H105.941L104.058 236.305H103.919L102.036 243H100.2Z" fill="#212529"/>
<path d="M43.3097 254.727V262H42.429V255.651H42.3864L40.6108 256.83V255.935L42.429 254.727H43.3097ZM47.9865 254.386L45.6428 263.094H44.8757L47.2195 254.386H47.9865ZM51.4231 262.099C50.9544 262.099 50.5365 262.019 50.1696 261.858C49.805 261.697 49.515 261.473 49.2995 261.187C49.0865 260.898 48.9705 260.563 48.9515 260.182H49.8464C49.8654 260.416 49.9458 260.619 50.0879 260.789C50.2299 260.957 50.4158 261.087 50.6454 261.18C50.8751 261.272 51.1296 261.318 51.4089 261.318C51.7214 261.318 51.9984 261.264 52.2399 261.155C52.4814 261.046 52.6708 260.894 52.8081 260.7C52.9454 260.506 53.014 260.281 53.014 260.026C53.014 259.758 52.9477 259.522 52.8152 259.319C52.6826 259.113 52.4885 258.952 52.2328 258.836C51.9771 258.72 51.6646 258.662 51.2953 258.662H50.7129V257.881H51.2953C51.5841 257.881 51.8374 257.829 52.0552 257.724C52.2754 257.62 52.447 257.473 52.5701 257.284C52.6956 257.095 52.7583 256.872 52.7583 256.616C52.7583 256.37 52.7039 256.156 52.595 255.974C52.4861 255.791 52.3322 255.649 52.1333 255.548C51.9368 255.446 51.7048 255.395 51.4373 255.395C51.1864 255.395 50.9496 255.441 50.7271 255.533C50.5069 255.623 50.327 255.755 50.1873 255.928C50.0476 256.098 49.9719 256.304 49.96 256.545H49.1078C49.122 256.164 49.2368 255.83 49.4522 255.544C49.6677 255.255 49.9494 255.03 50.2974 254.869C50.6478 254.708 51.0325 254.628 51.4515 254.628C51.9013 254.628 52.2872 254.719 52.6092 254.901C52.9312 255.081 53.1786 255.319 53.3514 255.615C53.5242 255.911 53.6106 256.231 53.6106 256.574C53.6106 256.983 53.5029 257.333 53.2875 257.621C53.0744 257.91 52.7844 258.11 52.4174 258.222V258.278C52.8767 258.354 53.2354 258.549 53.4934 258.864C53.7515 259.177 53.8805 259.564 53.8805 260.026C53.8805 260.421 53.7728 260.776 53.5574 261.091C53.3443 261.403 53.0531 261.65 52.6838 261.83C52.3145 262.009 51.8942 262.099 51.4231 262.099ZM57.9181 254.386L55.5744 263.094H54.8074L57.1511 254.386H57.9181ZM58.8974 262V261.361L61.2979 258.733C61.5797 258.425 61.8117 258.158 61.994 257.93C62.1763 257.701 62.3112 257.485 62.3988 257.284C62.4888 257.08 62.5337 256.867 62.5337 256.645C62.5337 256.389 62.4722 256.168 62.3491 255.981C62.2283 255.794 62.0626 255.649 61.8519 255.548C61.6412 255.446 61.4045 255.395 61.1417 255.395C60.8623 255.395 60.6185 255.453 60.4102 255.569C60.2042 255.683 60.0444 255.842 59.9308 256.048C59.8195 256.254 59.7638 256.496 59.7638 256.773H58.9258C58.9258 256.347 59.024 255.973 59.2205 255.651C59.417 255.329 59.6845 255.078 60.0231 254.898C60.364 254.718 60.7463 254.628 61.1701 254.628C61.5962 254.628 61.9738 254.718 62.3029 254.898C62.632 255.078 62.89 255.32 63.0771 255.626C63.2641 255.931 63.3576 256.271 63.3576 256.645C63.3576 256.912 63.3091 257.174 63.212 257.43C63.1173 257.683 62.9516 257.966 62.7148 258.278C62.4805 258.589 62.1549 258.967 61.7383 259.415L60.1048 261.162V261.219H63.4854V262H58.8974ZM67.3242 262.099C66.7892 262.099 66.3335 261.954 65.957 261.663C65.5806 261.369 65.293 260.944 65.0941 260.388C64.8952 259.829 64.7958 259.154 64.7958 258.364C64.7958 257.578 64.8952 256.906 65.0941 256.35C65.2953 255.791 65.5842 255.365 65.9606 255.072C66.3394 254.776 66.7939 254.628 67.3242 254.628C67.8545 254.628 68.3079 254.776 68.6843 255.072C69.0631 255.365 69.3519 255.791 69.5508 256.35C69.752 256.906 69.8526 257.578 69.8526 258.364C69.8526 259.154 69.7532 259.829 69.5543 260.388C69.3555 260.944 69.0678 261.369 68.6914 261.663C68.315 261.954 67.8593 262.099 67.3242 262.099ZM67.3242 261.318C67.8545 261.318 68.2665 261.062 68.56 260.551C68.8536 260.04 69.0004 259.311 69.0004 258.364C69.0004 257.734 68.9329 257.198 68.7979 256.755C68.6654 256.312 68.4736 255.975 68.2227 255.743C67.9741 255.511 67.6746 255.395 67.3242 255.395C66.7987 255.395 66.3879 255.654 66.092 256.173C65.796 256.689 65.6481 257.419 65.6481 258.364C65.6481 258.993 65.7144 259.528 65.8469 259.969C65.9795 260.409 66.1701 260.744 66.4187 260.974C66.6696 261.203 66.9715 261.318 67.3242 261.318ZM71.2021 262V261.361L73.6026 258.733C73.8844 258.425 74.1164 258.158 74.2987 257.93C74.4809 257.701 74.6159 257.485 74.7035 257.284C74.7934 257.08 74.8384 256.867 74.8384 256.645C74.8384 256.389 74.7769 256.168 74.6538 255.981C74.533 255.794 74.3673 255.649 74.1566 255.548C73.9459 255.446 73.7092 255.395 73.4464 255.395C73.167 255.395 72.9232 255.453 72.7148 255.569C72.5089 255.683 72.3491 255.842 72.2354 256.048C72.1242 256.254 72.0685 256.496 72.0685 256.773H71.2305C71.2305 256.347 71.3287 255.973 71.5252 255.651C71.7217 255.329 71.9892 255.078 72.3278 254.898C72.6687 254.718 73.051 254.628 73.4748 254.628C73.9009 254.628 74.2785 254.718 74.6076 254.898C74.9367 255.078 75.1947 255.32 75.3817 255.626C75.5688 255.931 75.6623 256.271 75.6623 256.645C75.6623 256.912 75.6138 257.174 75.5167 257.43C75.422 257.683 75.2563 257.966 75.0195 258.278C74.7852 258.589 74.4596 258.967 74.043 259.415L72.4094 261.162V261.219H75.7901V262H71.2021ZM79.7141 262.099C79.2454 262.099 78.8275 262.019 78.4606 261.858C78.096 261.697 77.806 261.473 77.5906 261.187C77.3775 260.898 77.2615 260.563 77.2425 260.182H78.1374C78.1564 260.416 78.2369 260.619 78.3789 260.789C78.521 260.957 78.7068 261.087 78.9364 261.18C79.1661 261.272 79.4206 261.318 79.6999 261.318C80.0124 261.318 80.2894 261.264 80.5309 261.155C80.7724 261.046 80.9618 260.894 81.0991 260.7C81.2364 260.506 81.305 260.281 81.305 260.026C81.305 259.758 81.2388 259.522 81.1062 259.319C80.9736 259.113 80.7795 258.952 80.5238 258.836C80.2681 258.72 79.9556 258.662 79.5863 258.662H79.0039V257.881H79.5863C79.8751 257.881 80.1284 257.829 80.3462 257.724C80.5664 257.62 80.738 257.473 80.8612 257.284C80.9866 257.095 81.0494 256.872 81.0494 256.616C81.0494 256.37 80.9949 256.156 80.886 255.974C80.7771 255.791 80.6232 255.649 80.4244 255.548C80.2279 255.446 79.9959 255.395 79.7283 255.395C79.4774 255.395 79.2406 255.441 79.0181 255.533C78.7979 255.623 78.618 255.755 78.4783 255.928C78.3387 256.098 78.2629 256.304 78.2511 256.545H77.3988C77.413 256.164 77.5278 255.83 77.7433 255.544C77.9587 255.255 78.2404 255.03 78.5884 254.869C78.9388 254.708 79.3235 254.628 79.7425 254.628C80.1924 254.628 80.5782 254.719 80.9002 254.901C81.2222 255.081 81.4696 255.319 81.6424 255.615C81.8152 255.911 81.9016 256.231 81.9016 256.574C81.9016 256.983 81.7939 257.333 81.5785 257.621C81.3654 257.91 81.0754 258.11 80.7085 258.222V258.278C81.1677 258.354 81.5264 258.549 81.7844 258.864C82.0425 259.177 82.1715 259.564 82.1715 260.026C82.1715 260.421 82.0638 260.776 81.8484 261.091C81.6353 261.403 81.3441 261.65 80.9748 261.83C80.6055 262.009 80.1853 262.099 79.7141 262.099ZM89.5756 257.973V258.754H86.3938V257.973H89.5756ZM96.4054 254.727V262H95.5247V255.651H95.4821L93.7065 256.83V255.935L95.5247 254.727H96.4054ZM100.77 262.099C100.353 262.099 99.9778 262.017 99.644 261.851C99.3102 261.685 99.0427 261.458 98.8414 261.169C98.6402 260.88 98.5301 260.551 98.5112 260.182H99.3635C99.3966 260.511 99.5458 260.783 99.8109 260.999C100.078 261.212 100.398 261.318 100.77 261.318C101.068 261.318 101.333 261.248 101.565 261.109C101.8 260.969 101.983 260.777 102.116 260.533C102.251 260.287 102.318 260.009 102.318 259.699C102.318 259.382 102.248 259.099 102.108 258.85C101.971 258.599 101.782 258.402 101.54 258.257C101.299 258.113 101.023 258.039 100.713 258.037C100.49 258.035 100.262 258.069 100.028 258.14C99.7931 258.209 99.6002 258.297 99.4487 258.406L98.6248 258.307L99.0652 254.727H102.844V255.509H99.8038L99.5481 257.653H99.5907C99.7399 257.535 99.9269 257.437 100.152 257.359C100.377 257.281 100.611 257.241 100.855 257.241C101.3 257.241 101.697 257.348 102.045 257.561C102.395 257.772 102.67 258.061 102.868 258.428C103.07 258.795 103.17 259.214 103.17 259.685C103.17 260.149 103.066 260.563 102.858 260.928C102.652 261.29 102.368 261.576 102.006 261.787C101.643 261.995 101.231 262.099 100.77 262.099ZM107.166 254.386L104.822 263.094H104.055L106.399 254.386H107.166ZM110.603 262.099C110.134 262.099 109.716 262.019 109.349 261.858C108.985 261.697 108.695 261.473 108.479 261.187C108.266 260.898 108.15 260.563 108.131 260.182H109.026C109.045 260.416 109.126 260.619 109.268 260.789C109.41 260.957 109.595 261.087 109.825 261.18C110.055 261.272 110.309 261.318 110.589 261.318C110.901 261.318 111.178 261.264 111.42 261.155C111.661 261.046 111.85 260.894 111.988 260.7C112.125 260.506 112.194 260.281 112.194 260.026C112.194 259.758 112.127 259.522 111.995 259.319C111.862 259.113 111.668 258.952 111.412 258.836C111.157 258.72 110.844 258.662 110.475 258.662H109.893V257.881H110.475C110.764 257.881 111.017 257.829 111.235 257.724C111.455 257.62 111.627 257.473 111.75 257.284C111.875 257.095 111.938 256.872 111.938 256.616C111.938 256.37 111.884 256.156 111.775 255.974C111.666 255.791 111.512 255.649 111.313 255.548C111.117 255.446 110.885 255.395 110.617 255.395C110.366 255.395 110.129 255.441 109.907 255.533C109.687 255.623 109.507 255.755 109.367 255.928C109.227 256.098 109.152 256.304 109.14 256.545H108.287C108.302 256.164 108.416 255.83 108.632 255.544C108.847 255.255 109.129 255.03 109.477 254.869C109.827 254.708 110.212 254.628 110.631 254.628C111.081 254.628 111.467 254.719 111.789 254.901C112.111 255.081 112.358 255.319 112.531 255.615C112.704 255.911 112.79 256.231 112.79 256.574C112.79 256.983 112.683 257.333 112.467 257.621C112.254 257.91 111.964 258.11 111.597 258.222V258.278C112.056 258.354 112.415 258.549 112.673 258.864C112.931 259.177 113.06 259.564 113.06 260.026C113.06 260.421 112.952 260.776 112.737 261.091C112.524 261.403 112.233 261.65 111.863 261.83C111.494 262.009 111.074 262.099 110.603 262.099ZM117.098 254.386L114.754 263.094H113.987L116.331 254.386H117.098ZM118.077 262V261.361L120.478 258.733C120.759 258.425 120.991 258.158 121.174 257.93C121.356 257.701 121.491 257.485 121.578 257.284C121.668 257.08 121.713 256.867 121.713 256.645C121.713 256.389 121.652 256.168 121.529 255.981C121.408 255.794 121.242 255.649 121.032 255.548C120.821 255.446 120.584 255.395 120.321 255.395C120.042 255.395 119.798 255.453 119.59 255.569C119.384 255.683 119.224 255.842 119.11 256.048C118.999 256.254 118.944 256.496 118.944 256.773H118.105C118.105 256.347 118.204 255.973 118.4 255.651C118.597 255.329 118.864 255.078 119.203 254.898C119.544 254.718 119.926 254.628 120.35 254.628C120.776 254.628 121.154 254.718 121.483 254.898C121.812 255.078 122.07 255.32 122.257 255.626C122.444 255.931 122.537 256.271 122.537 256.645C122.537 256.912 122.489 257.174 122.392 257.43C122.297 257.683 122.131 257.966 121.895 258.278C121.66 258.589 121.335 258.967 120.918 259.415L119.284 261.162V261.219H122.665V262H118.077ZM126.504 262.099C125.969 262.099 125.513 261.954 125.137 261.663C124.76 261.369 124.473 260.944 124.274 260.388C124.075 259.829 123.975 259.154 123.975 258.364C123.975 257.578 124.075 256.906 124.274 256.35C124.475 255.791 124.764 255.365 125.14 255.072C125.519 254.776 125.974 254.628 126.504 254.628C127.034 254.628 127.488 254.776 127.864 255.072C128.243 255.365 128.532 255.791 128.73 256.35C128.932 256.906 129.032 257.578 129.032 258.364C129.032 259.154 128.933 259.829 128.734 260.388C128.535 260.944 128.248 261.369 127.871 261.663C127.495 261.954 127.039 262.099 126.504 262.099ZM126.504 261.318C127.034 261.318 127.446 261.062 127.74 260.551C128.033 260.04 128.18 259.311 128.18 258.364C128.18 257.734 128.113 257.198 127.978 256.755C127.845 256.312 127.653 255.975 127.402 255.743C127.154 255.511 126.854 255.395 126.504 255.395C125.978 255.395 125.568 255.654 125.272 256.173C124.976 256.689 124.828 257.419 124.828 258.364C124.828 258.993 124.894 259.528 125.027 259.969C125.159 260.409 125.35 260.744 125.598 260.974C125.849 261.203 126.151 261.318 126.504 261.318ZM130.382 262V261.361L132.782 258.733C133.064 258.425 133.296 258.158 133.478 257.93C133.661 257.701 133.796 257.485 133.883 257.284C133.973 257.08 134.018 256.867 134.018 256.645C134.018 256.389 133.957 256.168 133.833 255.981C133.713 255.794 133.547 255.649 133.336 255.548C133.126 255.446 132.889 255.395 132.626 255.395C132.347 255.395 132.103 255.453 131.895 255.569C131.689 255.683 131.529 255.842 131.415 256.048C131.304 256.254 131.248 256.496 131.248 256.773H130.41C130.41 256.347 130.508 255.973 130.705 255.651C130.901 255.329 131.169 255.078 131.507 254.898C131.848 254.718 132.231 254.628 132.654 254.628C133.081 254.628 133.458 254.718 133.787 254.898C134.116 255.078 134.374 255.32 134.561 255.626C134.748 255.931 134.842 256.271 134.842 256.645C134.842 256.912 134.793 257.174 134.696 257.43C134.602 257.683 134.436 257.966 134.199 258.278C133.965 258.589 133.639 258.967 133.223 259.415L131.589 261.162V261.219H134.97V262H130.382ZM138.894 262.099C138.425 262.099 138.007 262.019 137.64 261.858C137.276 261.697 136.986 261.473 136.77 261.187C136.557 260.898 136.441 260.563 136.422 260.182H137.317C137.336 260.416 137.417 260.619 137.559 260.789C137.701 260.957 137.886 261.087 138.116 261.18C138.346 261.272 138.6 261.318 138.88 261.318C139.192 261.318 139.469 261.264 139.711 261.155C139.952 261.046 140.141 260.894 140.279 260.7C140.416 260.506 140.485 260.281 140.485 260.026C140.485 259.758 140.418 259.522 140.286 259.319C140.153 259.113 139.959 258.952 139.703 258.836C139.448 258.72 139.135 258.662 138.766 258.662H138.184V257.881H138.766C139.055 257.881 139.308 257.829 139.526 257.724C139.746 257.62 139.918 257.473 140.041 257.284C140.166 257.095 140.229 256.872 140.229 256.616C140.229 256.37 140.175 256.156 140.066 255.974C139.957 255.791 139.803 255.649 139.604 255.548C139.408 255.446 139.176 255.395 138.908 255.395C138.657 255.395 138.42 255.441 138.198 255.533C137.978 255.623 137.798 255.755 137.658 255.928C137.518 256.098 137.443 256.304 137.431 256.545H136.578C136.593 256.164 136.708 255.83 136.923 255.544C137.138 255.255 137.42 255.03 137.768 254.869C138.118 254.708 138.503 254.628 138.922 254.628C139.372 254.628 139.758 254.719 140.08 254.901C140.402 255.081 140.649 255.319 140.822 255.615C140.995 255.911 141.081 256.231 141.081 256.574C141.081 256.983 140.974 257.333 140.758 257.621C140.545 257.91 140.255 258.11 139.888 258.222V258.278C140.347 258.354 140.706 258.549 140.964 258.864C141.222 259.177 141.351 259.564 141.351 260.026C141.351 260.421 141.243 260.776 141.028 261.091C140.815 261.403 140.524 261.65 140.154 261.83C139.785 262.009 139.365 262.099 138.894 262.099Z" fill="#212529"/>
<path d="M51.6996 307.543C49.6229 307.535 47.8359 307.024 46.3388 306.01C44.8497 304.996 43.7027 303.527 42.8977 301.603C42.1009 299.679 41.7064 297.365 41.7145 294.661C41.7145 291.964 42.1129 289.666 42.9098 287.766C43.7147 285.867 44.8617 284.422 46.3509 283.432C47.848 282.434 49.6309 281.935 51.6996 281.935C53.7682 281.935 55.5471 282.434 57.0362 283.432C58.5334 284.43 59.6844 285.879 60.4893 287.778C61.2943 289.67 61.6927 291.964 61.6847 294.661C61.6847 297.373 61.2822 299.691 60.4773 301.615C59.6804 303.539 58.5374 305.008 57.0483 306.022C55.5592 307.036 53.7763 307.543 51.6996 307.543ZM51.6996 303.209C53.1162 303.209 54.2472 302.496 55.0923 301.072C55.9375 299.647 56.3561 297.51 56.348 294.661C56.348 292.785 56.1548 291.223 55.7685 289.976C55.3902 288.728 54.8509 287.79 54.1506 287.163C53.4583 286.535 52.6413 286.221 51.6996 286.221C50.291 286.221 49.1641 286.925 48.3189 288.334C47.4737 289.742 47.0471 291.851 47.0391 294.661C47.0391 296.56 47.2282 298.146 47.6065 299.418C47.9929 300.681 48.5362 301.631 49.2365 302.267C49.9368 302.895 50.7578 303.209 51.6996 303.209ZM76.8512 294.818L73.1012 308.75H71.5842L75.3342 294.818H76.8512ZM82.5288 307V298.273H84.1594V299.693H84.2674C84.4492 299.212 84.7466 298.837 85.1594 298.568C85.5723 298.295 86.0666 298.159 86.6424 298.159C87.2257 298.159 87.7144 298.295 88.1083 298.568C88.506 298.841 88.7996 299.216 88.989 299.693H89.0799C89.2882 299.227 89.6197 298.856 90.0742 298.58C90.5288 298.299 91.0704 298.159 91.6992 298.159C92.4909 298.159 93.1367 298.407 93.6367 298.903C94.1405 299.4 94.3924 300.148 94.3924 301.148V307H92.6935V301.307C92.6935 300.716 92.5326 300.288 92.2106 300.023C91.8886 299.758 91.5041 299.625 91.0572 299.625C90.5041 299.625 90.0742 299.795 89.7674 300.136C89.4606 300.473 89.3072 300.907 89.3072 301.438V307H87.614V301.199C87.614 300.725 87.4663 300.345 87.1708 300.057C86.8754 299.769 86.4909 299.625 86.0174 299.625C85.6954 299.625 85.3981 299.71 85.1254 299.881C84.8564 300.047 84.6386 300.28 84.4719 300.58C84.3091 300.879 84.2276 301.225 84.2276 301.619V307H82.5288ZM100.346 307.176C99.5273 307.176 98.8133 306.989 98.2035 306.614C97.5936 306.239 97.1201 305.714 96.783 305.04C96.4459 304.366 96.2773 303.578 96.2773 302.676C96.2773 301.771 96.4459 300.979 96.783 300.301C97.1201 299.623 97.5936 299.097 98.2035 298.722C98.8133 298.347 99.5273 298.159 100.346 298.159C101.164 298.159 101.878 298.347 102.488 298.722C103.097 299.097 103.571 299.623 103.908 300.301C104.245 300.979 104.414 301.771 104.414 302.676C104.414 303.578 104.245 304.366 103.908 305.04C103.571 305.714 103.097 306.239 102.488 306.614C101.878 306.989 101.164 307.176 100.346 307.176ZM100.351 305.75C100.882 305.75 101.321 305.61 101.669 305.33C102.018 305.049 102.275 304.676 102.442 304.21C102.613 303.744 102.698 303.231 102.698 302.67C102.698 302.114 102.613 301.602 102.442 301.136C102.275 300.667 102.018 300.29 101.669 300.006C101.321 299.722 100.882 299.58 100.351 299.58C99.8171 299.58 99.3739 299.722 99.0217 300.006C98.6732 300.29 98.4137 300.667 98.2433 301.136C98.0766 301.602 97.9933 302.114 97.9933 302.67C97.9933 303.231 98.0766 303.744 98.2433 304.21C98.4137 304.676 98.6732 305.049 99.0217 305.33C99.3739 305.61 99.8171 305.75 100.351 305.75ZM108.009 301.818V307H106.31V298.273H107.941V299.693H108.049C108.249 299.231 108.564 298.86 108.992 298.58C109.424 298.299 109.967 298.159 110.623 298.159C111.217 298.159 111.738 298.284 112.185 298.534C112.632 298.78 112.979 299.148 113.225 299.636C113.471 300.125 113.594 300.729 113.594 301.449V307H111.895V301.653C111.895 301.021 111.73 300.527 111.401 300.17C111.071 299.811 110.619 299.631 110.043 299.631C109.649 299.631 109.299 299.716 108.992 299.886C108.689 300.057 108.448 300.307 108.27 300.636C108.096 300.962 108.009 301.356 108.009 301.818ZM119.946 298.273V299.636H115.179V298.273H119.946ZM116.458 296.182H118.157V304.438C118.157 304.767 118.206 305.015 118.304 305.182C118.403 305.345 118.53 305.456 118.685 305.517C118.844 305.574 119.016 305.602 119.202 305.602C119.338 305.602 119.458 305.593 119.56 305.574C119.662 305.555 119.742 305.54 119.799 305.528L120.105 306.932C120.007 306.97 119.867 307.008 119.685 307.045C119.503 307.087 119.276 307.11 119.003 307.114C118.556 307.121 118.14 307.042 117.753 306.875C117.367 306.708 117.054 306.451 116.816 306.102C116.577 305.754 116.458 305.316 116.458 304.79V296.182ZM123.712 301.818V307H122.013V295.364H123.689V299.693H123.797C124.002 299.223 124.314 298.85 124.735 298.574C125.155 298.297 125.704 298.159 126.382 298.159C126.981 298.159 127.504 298.282 127.951 298.528C128.401 298.775 128.75 299.142 128.996 299.631C129.246 300.116 129.371 300.722 129.371 301.449V307H127.672V301.653C127.672 301.013 127.507 300.517 127.178 300.165C126.848 299.809 126.39 299.631 125.803 299.631C125.401 299.631 125.042 299.716 124.723 299.886C124.409 300.057 124.161 300.307 123.979 300.636C123.801 300.962 123.712 301.356 123.712 301.818Z" fill="#212529"/>
</svg>
