<svg width="40" height="41" viewBox="0 0 40 41" fill="none" xmlns="http://www.w3.org/2000/svg">
<mask id="mask0_218_2428" style="mask-type:luminance" maskUnits="userSpaceOnUse" x="5" y="15" width="30" height="11">
<path d="M20.5044 18.7961C20.4884 20.1081 21.6724 20.8441 22.5684 21.2761C23.4884 21.7241 23.7924 22.0121 23.7924 22.4121C23.7844 23.0281 23.0564 23.2921 22.3764 23.3081C21.1924 23.3241 20.5044 22.9881 19.9524 22.7321L19.5284 24.7321C20.0804 24.9881 21.0964 25.2041 22.1524 25.2201C24.6324 25.2201 26.2484 23.9961 26.2564 22.1001C26.2644 19.6921 22.9284 19.5561 22.9524 18.4841C22.9604 18.1561 23.2724 17.8121 23.9524 17.7241C24.2884 17.6761 25.2244 17.6441 26.2804 18.1321L26.6964 16.1961C26.1284 15.9881 25.4004 15.7881 24.4884 15.7881C22.1524 15.7881 20.5124 17.0281 20.5044 18.7961ZM30.6804 15.9481C30.2244 15.9481 29.8484 16.2121 29.6804 16.6201L26.1444 25.0681H28.6244L29.1204 23.7081H32.1444L32.4324 25.0681H34.6164L32.7124 15.9481H30.6804M31.0244 18.4121L31.7364 21.8361H29.7764L31.0244 18.4121ZM17.4964 15.9481L15.5444 25.0681H17.9044L19.8564 15.9481H17.4964M14.0084 15.9481L11.5524 22.1561L10.5604 16.8761C10.4404 16.2841 9.98439 15.9481 9.47239 15.9481H5.45639L5.40039 16.2121C6.22439 16.3881 7.16039 16.6761 7.72839 16.9881C8.07239 17.1801 8.17639 17.3401 8.28839 17.7881L10.1684 25.0681H12.6644L16.4884 15.9481H14.0084" fill="white"/>
</mask>
<g mask="url(#mask0_218_2428)">
<path d="M2.34473 16.9082L31.1127 6.31616L37.6567 24.0922L8.88873 34.6842" fill="url(#paint0_linear_218_2428)"/>
</g>
<defs>
<linearGradient id="paint0_linear_218_2428" x1="8.03929" y1="24.9055" x2="32.6476" y2="15.8428" gradientUnits="userSpaceOnUse">
<stop stop-color="#222357"/>
<stop offset="1" stop-color="#254AA5"/>
</linearGradient>
</defs>
</svg>
