<svg width="259" height="138" viewBox="0 0 259 138" fill="none" xmlns="http://www.w3.org/2000/svg">
<rect x="1.5" y="10" width="256" height="126" rx="6.5" stroke="#E9ECEF" stroke-width="3"/>
<g filter="url(#filter0_d_218_2411)">
<path d="M38.376 68.9033V74.9531H35.1768V68.9033H38.376ZM37.9863 102.393V107.909H34.7871V102.393H37.9863ZM40.2422 95.666C40.2422 94.8867 40.0986 94.2236 39.8115 93.6768C39.5381 93.1299 39.0869 92.6445 38.458 92.2207C37.8428 91.7969 37.0088 91.3867 35.9561 90.9902C34.1787 90.3066 32.6133 89.582 31.2598 88.8164C29.9199 88.0371 28.874 87.0732 28.1221 85.9248C27.3701 84.7627 26.9941 83.293 26.9941 81.5156C26.9941 79.8203 27.3975 78.3506 28.2041 77.1064C29.0107 75.8623 30.125 74.9053 31.5469 74.2354C32.9824 73.5518 34.6504 73.21 36.5508 73.21C38 73.21 39.3125 73.4287 40.4883 73.8662C41.6641 74.29 42.6758 74.9189 43.5234 75.7529C44.3711 76.5732 45.0205 77.5781 45.4717 78.7676C45.9229 79.957 46.1484 81.3174 46.1484 82.8486H40.2627C40.2627 82.0283 40.1738 81.3037 39.9961 80.6748C39.8184 80.0459 39.5586 79.5195 39.2168 79.0957C38.8887 78.6719 38.4922 78.3574 38.0273 78.1523C37.5625 77.9336 37.0498 77.8242 36.4893 77.8242C35.6553 77.8242 34.9717 77.9883 34.4385 78.3164C33.9053 78.6445 33.5156 79.0889 33.2695 79.6494C33.0371 80.1963 32.9209 80.8252 32.9209 81.5361C32.9209 82.2334 33.0439 82.8418 33.29 83.3613C33.5498 83.8809 33.9941 84.3594 34.623 84.7969C35.252 85.2207 36.1133 85.6582 37.207 86.1094C38.9844 86.793 40.543 87.5312 41.8828 88.3242C43.2227 89.1172 44.2686 90.0879 45.0205 91.2363C45.7725 92.3848 46.1484 93.8477 46.1484 95.625C46.1484 97.3887 45.7383 98.8926 44.918 100.137C44.0977 101.367 42.9492 102.311 41.4727 102.967C39.9961 103.609 38.2871 103.931 36.3457 103.931C35.0879 103.931 33.8369 103.767 32.5928 103.438C31.3486 103.097 30.2207 102.55 29.209 101.798C28.1973 101.046 27.3906 100.048 26.7891 98.8037C26.1875 97.5459 25.8867 96.001 25.8867 94.1689H31.793C31.793 95.167 31.9229 96.001 32.1826 96.6709C32.4424 97.3271 32.7842 97.8535 33.208 98.25C33.6455 98.6328 34.1377 98.9062 34.6846 99.0703C35.2314 99.2344 35.7852 99.3164 36.3457 99.3164C37.2207 99.3164 37.9385 99.1592 38.499 98.8447C39.0732 98.5303 39.5039 98.0996 39.791 97.5527C40.0918 96.9922 40.2422 96.3633 40.2422 95.666ZM70.4502 73.6406V76.8193L58.9043 103.5H52.6699L64.2158 78.2549H49.3477V73.6406H70.4502ZM95.2031 92.3438V96.9785H73.6904L73.4033 93.3896L85.8516 73.6406H90.5479L85.4619 82.1514L79.2686 92.3438H95.2031ZM91.8193 73.6406V103.5H85.9131V73.6406H91.8193ZM103.96 89.9033L99.2432 88.7754L100.945 73.6406H117.721V78.4189H105.806L105.067 85.043C105.464 84.8105 106.065 84.5645 106.872 84.3047C107.679 84.0312 108.581 83.8945 109.579 83.8945C111.028 83.8945 112.313 84.1201 113.435 84.5713C114.556 85.0225 115.506 85.6787 116.285 86.54C117.078 87.4014 117.68 88.4541 118.09 89.6982C118.5 90.9424 118.705 92.3506 118.705 93.9229C118.705 95.249 118.5 96.5137 118.09 97.7168C117.68 98.9062 117.058 99.9727 116.224 100.916C115.39 101.846 114.344 102.577 113.086 103.11C111.828 103.644 110.338 103.91 108.615 103.91C107.33 103.91 106.086 103.719 104.883 103.336C103.693 102.953 102.62 102.386 101.663 101.634C100.72 100.882 99.9609 99.9727 99.3867 98.9062C98.8262 97.8262 98.5322 96.5957 98.5049 95.2148H104.37C104.452 96.0625 104.671 96.7939 105.026 97.4092C105.396 98.0107 105.881 98.4756 106.482 98.8037C107.084 99.1318 107.788 99.2959 108.595 99.2959C109.347 99.2959 109.989 99.1523 110.522 98.8652C111.056 98.5781 111.486 98.1816 111.814 97.6758C112.143 97.1562 112.382 96.5547 112.532 95.8711C112.696 95.1738 112.778 94.4219 112.778 93.6152C112.778 92.8086 112.683 92.0771 112.491 91.4209C112.3 90.7646 112.006 90.1973 111.609 89.7188C111.213 89.2402 110.707 88.8711 110.092 88.6113C109.49 88.3516 108.786 88.2217 107.979 88.2217C106.886 88.2217 106.038 88.3926 105.437 88.7344C104.849 89.0762 104.356 89.4658 103.96 89.9033ZM123.053 100.649C123.053 99.7744 123.354 99.043 123.955 98.4551C124.57 97.8672 125.384 97.5732 126.396 97.5732C127.407 97.5732 128.214 97.8672 128.815 98.4551C129.431 99.043 129.738 99.7744 129.738 100.649C129.738 101.524 129.431 102.256 128.815 102.844C128.214 103.432 127.407 103.726 126.396 103.726C125.384 103.726 124.57 103.432 123.955 102.844C123.354 102.256 123.053 101.524 123.053 100.649ZM155.127 98.8857V103.5H134.701V99.5625L144.36 89.2061C145.331 88.126 146.097 87.1758 146.657 86.3555C147.218 85.5215 147.621 84.7764 147.867 84.1201C148.127 83.4502 148.257 82.8145 148.257 82.2129C148.257 81.3105 148.106 80.5381 147.806 79.8955C147.505 79.2393 147.061 78.7334 146.473 78.3779C145.898 78.0225 145.188 77.8447 144.34 77.8447C143.438 77.8447 142.658 78.0635 142.002 78.501C141.359 78.9385 140.867 79.5469 140.525 80.3262C140.197 81.1055 140.033 81.9873 140.033 82.9717H134.106C134.106 81.1943 134.53 79.5674 135.378 78.0908C136.226 76.6006 137.422 75.418 138.967 74.543C140.512 73.6543 142.344 73.21 144.463 73.21C146.555 73.21 148.318 73.5518 149.754 74.2354C151.203 74.9053 152.297 75.876 153.035 77.1475C153.787 78.4053 154.163 79.9092 154.163 81.6592C154.163 82.6436 154.006 83.6074 153.691 84.5508C153.377 85.4805 152.926 86.4102 152.338 87.3398C151.764 88.2559 151.066 89.1855 150.246 90.1289C149.426 91.0723 148.517 92.0498 147.519 93.0615L142.33 98.8857H155.127Z" fill="#013A63"/>
</g>
<g filter="url(#filter1_d_218_2411)">
<path d="M28.4497 41.0532H26.0439V39.79H28.4497C28.8687 39.79 29.2072 39.7223 29.4653 39.5869C29.7235 39.4515 29.9118 39.2653 30.0303 39.0283C30.153 38.7871 30.2144 38.512 30.2144 38.2031C30.2144 37.9111 30.153 37.6382 30.0303 37.3843C29.9118 37.1261 29.7235 36.9188 29.4653 36.7622C29.2072 36.6056 28.8687 36.5273 28.4497 36.5273H26.5327V44.5H24.9395V35.2578H28.4497C29.1649 35.2578 29.7721 35.3848 30.2715 35.6387C30.7751 35.8883 31.158 36.2354 31.4204 36.6797C31.6828 37.1198 31.814 37.6234 31.814 38.1904C31.814 38.7871 31.6828 39.2992 31.4204 39.7266C31.158 40.154 30.7751 40.4819 30.2715 40.7104C29.7721 40.939 29.1649 41.0532 28.4497 41.0532ZM36.8857 43.1226V39.8472C36.8857 39.6017 36.8413 39.3901 36.7524 39.2124C36.6636 39.0347 36.5282 38.8971 36.3462 38.7998C36.1685 38.7025 35.9442 38.6538 35.6733 38.6538C35.4237 38.6538 35.2078 38.6961 35.0259 38.7808C34.8439 38.8654 34.7021 38.9797 34.6006 39.1235C34.499 39.2674 34.4482 39.4303 34.4482 39.6123H32.9248C32.9248 39.3415 32.9904 39.0791 33.1216 38.8252C33.2528 38.5713 33.4432 38.3449 33.6929 38.146C33.9425 37.9471 34.2409 37.7905 34.5879 37.6763C34.9349 37.562 35.3242 37.5049 35.7559 37.5049C36.2721 37.5049 36.7292 37.5916 37.127 37.7651C37.529 37.9386 37.8442 38.201 38.0728 38.5522C38.3055 38.8993 38.4219 39.3351 38.4219 39.8599V42.9131C38.4219 43.2262 38.443 43.5076 38.4854 43.7573C38.5319 44.0028 38.5975 44.2165 38.6821 44.3984V44.5H37.1143C37.0423 44.335 36.9852 44.1255 36.9429 43.8716C36.9048 43.6134 36.8857 43.3638 36.8857 43.1226ZM37.1079 40.3232L37.1206 41.269H36.0225C35.7389 41.269 35.4893 41.2965 35.2734 41.3516C35.0576 41.4023 34.8778 41.4785 34.7339 41.5801C34.59 41.6816 34.4821 41.8044 34.4102 41.9482C34.3382 42.0921 34.3022 42.255 34.3022 42.437C34.3022 42.619 34.3446 42.7861 34.4292 42.9385C34.5138 43.0866 34.6366 43.203 34.7974 43.2876C34.9624 43.3722 35.1613 43.4146 35.394 43.4146C35.7072 43.4146 35.9801 43.3511 36.2129 43.2241C36.4499 43.0929 36.6361 42.9342 36.7715 42.748C36.9069 42.5576 36.9788 42.3778 36.9873 42.2085L37.4824 42.8877C37.4316 43.0612 37.3449 43.2474 37.2222 43.4463C37.0994 43.6452 36.9386 43.8356 36.7397 44.0176C36.5451 44.1953 36.3102 44.3413 36.0352 44.4556C35.7643 44.5698 35.4512 44.627 35.0957 44.627C34.6471 44.627 34.2472 44.5381 33.896 44.3604C33.5448 44.1784 33.2697 43.9351 33.0708 43.6304C32.8719 43.3215 32.7725 42.9723 32.7725 42.583C32.7725 42.2191 32.8402 41.8975 32.9756 41.6182C33.1152 41.3346 33.3184 41.0977 33.585 40.9072C33.8558 40.7168 34.1859 40.5729 34.5752 40.4756C34.9645 40.374 35.4089 40.3232 35.9082 40.3232H37.1079ZM41.9131 43.751L43.7793 37.6318H45.417L42.6621 45.5474C42.5986 45.7166 42.5161 45.9007 42.4146 46.0996C42.313 46.2985 42.1797 46.4868 42.0146 46.6646C41.8538 46.8465 41.6528 46.9925 41.4116 47.1025C41.1704 47.2168 40.8784 47.2739 40.5356 47.2739C40.4002 47.2739 40.269 47.2612 40.1421 47.2358C40.0194 47.2147 39.903 47.1914 39.793 47.166L39.7866 45.998C39.8289 46.0023 39.8797 46.0065 39.939 46.0107C40.0024 46.015 40.0532 46.0171 40.0913 46.0171C40.3452 46.0171 40.5568 45.9854 40.7261 45.9219C40.8953 45.8626 41.0329 45.7653 41.1387 45.6299C41.2487 45.4945 41.3418 45.3125 41.418 45.084L41.9131 43.751ZM40.8594 37.6318L42.4907 42.7734L42.7637 44.3857L41.7036 44.6587L39.209 37.6318H40.8594ZM49.2383 41.1421V40.9961C49.2383 40.501 49.3102 40.0418 49.4541 39.6187C49.598 39.1912 49.8053 38.821 50.0762 38.5078C50.3512 38.1904 50.6855 37.945 51.0791 37.7715C51.4769 37.5938 51.9255 37.5049 52.4248 37.5049C52.9284 37.5049 53.377 37.5938 53.7705 37.7715C54.1683 37.945 54.5047 38.1904 54.7798 38.5078C55.0549 38.821 55.2643 39.1912 55.4082 39.6187C55.5521 40.0418 55.624 40.501 55.624 40.9961V41.1421C55.624 41.6372 55.5521 42.0964 55.4082 42.5195C55.2643 42.9427 55.0549 43.313 54.7798 43.6304C54.5047 43.9435 54.1704 44.189 53.7769 44.3667C53.3833 44.5402 52.9368 44.627 52.4375 44.627C51.9339 44.627 51.4832 44.5402 51.0854 44.3667C50.6919 44.189 50.3576 43.9435 50.0825 43.6304C49.8075 43.313 49.598 42.9427 49.4541 42.5195C49.3102 42.0964 49.2383 41.6372 49.2383 41.1421ZM50.7681 40.9961V41.1421C50.7681 41.451 50.7998 41.743 50.8633 42.0181C50.9268 42.2931 51.0262 42.5343 51.1616 42.7417C51.297 42.9491 51.4705 43.112 51.6821 43.2305C51.8937 43.349 52.1455 43.4082 52.4375 43.4082C52.721 43.4082 52.9665 43.349 53.1738 43.2305C53.3854 43.112 53.5589 42.9491 53.6943 42.7417C53.8298 42.5343 53.9292 42.2931 53.9927 42.0181C54.0604 41.743 54.0942 41.451 54.0942 41.1421V40.9961C54.0942 40.6914 54.0604 40.4036 53.9927 40.1328C53.9292 39.8577 53.8276 39.6144 53.688 39.4028C53.5526 39.1912 53.3791 39.0262 53.1675 38.9077C52.9601 38.785 52.7126 38.7236 52.4248 38.7236C52.137 38.7236 51.8874 38.785 51.6758 38.9077C51.4684 39.0262 51.297 39.1912 51.1616 39.4028C51.0262 39.6144 50.9268 39.8577 50.8633 40.1328C50.7998 40.4036 50.7681 40.6914 50.7681 40.9961ZM58.4233 39.0981V44.5H56.8936V37.6318H58.3345L58.4233 39.0981ZM58.1504 40.812L57.6553 40.8057C57.6595 40.319 57.7272 39.8726 57.8584 39.4663C57.9938 39.0601 58.18 38.7109 58.417 38.4189C58.6582 38.127 58.946 37.9027 59.2803 37.7461C59.6146 37.5853 59.987 37.5049 60.3975 37.5049C60.7275 37.5049 61.0259 37.5514 61.2925 37.6445C61.5633 37.7334 61.7939 37.8794 61.9844 38.0825C62.179 38.2856 62.3271 38.5501 62.4287 38.876C62.5303 39.1976 62.5811 39.5933 62.5811 40.063V44.5H61.0449V40.0566C61.0449 39.7266 60.9963 39.4663 60.8989 39.2759C60.8058 39.0812 60.6683 38.9437 60.4863 38.8633C60.3086 38.7786 60.0864 38.7363 59.8198 38.7363C59.5575 38.7363 59.3226 38.7913 59.1152 38.9014C58.9079 39.0114 58.7323 39.1616 58.5884 39.3521C58.4487 39.5425 58.3408 39.7625 58.2646 40.0122C58.1885 40.2619 58.1504 40.5285 58.1504 40.812ZM67.1704 44.627C66.6626 44.627 66.2035 44.5444 65.793 44.3794C65.3867 44.2101 65.0397 43.9753 64.752 43.6748C64.4684 43.3743 64.2505 43.021 64.0981 42.6147C63.9458 42.2085 63.8696 41.7705 63.8696 41.3008V41.0469C63.8696 40.5094 63.9479 40.0228 64.1045 39.5869C64.2611 39.151 64.479 38.7786 64.7583 38.4697C65.0376 38.1566 65.3677 37.9175 65.7485 37.7524C66.1294 37.5874 66.542 37.5049 66.9863 37.5049C67.4772 37.5049 67.9067 37.5874 68.2749 37.7524C68.6431 37.9175 68.9478 38.1502 69.189 38.4507C69.4344 38.7469 69.6164 39.1003 69.7349 39.5107C69.8576 39.9212 69.9189 40.374 69.9189 40.8691V41.5229H64.6123V40.4248H68.4082V40.3042C68.3997 40.0291 68.3447 39.771 68.2432 39.5298C68.1458 39.2886 67.9956 39.0939 67.7925 38.9458C67.5894 38.7977 67.3185 38.7236 66.98 38.7236C66.7261 38.7236 66.4997 38.7786 66.3008 38.8887C66.1061 38.9945 65.9432 39.1489 65.812 39.3521C65.6808 39.5552 65.5793 39.8006 65.5073 40.0884C65.4396 40.3719 65.4058 40.6914 65.4058 41.0469V41.3008C65.4058 41.6012 65.446 41.8805 65.5264 42.1387C65.611 42.3926 65.7337 42.6147 65.8945 42.8052C66.0553 42.9956 66.25 43.1458 66.4785 43.2559C66.707 43.3617 66.9673 43.4146 67.2593 43.4146C67.6274 43.4146 67.9554 43.3405 68.2432 43.1924C68.5309 43.0443 68.7806 42.8348 68.9922 42.564L69.7983 43.3447C69.6502 43.5605 69.4577 43.7679 69.2207 43.9668C68.9837 44.1615 68.6938 44.3201 68.3511 44.4429C68.0125 44.5656 67.619 44.627 67.1704 44.627ZM77.498 37.6318V38.749H73.626V37.6318H77.498ZM74.7432 35.9497H76.2729V42.6021C76.2729 42.8136 76.3026 42.9766 76.3618 43.0908C76.4253 43.2008 76.512 43.2749 76.6221 43.313C76.7321 43.3511 76.8612 43.3701 77.0093 43.3701C77.1151 43.3701 77.2166 43.3638 77.314 43.3511C77.4113 43.3384 77.4896 43.3257 77.5488 43.313L77.5552 44.481C77.4282 44.519 77.2801 44.5529 77.1108 44.5825C76.9458 44.6121 76.7554 44.627 76.5396 44.627C76.1883 44.627 75.8773 44.5656 75.6064 44.4429C75.3356 44.3159 75.124 44.1107 74.9717 43.8271C74.8193 43.5436 74.7432 43.167 74.7432 42.6973V35.9497ZM80.3164 37.6318V44.5H78.7803V37.6318H80.3164ZM78.6787 35.8291C78.6787 35.5964 78.7549 35.4038 78.9072 35.2515C79.0638 35.0949 79.2796 35.0166 79.5547 35.0166C79.8255 35.0166 80.0392 35.0949 80.1958 35.2515C80.3524 35.4038 80.4307 35.5964 80.4307 35.8291C80.4307 36.0576 80.3524 36.248 80.1958 36.4004C80.0392 36.5527 79.8255 36.6289 79.5547 36.6289C79.2796 36.6289 79.0638 36.5527 78.9072 36.4004C78.7549 36.248 78.6787 36.0576 78.6787 35.8291ZM83.522 39.0283V44.5H81.9922V37.6318H83.4331L83.522 39.0283ZM83.2744 40.812L82.7539 40.8057C82.7539 40.3317 82.8132 39.8937 82.9316 39.4917C83.0501 39.0897 83.2236 38.7406 83.4521 38.4443C83.6807 38.1439 83.9642 37.9132 84.3027 37.7524C84.6455 37.5874 85.0412 37.5049 85.4897 37.5049C85.8029 37.5049 86.0885 37.5514 86.3467 37.6445C86.609 37.7334 86.8354 37.8752 87.0259 38.0698C87.2205 38.2645 87.3687 38.5142 87.4702 38.8188C87.576 39.1235 87.6289 39.4917 87.6289 39.9233V44.5H86.0991V40.0566C86.0991 39.7223 86.0483 39.46 85.9468 39.2695C85.8494 39.0791 85.7077 38.9437 85.5215 38.8633C85.3395 38.7786 85.1216 38.7363 84.8677 38.7363C84.5799 38.7363 84.3345 38.7913 84.1313 38.9014C83.9325 39.0114 83.7695 39.1616 83.6426 39.3521C83.5156 39.5425 83.4225 39.7625 83.3633 40.0122C83.304 40.2619 83.2744 40.5285 83.2744 40.812ZM87.5337 40.4058L86.8164 40.5645C86.8164 40.1497 86.8735 39.7583 86.9878 39.3901C87.1063 39.0177 87.2777 38.6919 87.502 38.4126C87.7305 38.1291 88.0119 37.9069 88.3462 37.7461C88.6805 37.5853 89.0635 37.5049 89.4951 37.5049C89.8464 37.5049 90.1595 37.5535 90.4346 37.6509C90.7139 37.744 90.9508 37.8921 91.1455 38.0952C91.3402 38.2983 91.4883 38.5628 91.5898 38.8887C91.6914 39.2103 91.7422 39.5996 91.7422 40.0566V44.5H90.2061V40.0503C90.2061 39.7033 90.1553 39.4346 90.0537 39.2441C89.9564 39.0537 89.8167 38.9225 89.6348 38.8506C89.4528 38.7744 89.2349 38.7363 88.981 38.7363C88.744 38.7363 88.5345 38.7808 88.3525 38.8696C88.1748 38.9543 88.0246 39.0749 87.9019 39.2314C87.7791 39.3838 87.686 39.5594 87.6226 39.7583C87.5633 39.9572 87.5337 40.173 87.5337 40.4058ZM96.3442 44.627C95.8364 44.627 95.3773 44.5444 94.9668 44.3794C94.5605 44.2101 94.2135 43.9753 93.9258 43.6748C93.6423 43.3743 93.4243 43.021 93.272 42.6147C93.1196 42.2085 93.0435 41.7705 93.0435 41.3008V41.0469C93.0435 40.5094 93.1217 40.0228 93.2783 39.5869C93.4349 39.151 93.6528 38.7786 93.9321 38.4697C94.2114 38.1566 94.5415 37.9175 94.9224 37.7524C95.3032 37.5874 95.7158 37.5049 96.1602 37.5049C96.651 37.5049 97.0806 37.5874 97.4487 37.7524C97.8169 37.9175 98.1216 38.1502 98.3628 38.4507C98.6082 38.7469 98.7902 39.1003 98.9087 39.5107C99.0314 39.9212 99.0928 40.374 99.0928 40.8691V41.5229H93.7861V40.4248H97.582V40.3042C97.5736 40.0291 97.5186 39.771 97.417 39.5298C97.3197 39.2886 97.1694 39.0939 96.9663 38.9458C96.7632 38.7977 96.4924 38.7236 96.1538 38.7236C95.8999 38.7236 95.6735 38.7786 95.4746 38.8887C95.2799 38.9945 95.117 39.1489 94.9858 39.3521C94.8547 39.5552 94.7531 39.8006 94.6812 40.0884C94.6134 40.3719 94.5796 40.6914 94.5796 41.0469V41.3008C94.5796 41.6012 94.6198 41.8805 94.7002 42.1387C94.7848 42.3926 94.9076 42.6147 95.0684 42.8052C95.2292 42.9956 95.4238 43.1458 95.6523 43.2559C95.8809 43.3617 96.1411 43.4146 96.4331 43.4146C96.8013 43.4146 97.1292 43.3405 97.417 43.1924C97.7048 43.0443 97.9544 42.8348 98.166 42.564L98.9722 43.3447C98.8241 43.5605 98.6315 43.7679 98.3945 43.9668C98.1576 44.1615 97.8677 44.3201 97.5249 44.4429C97.1864 44.5656 96.7928 44.627 96.3442 44.627Z" fill="#013A63"/>
</g>
<g filter="url(#filter2_d_218_2411)">
<path d="M169.729 78.2578L166.238 88.2935H164.962L168.453 78.2578H169.729ZM172.719 86.7383L174.56 80.6318H176.356L173.601 88.541C173.538 88.7103 173.455 88.8944 173.354 89.0933C173.256 89.2922 173.125 89.4805 172.96 89.6582C172.795 89.8402 172.588 89.9883 172.338 90.1025C172.092 90.2168 171.794 90.2739 171.443 90.2739C171.291 90.2739 171.155 90.2633 171.037 90.2422C170.918 90.221 170.793 90.1935 170.662 90.1597V88.9028C170.704 88.9071 170.753 88.9092 170.808 88.9092C170.867 88.9134 170.918 88.9155 170.96 88.9155C171.206 88.9155 171.409 88.8859 171.57 88.8267C171.731 88.7716 171.86 88.6807 171.957 88.5537C172.059 88.431 172.143 88.2702 172.211 88.0713L172.719 86.7383ZM171.811 80.6318L173.366 85.6909L173.639 87.4619L172.484 87.6714L170.002 80.6318H171.811ZM180.165 87.627C179.644 87.627 179.176 87.5423 178.762 87.373C178.347 87.2038 177.994 86.9689 177.702 86.6685C177.414 86.3638 177.192 86.0104 177.035 85.6084C176.883 85.2021 176.807 84.7663 176.807 84.3008V84.0469C176.807 83.5179 176.883 83.0376 177.035 82.606C177.188 82.1701 177.403 81.7956 177.683 81.4824C177.962 81.1693 178.296 80.9281 178.686 80.7588C179.075 80.5895 179.504 80.5049 179.974 80.5049C180.461 80.5049 180.89 80.5874 181.263 80.7524C181.635 80.9132 181.946 81.1418 182.196 81.438C182.445 81.7342 182.634 82.0897 182.761 82.5044C182.888 82.9149 182.951 83.3698 182.951 83.8691V84.5737H177.568V83.4185H181.301V83.2915C181.292 83.0249 181.242 82.7816 181.148 82.5615C181.055 82.3372 180.911 82.1595 180.717 82.0283C180.522 81.8929 180.27 81.8252 179.961 81.8252C179.712 81.8252 179.494 81.8802 179.308 81.9902C179.126 82.096 178.973 82.2484 178.851 82.4473C178.732 82.6419 178.643 82.8747 178.584 83.1455C178.525 83.4163 178.495 83.7168 178.495 84.0469V84.3008C178.495 84.5885 178.533 84.8551 178.609 85.1006C178.69 85.346 178.806 85.5597 178.958 85.7417C179.115 85.9194 179.301 86.0591 179.517 86.1606C179.737 86.258 179.987 86.3066 180.266 86.3066C180.617 86.3066 180.935 86.2389 181.218 86.1035C181.506 85.9639 181.756 85.7586 181.967 85.4878L182.812 86.3638C182.668 86.5754 182.473 86.7785 182.228 86.9731C181.986 87.1678 181.694 87.3265 181.352 87.4492C181.009 87.5677 180.613 87.627 180.165 87.627ZM187.858 86.04V82.8726C187.858 82.6398 187.818 82.4388 187.737 82.2695C187.657 82.1003 187.534 81.9691 187.369 81.876C187.204 81.7829 186.995 81.7363 186.741 81.7363C186.516 81.7363 186.32 81.7744 186.15 81.8506C185.985 81.9268 185.858 82.0347 185.77 82.1743C185.681 82.3097 185.636 82.4663 185.636 82.644H183.954C183.954 82.3605 184.022 82.0918 184.157 81.8379C184.293 81.5798 184.485 81.3512 184.735 81.1523C184.989 80.9492 185.291 80.7905 185.643 80.6763C185.998 80.562 186.396 80.5049 186.836 80.5049C187.356 80.5049 187.82 80.5938 188.226 80.7715C188.637 80.945 188.958 81.2074 189.191 81.5586C189.428 81.9098 189.546 82.3521 189.546 82.8853V85.8813C189.546 86.2241 189.568 86.5182 189.61 86.7637C189.656 87.0049 189.724 87.2144 189.813 87.3921V87.5H188.105C188.025 87.3265 187.964 87.1064 187.921 86.8398C187.879 86.569 187.858 86.3024 187.858 86.04ZM188.093 83.3169L188.105 84.3135H187.045C186.783 84.3135 186.552 84.341 186.354 84.396C186.155 84.4468 185.992 84.5229 185.865 84.6245C185.738 84.7218 185.643 84.8403 185.579 84.98C185.516 85.1154 185.484 85.2699 185.484 85.4434C185.484 85.6126 185.522 85.765 185.598 85.9004C185.679 86.0358 185.793 86.1437 185.941 86.2241C186.093 86.3003 186.271 86.3384 186.474 86.3384C186.77 86.3384 187.028 86.2791 187.249 86.1606C187.469 86.0379 187.64 85.8898 187.763 85.7163C187.885 85.5428 187.951 85.3778 187.959 85.2212L188.442 85.9448C188.383 86.1183 188.294 86.3024 188.175 86.4971C188.057 86.6917 187.904 86.8737 187.718 87.043C187.532 87.2122 187.308 87.3519 187.045 87.4619C186.783 87.5719 186.478 87.627 186.131 87.627C185.687 87.627 185.289 87.5381 184.938 87.3604C184.587 87.1826 184.31 86.9393 184.106 86.6304C183.903 86.3215 183.802 85.9702 183.802 85.5767C183.802 85.2127 183.869 84.8911 184.005 84.6118C184.14 84.3325 184.341 84.0977 184.608 83.9072C184.875 83.7126 185.205 83.5666 185.598 83.4692C185.996 83.3677 186.451 83.3169 186.963 83.3169H188.093ZM192.733 82.0347V87.5H191.057V80.6318H192.644L192.733 82.0347ZM194.821 80.5874L194.796 82.1489C194.703 82.132 194.597 82.1193 194.479 82.1108C194.364 82.1024 194.256 82.0981 194.155 82.0981C193.897 82.0981 193.67 82.1341 193.476 82.2061C193.281 82.2738 193.118 82.3732 192.987 82.5044C192.86 82.6356 192.763 82.7964 192.695 82.9868C192.627 83.173 192.589 83.3846 192.581 83.6216L192.219 83.5771C192.219 83.1413 192.263 82.7371 192.352 82.3647C192.441 81.9924 192.57 81.6665 192.739 81.3872C192.909 81.1079 193.12 80.8921 193.374 80.7397C193.632 80.5832 193.928 80.5049 194.263 80.5049C194.356 80.5049 194.455 80.5133 194.561 80.5303C194.671 80.543 194.758 80.562 194.821 80.5874Z" fill="#013A63"/>
</g>
<g filter="url(#filter3_d_218_2411)">
<path d="M165.799 101.5V94.2273H166.861V96.9297H166.925C166.986 96.8161 167.075 96.6847 167.191 96.5355C167.307 96.3864 167.468 96.2562 167.674 96.1449C167.88 96.0312 168.152 95.9744 168.491 95.9744C168.931 95.9744 169.324 96.0857 169.67 96.3082C170.015 96.5308 170.286 96.8516 170.483 97.2706C170.682 97.6896 170.781 98.1939 170.781 98.7834C170.781 99.3729 170.683 99.8783 170.487 100.3C170.29 100.719 170.02 101.042 169.677 101.269C169.334 101.494 168.942 101.607 168.501 101.607C168.17 101.607 167.899 101.551 167.688 101.44C167.48 101.328 167.317 101.198 167.198 101.049C167.08 100.9 166.989 100.767 166.925 100.651H166.836V101.5H165.799ZM166.839 98.7727C166.839 99.1562 166.895 99.4924 167.006 99.7812C167.118 100.07 167.279 100.296 167.489 100.46C167.7 100.621 167.958 100.701 168.263 100.701C168.581 100.701 168.846 100.617 169.059 100.449C169.272 100.278 169.433 100.048 169.542 99.7564C169.653 99.4652 169.709 99.1373 169.709 98.7727C169.709 98.4129 169.654 98.0897 169.545 97.8033C169.439 97.5168 169.278 97.2907 169.062 97.125C168.849 96.9593 168.583 96.8764 168.263 96.8764C167.956 96.8764 167.695 96.9557 167.482 97.1143C167.272 97.273 167.112 97.4943 167.003 97.7784C166.894 98.0625 166.839 98.3939 166.839 98.7727ZM171.974 101.5V96.0455H173.035V101.5H171.974ZM172.51 95.2038C172.325 95.2038 172.166 95.1423 172.034 95.0192C171.904 94.8937 171.839 94.7446 171.839 94.5717C171.839 94.3965 171.904 94.2474 172.034 94.1243C172.166 93.9988 172.325 93.9361 172.51 93.9361C172.694 93.9361 172.852 93.9988 172.982 94.1243C173.115 94.2474 173.181 94.3965 173.181 94.5717C173.181 94.7446 173.115 94.8937 172.982 95.0192C172.852 95.1423 172.694 95.2038 172.51 95.2038ZM175.526 94.2273V101.5H174.464V94.2273H175.526ZM178.016 94.2273V101.5H176.954V94.2273H178.016ZM181.795 101.61C181.258 101.61 180.795 101.495 180.407 101.266C180.021 101.034 179.722 100.708 179.512 100.289C179.303 99.8677 179.199 99.3741 179.199 98.8082C179.199 98.2495 179.303 97.7571 179.512 97.331C179.722 96.9048 180.016 96.5722 180.392 96.3331C180.771 96.094 181.214 95.9744 181.721 95.9744C182.028 95.9744 182.327 96.0253 182.615 96.1271C182.904 96.2289 183.163 96.3887 183.393 96.6065C183.623 96.8243 183.804 97.1072 183.936 97.4553C184.069 97.8009 184.135 98.2211 184.135 98.7159V99.0923H179.799V98.2969H183.095C183.095 98.0175 183.038 97.7701 182.924 97.5547C182.811 97.3369 182.651 97.1652 182.445 97.0398C182.241 96.9143 182.002 96.8516 181.728 96.8516C181.429 96.8516 181.169 96.925 180.946 97.0717C180.726 97.2161 180.556 97.4055 180.435 97.6399C180.317 97.8719 180.257 98.1241 180.257 98.3963V99.0178C180.257 99.3823 180.321 99.6925 180.449 99.9482C180.579 100.204 180.761 100.399 180.993 100.534C181.225 100.667 181.496 100.733 181.806 100.733C182.007 100.733 182.19 100.705 182.356 100.648C182.522 100.589 182.665 100.501 182.786 100.385C182.907 100.269 182.999 100.126 183.063 99.9553L184.068 100.136C183.987 100.432 183.843 100.692 183.635 100.914C183.429 101.134 183.169 101.306 182.857 101.429C182.547 101.55 182.193 101.61 181.795 101.61ZM187.355 101.607C186.915 101.607 186.522 101.494 186.176 101.269C185.833 101.042 185.563 100.719 185.367 100.3C185.173 99.8783 185.075 99.3729 185.075 98.7834C185.075 98.1939 185.174 97.6896 185.37 97.2706C185.569 96.8516 185.841 96.5308 186.187 96.3082C186.533 96.0857 186.924 95.9744 187.362 95.9744C187.701 95.9744 187.973 96.0312 188.179 96.1449C188.387 96.2562 188.548 96.3864 188.662 96.5355C188.778 96.6847 188.868 96.8161 188.932 96.9297H188.996V94.2273H190.058V101.5H189.021V100.651H188.932C188.868 100.767 188.776 100.9 188.655 101.049C188.537 101.198 188.373 101.328 188.165 101.44C187.957 101.551 187.687 101.607 187.355 101.607ZM187.59 100.701C187.895 100.701 188.153 100.621 188.364 100.46C188.577 100.296 188.738 100.07 188.847 99.7812C188.958 99.4924 189.014 99.1562 189.014 98.7727C189.014 98.3939 188.959 98.0625 188.85 97.7784C188.741 97.4943 188.582 97.273 188.371 97.1143C188.16 96.9557 187.9 96.8764 187.59 96.8764C187.27 96.8764 187.004 96.9593 186.791 97.125C186.578 97.2907 186.417 97.5168 186.308 97.8033C186.201 98.0897 186.148 98.4129 186.148 98.7727C186.148 99.1373 186.202 99.4652 186.311 99.7564C186.42 100.048 186.581 100.278 186.794 100.449C187.01 100.617 187.275 100.701 187.59 100.701ZM196.517 101.61C196.006 101.61 195.56 101.493 195.178 101.259C194.797 101.024 194.501 100.696 194.291 100.275C194.08 99.8535 193.975 99.361 193.975 98.7976C193.975 98.2318 194.08 97.737 194.291 97.3132C194.501 96.8894 194.797 96.5604 195.178 96.326C195.56 96.0916 196.006 95.9744 196.517 95.9744C197.029 95.9744 197.475 96.0916 197.856 96.326C198.237 96.5604 198.533 96.8894 198.744 97.3132C198.954 97.737 199.06 98.2318 199.06 98.7976C199.06 99.361 198.954 99.8535 198.744 100.275C198.533 100.696 198.237 101.024 197.856 101.259C197.475 101.493 197.029 101.61 196.517 101.61ZM196.521 100.719C196.852 100.719 197.127 100.631 197.345 100.456C197.562 100.281 197.723 100.048 197.828 99.7564C197.934 99.4652 197.987 99.1444 197.987 98.794C197.987 98.446 197.934 98.1264 197.828 97.8352C197.723 97.5417 197.562 97.3061 197.345 97.1286C197.127 96.951 196.852 96.8622 196.521 96.8622C196.187 96.8622 195.91 96.951 195.69 97.1286C195.472 97.3061 195.31 97.5417 195.203 97.8352C195.099 98.1264 195.047 98.446 195.047 98.794C195.047 99.1444 195.099 99.4652 195.203 99.7564C195.31 100.048 195.472 100.281 195.69 100.456C195.91 100.631 196.187 100.719 196.521 100.719ZM201.307 98.2614V101.5H200.245V96.0455H201.264V96.9332H201.332C201.457 96.6444 201.654 96.4124 201.921 96.2372C202.191 96.062 202.531 95.9744 202.94 95.9744C203.312 95.9744 203.638 96.0526 203.917 96.2088C204.196 96.3627 204.413 96.5923 204.567 96.8977C204.721 97.2031 204.798 97.5807 204.798 98.0305V101.5H203.736V98.1584C203.736 97.763 203.633 97.4541 203.427 97.2315C203.221 97.0066 202.938 96.8942 202.578 96.8942C202.332 96.8942 202.113 96.9474 201.921 97.054C201.732 97.1605 201.581 97.3168 201.47 97.5227C201.361 97.7263 201.307 97.9725 201.307 98.2614ZM208.572 101.61C208.035 101.61 207.572 101.495 207.184 101.266C206.798 101.034 206.5 100.708 206.289 100.289C206.081 99.8677 205.977 99.3741 205.977 98.8082C205.977 98.2495 206.081 97.7571 206.289 97.331C206.5 96.9048 206.793 96.5722 207.17 96.3331C207.549 96.094 207.991 95.9744 208.498 95.9744C208.806 95.9744 209.104 96.0253 209.393 96.1271C209.682 96.2289 209.941 96.3887 210.17 96.6065C210.4 96.8243 210.581 97.1072 210.714 97.4553C210.846 97.8009 210.913 98.2211 210.913 98.7159V99.0923H206.577V98.2969H209.872C209.872 98.0175 209.815 97.7701 209.702 97.5547C209.588 97.3369 209.428 97.1652 209.222 97.0398C209.019 96.9143 208.78 96.8516 208.505 96.8516C208.207 96.8516 207.946 96.925 207.724 97.0717C207.504 97.2161 207.333 97.4055 207.212 97.6399C207.094 97.8719 207.035 98.1241 207.035 98.3963V99.0178C207.035 99.3823 207.099 99.6925 207.227 99.9482C207.357 100.204 207.538 100.399 207.77 100.534C208.002 100.667 208.273 100.733 208.583 100.733C208.784 100.733 208.968 100.705 209.134 100.648C209.299 100.589 209.442 100.501 209.563 100.385C209.684 100.269 209.776 100.126 209.84 99.9553L210.845 100.136C210.765 100.432 210.62 100.692 210.412 100.914C210.206 101.134 209.947 101.306 209.634 101.429C209.324 101.55 208.97 101.61 208.572 101.61ZM217.283 96.0455V96.8977H214.304V96.0455H217.283ZM215.103 94.7386H216.165V99.8984C216.165 100.104 216.196 100.259 216.257 100.364C216.319 100.465 216.398 100.535 216.495 100.573C216.594 100.609 216.702 100.626 216.818 100.626C216.903 100.626 216.978 100.621 217.042 100.609C217.106 100.597 217.156 100.587 217.191 100.58L217.383 101.457C217.321 101.481 217.234 101.505 217.12 101.528C217.006 101.554 216.864 101.569 216.694 101.571C216.415 101.576 216.154 101.526 215.913 101.422C215.671 101.318 215.476 101.157 215.327 100.939C215.178 100.721 215.103 100.448 215.103 100.119V94.7386ZM218.458 101.5V96.0455H219.52V101.5H218.458ZM218.994 95.2038C218.809 95.2038 218.651 95.1423 218.518 95.0192C218.388 94.8937 218.323 94.7446 218.323 94.5717C218.323 94.3965 218.388 94.2474 218.518 94.1243C218.651 93.9988 218.809 93.9361 218.994 93.9361C219.179 93.9361 219.336 93.9988 219.466 94.1243C219.599 94.2474 219.665 94.3965 219.665 94.5717C219.665 94.7446 219.599 94.8937 219.466 95.0192C219.336 95.1423 219.179 95.2038 218.994 95.2038ZM220.948 101.5V96.0455H221.967V96.9332H222.035C222.148 96.6326 222.334 96.3982 222.592 96.2301C222.85 96.0597 223.159 95.9744 223.519 95.9744C223.884 95.9744 224.189 96.0597 224.435 96.2301C224.684 96.4006 224.867 96.6349 224.986 96.9332H225.043C225.173 96.642 225.38 96.41 225.664 96.2372C225.948 96.062 226.287 95.9744 226.68 95.9744C227.174 95.9744 227.578 96.1295 227.891 96.4396C228.205 96.7498 228.363 97.2173 228.363 97.8423V101.5H227.301V97.9418C227.301 97.5724 227.201 97.3049 226.999 97.1392C226.798 96.9735 226.558 96.8906 226.278 96.8906C225.933 96.8906 225.664 96.9972 225.472 97.2102C225.281 97.4209 225.185 97.692 225.185 98.0234V101.5H224.126V97.8743C224.126 97.5784 224.034 97.3404 223.849 97.1605C223.665 96.9806 223.424 96.8906 223.129 96.8906C222.927 96.8906 222.741 96.9439 222.571 97.0504C222.403 97.1546 222.267 97.3002 222.163 97.4872C222.061 97.6742 222.01 97.8909 222.01 98.1371V101.5H220.948ZM232.137 101.61C231.599 101.61 231.137 101.495 230.748 101.266C230.363 101.034 230.064 100.708 229.854 100.289C229.645 99.8677 229.541 99.3741 229.541 98.8082C229.541 98.2495 229.645 97.7571 229.854 97.331C230.064 96.9048 230.358 96.5722 230.734 96.3331C231.113 96.094 231.556 95.9744 232.062 95.9744C232.37 95.9744 232.668 96.0253 232.957 96.1271C233.246 96.2289 233.505 96.3887 233.735 96.6065C233.965 96.8243 234.146 97.1072 234.278 97.4553C234.411 97.8009 234.477 98.2211 234.477 98.7159V99.0923H230.141V98.2969H233.437C233.437 98.0175 233.38 97.7701 233.266 97.5547C233.153 97.3369 232.993 97.1652 232.787 97.0398C232.583 96.9143 232.344 96.8516 232.069 96.8516C231.771 96.8516 231.511 96.925 231.288 97.0717C231.068 97.2161 230.898 97.4055 230.777 97.6399C230.658 97.8719 230.599 98.1241 230.599 98.3963V99.0178C230.599 99.3823 230.663 99.6925 230.791 99.9482C230.921 100.204 231.102 100.399 231.334 100.534C231.566 100.667 231.837 100.733 232.148 100.733C232.349 100.733 232.532 100.705 232.698 100.648C232.864 100.589 233.007 100.501 233.128 100.385C233.248 100.269 233.341 100.126 233.405 99.9553L234.41 100.136C234.329 100.432 234.185 100.692 233.976 100.914C233.77 101.134 233.511 101.306 233.199 101.429C232.889 101.55 232.535 101.61 232.137 101.61Z" fill="#013A63"/>
</g>
<rect x="164" y="0.5" width="63" height="20" rx="10" fill="#E9ECEF"/>
<path d="M176.577 9.31889C176.549 9.03243 176.427 8.8099 176.212 8.65128C175.996 8.49266 175.704 8.41335 175.335 8.41335C175.084 8.41335 174.872 8.44886 174.699 8.51989C174.526 8.58854 174.393 8.68442 174.301 8.80753C174.211 8.93063 174.166 9.07031 174.166 9.22656C174.161 9.35677 174.189 9.47041 174.248 9.56747C174.309 9.66454 174.393 9.74858 174.5 9.8196C174.607 9.88826 174.73 9.94863 174.869 10.0007C175.009 10.0504 175.158 10.093 175.317 10.1286L175.97 10.2848C176.287 10.3558 176.579 10.4505 176.844 10.5689C177.109 10.6873 177.339 10.8329 177.533 11.0057C177.727 11.1785 177.877 11.3821 177.984 11.6165C178.093 11.8509 178.148 12.1196 178.151 12.4226C178.148 12.8677 178.035 13.2536 177.81 13.5803C177.587 13.9046 177.265 14.1567 176.844 14.3366C176.425 14.5142 175.919 14.603 175.327 14.603C174.74 14.603 174.229 14.513 173.793 14.3331C173.36 14.1532 173.022 13.8868 172.778 13.5341C172.536 13.179 172.41 12.7398 172.398 12.2166H173.886C173.902 12.4605 173.972 12.6641 174.095 12.8274C174.221 12.9884 174.388 13.1103 174.596 13.1932C174.807 13.2737 175.045 13.3139 175.31 13.3139C175.57 13.3139 175.796 13.276 175.988 13.2003C176.182 13.1245 176.332 13.0192 176.439 12.8842C176.545 12.7493 176.599 12.5942 176.599 12.419C176.599 12.2557 176.55 12.1184 176.453 12.0071C176.358 11.8958 176.219 11.8011 176.034 11.723C175.852 11.6449 175.628 11.5739 175.363 11.5099L174.571 11.3111C173.958 11.1619 173.474 10.9287 173.119 10.6115C172.763 10.2943 172.587 9.86695 172.589 9.32955C172.587 8.8892 172.704 8.5045 172.941 8.17543C173.18 7.84635 173.508 7.58949 173.925 7.40483C174.341 7.22017 174.815 7.12784 175.345 7.12784C175.885 7.12784 176.356 7.22017 176.759 7.40483C177.163 7.58949 177.478 7.84635 177.703 8.17543C177.928 8.5045 178.044 8.88565 178.051 9.31889H176.577ZM180.712 14.603C180.364 14.603 180.054 14.5426 179.781 14.4219C179.509 14.2988 179.294 14.1177 179.135 13.8786C178.979 13.6371 178.901 13.3364 178.901 12.9766C178.901 12.6735 178.956 12.419 179.068 12.2131C179.179 12.0071 179.33 11.8414 179.522 11.7159C179.714 11.5904 179.932 11.4957 180.176 11.4318C180.422 11.3679 180.68 11.3229 180.95 11.2969C181.267 11.2637 181.523 11.233 181.717 11.2045C181.911 11.1738 182.052 11.1288 182.139 11.0696C182.227 11.0104 182.271 10.9228 182.271 10.8068V10.7855C182.271 10.5606 182.2 10.3866 182.058 10.2635C181.918 10.1404 181.719 10.0788 181.461 10.0788C181.189 10.0788 180.972 10.1392 180.811 10.2599C180.65 10.3783 180.544 10.5275 180.492 10.7074L179.093 10.5938C179.164 10.2623 179.303 9.97585 179.512 9.73438C179.72 9.49053 179.989 9.3035 180.318 9.1733C180.649 9.04072 181.033 8.97443 181.468 8.97443C181.771 8.97443 182.061 9.00994 182.338 9.08097C182.618 9.15199 182.865 9.26207 183.08 9.41122C183.298 9.56037 183.47 9.75213 183.595 9.98651C183.721 10.2185 183.784 10.4967 183.784 10.821V14.5H182.349V13.7436H182.306C182.219 13.9141 182.102 14.0644 181.955 14.1946C181.808 14.3224 181.632 14.4231 181.426 14.4964C181.22 14.5675 180.982 14.603 180.712 14.603ZM181.145 13.5589C181.368 13.5589 181.564 13.5152 181.735 13.4276C181.905 13.3376 182.039 13.2169 182.136 13.0653C182.233 12.9138 182.281 12.7422 182.281 12.5504V11.9716C182.234 12.0024 182.169 12.0308 182.086 12.0568C182.006 12.0805 181.914 12.103 181.813 12.1243C181.711 12.1432 181.609 12.161 181.507 12.1776C181.405 12.1918 181.313 12.2048 181.23 12.2166C181.053 12.2427 180.898 12.2841 180.765 12.3409C180.633 12.3977 180.53 12.4747 180.456 12.5717C180.383 12.6664 180.346 12.7848 180.346 12.9268C180.346 13.1328 180.421 13.2902 180.57 13.3991C180.721 13.5057 180.913 13.5589 181.145 13.5589ZM189.847 9.04545L187.94 14.5H186.236L184.329 9.04545H185.927L187.059 12.9482H187.116L188.246 9.04545H189.847ZM192.931 14.6065C192.37 14.6065 191.887 14.4929 191.482 14.2656C191.08 14.036 190.77 13.7116 190.552 13.2926C190.334 12.8712 190.225 12.3729 190.225 11.7976C190.225 11.2365 190.334 10.7441 190.552 10.3203C190.77 9.89654 191.076 9.56629 191.472 9.32955C191.869 9.0928 192.336 8.97443 192.871 8.97443C193.231 8.97443 193.566 9.03243 193.876 9.14844C194.188 9.26207 194.461 9.43371 194.693 9.66335C194.927 9.89299 195.109 10.1818 195.24 10.5298C195.37 10.8755 195.435 11.2803 195.435 11.7443V12.1598H190.829V11.2223H194.011C194.011 11.0045 193.963 10.8116 193.869 10.6435C193.774 10.4754 193.643 10.344 193.475 10.2493C193.309 10.1522 193.116 10.1037 192.896 10.1037C192.666 10.1037 192.463 10.157 192.285 10.2635C192.11 10.3677 191.972 10.5085 191.873 10.6861C191.774 10.8613 191.723 11.0566 191.72 11.272V12.1634C191.72 12.4332 191.77 12.6664 191.869 12.8629C191.971 13.0594 192.115 13.2109 192.299 13.3175C192.484 13.424 192.703 13.4773 192.956 13.4773C193.124 13.4773 193.278 13.4536 193.418 13.4062C193.557 13.3589 193.677 13.2879 193.776 13.1932C193.876 13.0985 193.952 12.9825 194.004 12.8452L195.403 12.9375C195.332 13.2737 195.186 13.5672 194.966 13.8182C194.748 14.0668 194.467 14.2609 194.121 14.4006C193.778 14.5379 193.381 14.6065 192.931 14.6065ZM201.886 7.22727V14.5H200.349V8.68679H200.306L198.641 9.73082V8.36719L200.441 7.22727H201.886ZM206.466 14.6598C205.856 14.6574 205.33 14.5071 204.89 14.2088C204.452 13.9105 204.114 13.4785 203.878 12.9126C203.643 12.3468 203.527 11.6662 203.53 10.8707C203.53 10.0777 203.647 9.40175 203.881 8.84304C204.118 8.28433 204.455 7.85937 204.893 7.56818C205.334 7.27462 205.858 7.12784 206.466 7.12784C207.075 7.12784 207.598 7.27462 208.036 7.56818C208.476 7.86174 208.815 8.28788 209.052 8.84659C209.288 9.40294 209.406 10.0777 209.403 10.8707C209.403 11.6686 209.285 12.3504 209.048 12.9162C208.814 13.482 208.478 13.9141 208.04 14.2124C207.602 14.5107 207.077 14.6598 206.466 14.6598ZM206.466 13.3849C206.883 13.3849 207.216 13.1754 207.464 12.7564C207.713 12.3374 207.836 11.7088 207.834 10.8707C207.834 10.3191 207.777 9.85985 207.663 9.4929C207.552 9.12595 207.393 8.85014 207.187 8.66548C206.984 8.48082 206.743 8.38849 206.466 8.38849C206.052 8.38849 205.721 8.59564 205.472 9.00994C205.224 9.42424 205.098 10.0445 205.096 10.8707C205.096 11.4295 205.151 11.8958 205.263 12.2699C205.376 12.6416 205.536 12.9209 205.742 13.108C205.948 13.2926 206.189 13.3849 206.466 13.3849ZM214.48 13.1364V12.7528C214.48 12.4616 214.542 12.1941 214.665 11.9503C214.791 11.7041 214.972 11.5076 215.208 11.3608C215.448 11.2116 215.739 11.1371 216.082 11.1371C216.43 11.1371 216.722 11.2105 216.959 11.3572C217.198 11.504 217.378 11.7005 217.499 11.9467C217.622 12.1906 217.684 12.4593 217.684 12.7528V13.1364C217.684 13.4276 217.622 13.6963 217.499 13.9425C217.376 14.1863 217.195 14.3816 216.956 14.5284C216.717 14.6776 216.425 14.7521 216.082 14.7521C215.734 14.7521 215.442 14.6776 215.205 14.5284C214.968 14.3816 214.788 14.1863 214.665 13.9425C214.542 13.6963 214.48 13.4276 214.48 13.1364ZM215.514 12.7528V13.1364C215.514 13.3045 215.554 13.4631 215.635 13.6122C215.717 13.7614 215.867 13.8359 216.082 13.8359C216.297 13.8359 216.444 13.7625 216.522 13.6158C216.603 13.469 216.643 13.3092 216.643 13.1364V12.7528C216.643 12.58 216.605 12.419 216.529 12.2699C216.454 12.1207 216.305 12.0462 216.082 12.0462C215.869 12.0462 215.721 12.1207 215.638 12.2699C215.555 12.419 215.514 12.58 215.514 12.7528ZM210.748 8.97443V8.59091C210.748 8.29735 210.811 8.02865 210.936 7.7848C211.062 7.53859 211.243 7.34209 211.48 7.19531C211.719 7.04853 212.008 6.97514 212.346 6.97514C212.697 6.97514 212.99 7.04853 213.227 7.19531C213.464 7.34209 213.644 7.53859 213.767 7.7848C213.89 8.02865 213.951 8.29735 213.951 8.59091V8.97443C213.951 9.26799 213.889 9.53669 213.763 9.78054C213.64 10.0244 213.459 10.2197 213.22 10.3665C212.983 10.5109 212.692 10.5831 212.346 10.5831C212.001 10.5831 211.708 10.5097 211.469 10.3629C211.232 10.2138 211.052 10.0185 210.929 9.77699C210.809 9.53314 210.748 9.26562 210.748 8.97443ZM211.789 8.59091V8.97443C211.789 9.14725 211.829 9.30705 211.909 9.45384C211.992 9.60062 212.138 9.67401 212.346 9.67401C212.564 9.67401 212.712 9.60062 212.79 9.45384C212.871 9.30705 212.911 9.14725 212.911 8.97443V8.59091C212.911 8.41809 212.873 8.2571 212.797 8.10795C212.721 7.95881 212.571 7.88423 212.346 7.88423C212.136 7.88423 211.99 7.95999 211.909 8.11151C211.829 8.26302 211.789 8.42282 211.789 8.59091ZM211.217 14.5L216.217 7.22727H217.147L212.147 14.5H211.217Z" fill="#212529"/>
<defs>
<filter id="filter0_d_218_2411" x="21.8867" y="66.9033" width="137.24" height="47.0059" filterUnits="userSpaceOnUse" color-interpolation-filters="sRGB">
<feFlood flood-opacity="0" result="BackgroundImageFix"/>
<feColorMatrix in="SourceAlpha" type="matrix" values="0 0 0 0 0 0 0 0 0 0 0 0 0 0 0 0 0 0 127 0" result="hardAlpha"/>
<feOffset dy="2"/>
<feGaussianBlur stdDeviation="2"/>
<feComposite in2="hardAlpha" operator="out"/>
<feColorMatrix type="matrix" values="0 0 0 0 0.129412 0 0 0 0 0.145098 0 0 0 0 0.160784 0 0 0 0.1 0"/>
<feBlend mode="normal" in2="BackgroundImageFix" result="effect1_dropShadow_218_2411"/>
<feBlend mode="normal" in="SourceGraphic" in2="effect1_dropShadow_218_2411" result="shape"/>
</filter>
<filter id="filter1_d_218_2411" x="20.9395" y="33.0166" width="82.1533" height="20.2573" filterUnits="userSpaceOnUse" color-interpolation-filters="sRGB">
<feFlood flood-opacity="0" result="BackgroundImageFix"/>
<feColorMatrix in="SourceAlpha" type="matrix" values="0 0 0 0 0 0 0 0 0 0 0 0 0 0 0 0 0 0 127 0" result="hardAlpha"/>
<feOffset dy="2"/>
<feGaussianBlur stdDeviation="2"/>
<feComposite in2="hardAlpha" operator="out"/>
<feColorMatrix type="matrix" values="0 0 0 0 0.129412 0 0 0 0 0.145098 0 0 0 0 0.160784 0 0 0 0.1 0"/>
<feBlend mode="normal" in2="BackgroundImageFix" result="effect1_dropShadow_218_2411"/>
<feBlend mode="normal" in="SourceGraphic" in2="effect1_dropShadow_218_2411" result="shape"/>
</filter>
<filter id="filter2_d_218_2411" x="160.962" y="76.2578" width="37.8594" height="20.0161" filterUnits="userSpaceOnUse" color-interpolation-filters="sRGB">
<feFlood flood-opacity="0" result="BackgroundImageFix"/>
<feColorMatrix in="SourceAlpha" type="matrix" values="0 0 0 0 0 0 0 0 0 0 0 0 0 0 0 0 0 0 127 0" result="hardAlpha"/>
<feOffset dy="2"/>
<feGaussianBlur stdDeviation="2"/>
<feComposite in2="hardAlpha" operator="out"/>
<feColorMatrix type="matrix" values="0 0 0 0 0.129412 0 0 0 0 0.145098 0 0 0 0 0.160784 0 0 0 0.1 0"/>
<feBlend mode="normal" in2="BackgroundImageFix" result="effect1_dropShadow_218_2411"/>
<feBlend mode="normal" in="SourceGraphic" in2="effect1_dropShadow_218_2411" result="shape"/>
</filter>
<filter id="filter3_d_218_2411" x="161.799" y="91.936" width="76.6787" height="15.6741" filterUnits="userSpaceOnUse" color-interpolation-filters="sRGB">
<feFlood flood-opacity="0" result="BackgroundImageFix"/>
<feColorMatrix in="SourceAlpha" type="matrix" values="0 0 0 0 0 0 0 0 0 0 0 0 0 0 0 0 0 0 127 0" result="hardAlpha"/>
<feOffset dy="2"/>
<feGaussianBlur stdDeviation="2"/>
<feComposite in2="hardAlpha" operator="out"/>
<feColorMatrix type="matrix" values="0 0 0 0 0.129412 0 0 0 0 0.145098 0 0 0 0 0.160784 0 0 0 0.1 0"/>
<feBlend mode="normal" in2="BackgroundImageFix" result="effect1_dropShadow_218_2411"/>
<feBlend mode="normal" in="SourceGraphic" in2="effect1_dropShadow_218_2411" result="shape"/>
</filter>
</defs>
</svg>
